<?xml version="1.0" encoding="UTF-8" standalone="no"?>
<!DOCTYPE svg PUBLIC "-//W3C//DTD SVG 1.1//EN"
 "http://www.w3.org/Graphics/SVG/1.1/DTD/svg11.dtd">
<!-- Generated by graphviz version 13.1.2 (20250808.2320)
 -->
<!-- Title: blinky Pages: 1 -->
<svg width="522pt" height="172pt"
 viewBox="0.00 0.00 522.00 172.00" xmlns="http://www.w3.org/2000/svg" xmlns:xlink="http://www.w3.org/1999/xlink">
<g id="graph0" class="graph" transform="scale(1 1) rotate(0) translate(4 168.1)">
<title>blinky</title>
<polygon fill="white" stroke="none" points="-4,4 -4,-168.1 518.03,-168.1 518.03,4 -4,4"/>
<!-- __start -->
<g id="node1" class="node">
<title>__start</title>
<ellipse fill="black" stroke="black" cx="7.2" cy="-55.68" rx="7.2" ry="7.2"/>
</g>
<!-- OFF_STATE -->
<g id="node2" class="node">
<title>OFF_STATE</title>
<ellipse fill="lightgray" stroke="black" cx="123.24" cy="-55.68" rx="51.09" ry="51.09"/>
<text xml:space="preserve" text-anchor="middle" x="123.24" y="-50.65" font-family="Helvetica,sans-Serif" font-size="12.00">OFF_STATE</text>
</g>
<!-- __start&#45;&gt;OFF_STATE -->
<g id="edge1" class="edge">
<title>__start&#45;&gt;OFF_STATE</title>
<path fill="none" stroke="black" d="M14.66,-55.68C23.91,-55.68 41.89,-55.68 60.54,-55.68"/>
<polygon fill="black" stroke="black" points="60.34,-59.18 70.34,-55.68 60.34,-52.18 60.34,-59.18"/>
<text xml:space="preserve" text-anchor="middle" x="43.27" y="-57.43" font-family="Helvetica,sans-Serif" font-size="10.00">reset</text>
</g>
<!-- ON_STATE -->
<g id="node3" class="node">
<title>ON_STATE</title>
<ellipse fill="lightgreen" stroke="black" cx="288.5" cy="-116.68" rx="47.42" ry="47.42"/>
<text xml:space="preserve" text-anchor="middle" x="288.5" y="-111.65" font-family="Helvetica,sans-Serif" font-size="12.00">ON_STATE</text>
</g>
<!-- OFF_STATE&#45;&gt;ON_STATE -->
<g id="edge2" class="edge">
<title>OFF_STATE&#45;&gt;ON_STATE</title>
<path fill="none" stroke="black" d="M171.46,-73.32C190.69,-80.51 213.04,-88.86 232.96,-96.3"/>
<polygon fill="black" stroke="black" points="231.73,-99.58 242.32,-99.8 234.18,-93.02 231.73,-99.58"/>
<text xml:space="preserve" text-anchor="middle" x="207.71" y="-93.39" font-family="Helvetica,sans-Serif" font-size="10.00">always</text>
</g>
<!-- FADE_STATE -->
<g id="node4" class="node">
<title>FADE_STATE</title>
<ellipse fill="lightyellow" stroke="black" cx="458.35" cy="-55.68" rx="55.68" ry="55.68"/>
<text xml:space="preserve" text-anchor="middle" x="458.35" y="-50.65" font-family="Helvetica,sans-Serif" font-size="12.00">FADE_STATE</text>
</g>
<!-- ON_STATE&#45;&gt;FADE_STATE -->
<g id="edge3" class="edge">
<title>ON_STATE&#45;&gt;FADE_STATE</title>
<path fill="none" stroke="black" d="M333.6,-100.65C352.29,-93.86 374.41,-85.82 394.74,-78.43"/>
<polygon fill="black" stroke="black" points="395.88,-81.74 404.08,-75.04 393.49,-75.17 395.88,-81.74"/>
<text xml:space="preserve" text-anchor="middle" x="369.3" y="-93.39" font-family="Helvetica,sans-Serif" font-size="10.00">always</text>
</g>
<!-- FADE_STATE&#45;&gt;OFF_STATE -->
<g id="edge4" class="edge">
<title>FADE_STATE&#45;&gt;OFF_STATE</title>
<path fill="none" stroke="black" d="M402.36,-52.25C381.56,-51.11 357.66,-49.99 335.92,-49.43 293.78,-48.35 283.22,-48.3 241.08,-49.43 223.17,-49.91 203.74,-50.8 185.96,-51.76"/>
<polygon fill="black" stroke="black" points="185.84,-48.26 176.05,-52.31 186.23,-55.25 185.84,-48.26"/>
<text xml:space="preserve" text-anchor="middle" x="288.5" y="-51.18" font-family="Helvetica,sans-Serif" font-size="10.00">always</text>
</g>
</g>
</svg>
