<?xml version="1.0" encoding="UTF-8" standalone="no"?>
<!DOCTYPE svg PUBLIC "-//W3C//DTD SVG 1.1//EN"
 "http://www.w3.org/Graphics/SVG/1.1/DTD/svg11.dtd">
<!-- Generated by graphviz version 2.43.20190912.0211 (20190912.0211)
 -->
<!-- Title: traffic_light_reset Pages: 1 -->
<svg width="254pt" height="98pt"
 viewBox="0.00 0.00 254.00 98.00" xmlns="http://www.w3.org/2000/svg" xmlns:xlink="http://www.w3.org/1999/xlink">
<g id="graph0" class="graph" transform="scale(1 1) rotate(0) translate(4 94)">
<title>traffic_light_reset</title>
<polygon fill="white" stroke="transparent" points="-4,4 -4,-94 250,-94 250,4 -4,4"/>
<g id="clust1" class="cluster">
<title>cluster_rst</title>
<polygon fill="#fce7f3" stroke="#9d174d" points="8,-8 8,-82 98,-82 98,-8 8,-8"/>
<text text-anchor="middle" x="53" y="-67.6" font-family="Helvetica Bold" font-size="13.00">rst (sync)</text>
</g>
<g id="clust2" class="cluster">
<title>cluster_por_n</title>
<polygon fill="#fed7aa" stroke="#c2410c" points="140,-8 140,-82 245,-82 245,-8 140,-8"/>
<text text-anchor="middle" x="192.5" y="-67.6" font-family="Helvetica Bold" font-size="13.00">por_n (async)</text>
</g>
<!-- rst__p_state_reg -->
<g id="node1" class="node">
<title>rst__p_state_reg</title>
<polygon fill="white" stroke="black" points="90,-52 16,-52 16,-16 90,-16 90,-52"/>
<text text-anchor="middle" x="53" y="-37.2" font-family="Helvetica,sans-Serif" font-size="11.00">p_state_reg</text>
<text text-anchor="middle" x="53" y="-25.2" font-family="Helvetica,sans-Serif" font-size="11.00">(clk)</text>
</g>
<!-- por_n__p_watchdog -->
<g id="node2" class="node">
<title>por_n__p_watchdog</title>
<polygon fill="white" stroke="black" points="230,-52 155,-52 155,-16 230,-16 230,-52"/>
<text text-anchor="middle" x="192.5" y="-37.2" font-family="Helvetica,sans-Serif" font-size="11.00">p_watchdog</text>
<text text-anchor="middle" x="192.5" y="-25.2" font-family="Helvetica,sans-Serif" font-size="11.00">(clk)</text>
</g>
<!-- rst__p_state_reg&#45;&gt;por_n__p_watchdog -->
<g id="edge1" class="edge">
<title>rst__p_state_reg&#45;&gt;por_n__p_watchdog</title>
<path fill="none" stroke="#dc2626" stroke-dasharray="5,2" d="M98,-34C108.11,-34 119.04,-34 129.75,-34"/>
<polygon fill="#dc2626" stroke="#dc2626" points="130,-37.5 140,-34 130,-30.5 130,-37.5"/>
<text text-anchor="middle" x="119" y="-37" font-family="Helvetica,sans-Serif" font-size="10.00" fill="#dc2626">state</text>
</g>
</g>
</svg>
