<?xml version="1.0" encoding="UTF-8" standalone="no"?>
<!DOCTYPE svg PUBLIC "-//W3C//DTD SVG 1.1//EN"
 "http://www.w3.org/Graphics/SVG/1.1/DTD/svg11.dtd">
<!-- Generated by graphviz version 2.43.20190912.0211 (20190912.0211)
 -->
<!-- Title: traffic_light_block Pages: 1 -->
<svg width="224pt" height="240pt"
 viewBox="0.00 0.00 224.00 240.00" xmlns="http://www.w3.org/2000/svg" xmlns:xlink="http://www.w3.org/1999/xlink">
<g id="graph0" class="graph" transform="scale(1 1) rotate(0) translate(4 236)">
<title>traffic_light_block</title>
<polygon fill="white" stroke="transparent" points="-4,4 -4,-236 220,-236 220,4 -4,4"/>
<!-- gen_box_traffic_light -->
<g id="node1" class="node">
<title>gen_box_traffic_light</title>
<polygon fill="#c8f5c4" stroke="transparent" points="13.5,-147 13.5,-232 202.5,-232 202.5,-147 13.5,-147"/>
<text text-anchor="start" x="24" y="-211.9" font-family="Helvetica,sans-Serif" font-size="12.00">CLK_FREQ_HZ = 50_000_000</text>
<text text-anchor="start" x="24" y="-185.9" font-family="Helvetica,sans-Serif" font-size="12.00">PHASE_MS = 5_000</text>
<text text-anchor="start" x="24" y="-159.9" font-family="Helvetica,sans-Serif" font-size="12.00">TRANS_MS = 2_000</text>
<polygon fill="none" stroke="#1a5c1a" stroke-width="2" points="14.5,-148 14.5,-231 201.5,-231 201.5,-148 14.5,-148"/>
</g>
<!-- port_box_traffic_light -->
<g id="node2" class="node">
<title>port_box_traffic_light</title>
<polygon fill="#fffde7" stroke="transparent" points="0,0 0,-111 216,-111 216,0 0,0"/>
<text text-anchor="start" x="10" y="-90.9" font-family="Helvetica,sans-Serif" font-size="12.00">▸ clk</text>
<text text-anchor="start" x="103" y="-90.9" font-family="Helvetica,sans-Serif" font-size="12.00"> </text>
<text text-anchor="start" x="154" y="-90.9" font-family="Helvetica,sans-Serif" font-size="12.00">red_out ◂</text>
<text text-anchor="start" x="10" y="-64.9" font-family="Helvetica,sans-Serif" font-size="12.00">▸ rst</text>
<text text-anchor="start" x="103" y="-64.9" font-family="Helvetica,sans-Serif" font-size="12.00"> </text>
<text text-anchor="start" x="138" y="-64.9" font-family="Helvetica,sans-Serif" font-size="12.00">amber_out ◂</text>
<text text-anchor="start" x="10" y="-38.9" font-family="Helvetica,sans-Serif" font-size="12.00">▸ timer_exp</text>
<text text-anchor="start" x="103" y="-38.9" font-family="Helvetica,sans-Serif" font-size="12.00"> </text>
<text text-anchor="start" x="141" y="-38.9" font-family="Helvetica,sans-Serif" font-size="12.00">green_out ◂</text>
<text text-anchor="start" x="10" y="-12.9" font-family="Helvetica,sans-Serif" font-size="12.00">▸ por_n</text>
<text text-anchor="start" x="103" y="-12.9" font-family="Helvetica,sans-Serif" font-size="12.00"> </text>
<text text-anchor="start" x="170" y="-12.9" font-family="Helvetica,sans-Serif" font-size="12.00"> </text>
<polygon fill="none" stroke="#5d4200" stroke-width="2" points="1,-1 1,-110 215,-110 215,-1 1,-1"/>
</g>
<!-- gen_box_traffic_light&#45;&gt;port_box_traffic_light -->
</g>
</svg>
