<?xml version="1.0" encoding="UTF-8" standalone="no"?>
<!DOCTYPE svg PUBLIC "-//W3C//DTD SVG 1.1//EN"
 "http://www.w3.org/Graphics/SVG/1.1/DTD/svg11.dtd">
<!-- Generated by graphviz version 2.43.20190912.0211 (20190912.0211)
 -->
<!-- Title: pwm_controller_block Pages: 1 -->
<svg width="284pt" height="192pt"
 viewBox="0.00 0.00 284.00 191.50" xmlns="http://www.w3.org/2000/svg" xmlns:xlink="http://www.w3.org/1999/xlink">
<g id="graph0" class="graph" transform="scale(1 1) rotate(0) translate(4 187.5)">
<title>pwm_controller_block</title>
<polygon fill="white" stroke="transparent" points="-4,4 -4,-187.5 280,-187.5 280,4 -4,4"/>
<!-- gen_box_pwm_controller -->
<g id="node1" class="node">
<title>gen_box_pwm_controller</title>
<polygon fill="#c8f5c4" stroke="transparent" points="98,-149 98,-182 178,-182 178,-149 98,-149"/>
<text text-anchor="start" x="108" y="-161.9" font-family="Helvetica,sans-Serif" font-size="12.00">WIDTH = 8</text>
<polygon fill="none" stroke="#1a5c1a" stroke-width="2" points="99,-150 99,-181 177,-181 177,-150 99,-150"/>
</g>
<!-- port_box_pwm_controller -->
<g id="node2" class="node">
<title>port_box_pwm_controller</title>
<polygon fill="#fffde7" stroke="transparent" points="0,0 0,-111 276,-111 276,0 0,0"/>
<text text-anchor="start" x="10" y="-90.9" font-family="Helvetica,sans-Serif" font-size="12.00">▸ clk</text>
<text text-anchor="start" x="152" y="-90.9" font-family="Helvetica,sans-Serif" font-size="12.00"> </text>
<text text-anchor="start" x="216" y="-90.9" font-family="Helvetica,sans-Serif" font-size="12.00">pwm_o ◂</text>
<text text-anchor="start" x="10" y="-64.9" font-family="Helvetica,sans-Serif" font-size="12.00">▸ rst</text>
<text text-anchor="start" x="152" y="-64.9" font-family="Helvetica,sans-Serif" font-size="12.00"> </text>
<text text-anchor="start" x="187" y="-64.9" font-family="Helvetica,sans-Serif" font-size="12.00">period_done ◂</text>
<text text-anchor="start" x="10" y="-38.9" font-family="Helvetica,sans-Serif" font-size="12.00">▸ en</text>
<text text-anchor="start" x="152" y="-38.9" font-family="Helvetica,sans-Serif" font-size="12.00"> </text>
<text text-anchor="start" x="224.5" y="-38.9" font-family="Helvetica,sans-Serif" font-size="12.00"> </text>
<text text-anchor="start" x="10" y="-12.9" font-family="Helvetica,sans-Serif" font-size="12.00">▸ duty_i [WIDTH&#45;1:0]</text>
<text text-anchor="start" x="152" y="-12.9" font-family="Helvetica,sans-Serif" font-size="12.00"> </text>
<text text-anchor="start" x="224.5" y="-12.9" font-family="Helvetica,sans-Serif" font-size="12.00"> </text>
<polygon fill="none" stroke="#5d4200" stroke-width="2" points="1,-1 1,-110 275,-110 275,-1 1,-1"/>
</g>
<!-- gen_box_pwm_controller&#45;&gt;port_box_pwm_controller -->
</g>
</svg>
