<?xml version="1.0" encoding="UTF-8" standalone="no"?>
<!DOCTYPE svg PUBLIC "-//W3C//DTD SVG 1.1//EN"
 "http://www.w3.org/Graphics/SVG/1.1/DTD/svg11.dtd">
<!-- Generated by graphviz version 2.43.20190912.0211 (20190912.0211)
 -->
<!-- Title: cfg_sync_block Pages: 1 -->
<svg width="242pt" height="171pt"
 viewBox="0.00 0.00 242.00 171.00" xmlns="http://www.w3.org/2000/svg" xmlns:xlink="http://www.w3.org/1999/xlink">
<g id="graph0" class="graph" transform="scale(1 1) rotate(0) translate(4 167)">
<title>cfg_sync_block</title>
<polygon fill="white" stroke="transparent" points="-4,4 -4,-167 238,-167 238,4 -4,4"/>
<!-- port_box_cfg_sync -->
<g id="node1" class="node">
<title>port_box_cfg_sync</title>
<polygon fill="#fffde7" stroke="transparent" points="0,0 0,-163 234,-163 234,0 0,0"/>
<text text-anchor="start" x="10" y="-142.9" font-family="Helvetica,sans-Serif" font-size="12.00">▸ sys_clk</text>
<text text-anchor="start" x="123" y="-142.9" font-family="Helvetica,sans-Serif" font-size="12.00"> </text>
<text text-anchor="start" x="161" y="-142.9" font-family="Helvetica,sans-Serif" font-size="12.00">blinky_en ◂</text>
<text text-anchor="start" x="10" y="-116.9" font-family="Helvetica,sans-Serif" font-size="12.00">▸ sys_rst</text>
<text text-anchor="start" x="123" y="-116.9" font-family="Helvetica,sans-Serif" font-size="12.00"> </text>
<text text-anchor="start" x="158" y="-116.9" font-family="Helvetica,sans-Serif" font-size="12.00">pwm_duty ◂</text>
<text text-anchor="start" x="10" y="-90.9" font-family="Helvetica,sans-Serif" font-size="12.00">▸ cfg_clk</text>
<text text-anchor="start" x="123" y="-90.9" font-family="Helvetica,sans-Serif" font-size="12.00"> </text>
<text text-anchor="start" x="189" y="-90.9" font-family="Helvetica,sans-Serif" font-size="12.00"> </text>
<text text-anchor="start" x="10" y="-64.9" font-family="Helvetica,sans-Serif" font-size="12.00">▸ cfg_rst</text>
<text text-anchor="start" x="123" y="-64.9" font-family="Helvetica,sans-Serif" font-size="12.00"> </text>
<text text-anchor="start" x="189" y="-64.9" font-family="Helvetica,sans-Serif" font-size="12.00"> </text>
<text text-anchor="start" x="10" y="-38.9" font-family="Helvetica,sans-Serif" font-size="12.00">▸ mode_sel</text>
<text text-anchor="start" x="123" y="-38.9" font-family="Helvetica,sans-Serif" font-size="12.00"> </text>
<text text-anchor="start" x="189" y="-38.9" font-family="Helvetica,sans-Serif" font-size="12.00"> </text>
<text text-anchor="start" x="10" y="-12.9" font-family="Helvetica,sans-Serif" font-size="12.00">▸ duty_cycle [8]</text>
<text text-anchor="start" x="123" y="-12.9" font-family="Helvetica,sans-Serif" font-size="12.00"> </text>
<text text-anchor="start" x="189" y="-12.9" font-family="Helvetica,sans-Serif" font-size="12.00"> </text>
<polygon fill="none" stroke="#5d4200" stroke-width="2" points="1,-1 1,-162 233,-162 233,-1 1,-1"/>
</g>
</g>
</svg>
