<?xml version="1.0" encoding="UTF-8" standalone="no"?>
<!DOCTYPE svg PUBLIC "-//W3C//DTD SVG 1.1//EN"
 "http://www.w3.org/Graphics/SVG/1.1/DTD/svg11.dtd">
<!-- Generated by graphviz version 2.43.20190912.0211 (20190912.0211)
 -->
<!-- Title: cfg_sync_reset Pages: 1 -->
<svg width="304pt" height="161pt"
 viewBox="0.00 0.00 304.00 161.00" xmlns="http://www.w3.org/2000/svg" xmlns:xlink="http://www.w3.org/1999/xlink">
<g id="graph0" class="graph" transform="scale(1 1) rotate(0) translate(4 157)">
<title>cfg_sync_reset</title>
<polygon fill="white" stroke="transparent" points="-4,4 -4,-157 300,-157 300,4 -4,4"/>
<g id="clust1" class="cluster">
<title>cluster_cfg_rst</title>
<polygon fill="#fce7f3" stroke="#9d174d" points="0,-71 0,-145 105,-145 105,-71 0,-71"/>
<text text-anchor="middle" x="52.5" y="-130.6" font-family="Helvetica Bold" font-size="13.00">cfg_rst (sync)</text>
</g>
<g id="clust2" class="cluster">
<title>cluster_sys_rst</title>
<polygon fill="#fed7aa" stroke="#c2410c" points="181,-8 181,-136 288,-136 288,-8 181,-8"/>
<text text-anchor="middle" x="234.5" y="-121.6" font-family="Helvetica Bold" font-size="13.00">sys_rst (sync)</text>
</g>
<!-- cfg_rst__p_cfg_reg -->
<g id="node1" class="node">
<title>cfg_rst__p_cfg_reg</title>
<polygon fill="white" stroke="black" points="85,-115 20,-115 20,-79 85,-79 85,-115"/>
<text text-anchor="middle" x="52.5" y="-100.2" font-family="Helvetica,sans-Serif" font-size="11.00">p_cfg_reg</text>
<text text-anchor="middle" x="52.5" y="-88.2" font-family="Helvetica,sans-Serif" font-size="11.00">(cfg_clk)</text>
</g>
<!-- sys_rst__p_mode_sync -->
<g id="node2" class="node">
<title>sys_rst__p_mode_sync</title>
<polygon fill="white" stroke="black" points="276,-106 193,-106 193,-70 276,-70 276,-106"/>
<text text-anchor="middle" x="234.5" y="-91.2" font-family="Helvetica,sans-Serif" font-size="11.00">p_mode_sync</text>
<text text-anchor="middle" x="234.5" y="-79.2" font-family="Helvetica,sans-Serif" font-size="11.00">(sys_clk)</text>
</g>
<!-- cfg_rst__p_cfg_reg&#45;&gt;sys_rst__p_mode_sync -->
<g id="edge1" class="edge">
<title>cfg_rst__p_cfg_reg&#45;&gt;sys_rst__p_mode_sync</title>
<path fill="none" stroke="#dc2626" stroke-dasharray="5,2" d="M105,-94.43C125.56,-93.4 149.43,-92.2 170.97,-91.13"/>
<polygon fill="#dc2626" stroke="#dc2626" points="171.19,-94.62 181,-90.62 170.84,-87.63 171.19,-94.62"/>
<text text-anchor="middle" x="143" y="-96" font-family="Helvetica,sans-Serif" font-size="10.00" fill="#dc2626">duty_cycle_r</text>
</g>
<!-- cfg_rst__p_cfg_reg&#45;&gt;sys_rst__p_mode_sync -->
<g id="edge2" class="edge">
<title>cfg_rst__p_cfg_reg&#45;&gt;sys_rst__p_mode_sync</title>
<path fill="none" stroke="#dc2626" stroke-dasharray="5,2" d="M105,-78.06C108.35,-77.25 111.71,-76.55 115,-76 133.05,-73 152.77,-73.51 170.86,-75.46"/>
<polygon fill="#dc2626" stroke="#dc2626" points="170.65,-78.96 181,-76.72 171.51,-72.01 170.65,-78.96"/>
<text text-anchor="middle" x="143" y="-79" font-family="Helvetica,sans-Serif" font-size="10.00" fill="#dc2626">mode_sel_r</text>
</g>
<!-- sys_rst__p_duty_capture -->
<g id="node3" class="node">
<title>sys_rst__p_duty_capture</title>
<polygon fill="white" stroke="black" points="280,-52 189,-52 189,-16 280,-16 280,-52"/>
<text text-anchor="middle" x="234.5" y="-37.2" font-family="Helvetica,sans-Serif" font-size="11.00">p_duty_capture</text>
<text text-anchor="middle" x="234.5" y="-25.2" font-family="Helvetica,sans-Serif" font-size="11.00">(sys_clk)</text>
</g>
</g>
</svg>
