<?xml version="1.0" encoding="UTF-8" standalone="no"?>
<!DOCTYPE svg PUBLIC "-//W3C//DTD SVG 1.1//EN"
 "http://www.w3.org/Graphics/SVG/1.1/DTD/svg11.dtd">
<!-- Generated by graphviz version 2.43.20190912.0211 (20190912.0211)
 -->
<!-- Title: traffic_light Pages: 1 -->
<svg width="699pt" height="171pt"
 viewBox="0.00 0.00 698.58 171.18" xmlns="http://www.w3.org/2000/svg" xmlns:xlink="http://www.w3.org/1999/xlink">
<g id="graph0" class="graph" transform="scale(1 1) rotate(0) translate(4 167.18)">
<title>traffic_light</title>
<polygon fill="white" stroke="transparent" points="-4,4 -4,-167.18 694.58,-167.18 694.58,4 -4,4"/>
<!-- __start -->
<g id="node1" class="node">
<title>__start</title>
<ellipse fill="black" stroke="black" cx="7.2" cy="-36.94" rx="7.2" ry="7.2"/>
</g>
<!-- RED -->
<g id="node2" class="node">
<title>RED</title>
<ellipse fill="salmon" stroke="black" cx="98.87" cy="-36.94" rx="26.44" ry="26.44"/>
<text text-anchor="middle" x="98.87" y="-33.84" font-family="Helvetica,sans-Serif" font-size="12.00">RED</text>
</g>
<!-- __start&#45;&gt;RED -->
<g id="edge1" class="edge">
<title>__start&#45;&gt;RED</title>
<path fill="none" stroke="black" d="M14.65,-36.94C24.59,-36.94 44.35,-36.94 62.13,-36.94"/>
<polygon fill="black" stroke="black" points="62.28,-40.44 72.28,-36.94 62.28,-33.44 62.28,-40.44"/>
<text text-anchor="middle" x="43.4" y="-39.94" font-family="Helvetica,sans-Serif" font-size="10.00">reset</text>
</g>
<!-- RED_AMBER -->
<g id="node3" class="node">
<title>RED_AMBER</title>
<ellipse fill="lightyellow" stroke="black" cx="283.59" cy="-105.94" rx="57.5" ry="57.5"/>
<text text-anchor="middle" x="283.59" y="-102.84" font-family="Helvetica,sans-Serif" font-size="12.00">RED_AMBER</text>
</g>
<!-- RED&#45;&gt;RED_AMBER -->
<g id="edge2" class="edge">
<title>RED&#45;&gt;RED_AMBER</title>
<path fill="none" stroke="black" d="M123.76,-45.96C148.15,-55.17 187.03,-69.85 220.22,-82.38"/>
<polygon fill="black" stroke="black" points="219.27,-85.76 229.86,-86.02 221.74,-79.22 219.27,-85.76"/>
<text text-anchor="middle" x="175.84" y="-79.94" font-family="Helvetica,sans-Serif" font-size="10.00">timer_exp = &#39;1&#39;</text>
</g>
<!-- GREEN -->
<g id="node4" class="node">
<title>GREEN</title>
<ellipse fill="lightgreen" stroke="black" cx="478.77" cy="-95.94" rx="36.87" ry="36.87"/>
<text text-anchor="middle" x="478.77" y="-92.84" font-family="Helvetica,sans-Serif" font-size="12.00">GREEN</text>
</g>
<!-- RED_AMBER&#45;&gt;GREEN -->
<g id="edge3" class="edge">
<title>RED_AMBER&#45;&gt;GREEN</title>
<path fill="none" stroke="black" d="M340.99,-103.02C369.82,-101.52 404.48,-99.73 431.69,-98.32"/>
<polygon fill="black" stroke="black" points="431.92,-101.81 441.73,-97.8 431.56,-94.82 431.92,-101.81"/>
<text text-anchor="middle" x="391.34" y="-103.94" font-family="Helvetica,sans-Serif" font-size="10.00">timer_exp = &#39;1&#39;</text>
</g>
<!-- AMBER -->
<g id="node5" class="node">
<title>AMBER</title>
<ellipse fill="orange" stroke="black" cx="653.65" cy="-36.94" rx="36.87" ry="36.87"/>
<text text-anchor="middle" x="653.65" y="-33.84" font-family="Helvetica,sans-Serif" font-size="12.00">AMBER</text>
</g>
<!-- GREEN&#45;&gt;AMBER -->
<g id="edge4" class="edge">
<title>GREEN&#45;&gt;AMBER</title>
<path fill="none" stroke="black" d="M513.93,-84.28C541.16,-74.99 579.47,-61.91 608.94,-51.85"/>
<polygon fill="black" stroke="black" points="610.23,-55.11 618.56,-48.57 607.97,-48.49 610.23,-55.11"/>
<text text-anchor="middle" x="566.21" y="-78.94" font-family="Helvetica,sans-Serif" font-size="10.00">timer_exp = &#39;1&#39;</text>
</g>
<!-- AMBER&#45;&gt;RED -->
<g id="edge5" class="edge">
<title>AMBER&#45;&gt;RED</title>
<path fill="none" stroke="black" d="M616.7,-36.94C516.6,-36.94 235.44,-36.94 135.6,-36.94"/>
<polygon fill="black" stroke="black" points="135.42,-33.44 125.42,-36.94 135.42,-40.44 135.42,-33.44"/>
<text text-anchor="middle" x="391.34" y="-39.94" font-family="Helvetica,sans-Serif" font-size="10.00">timer_exp = &#39;1&#39;</text>
</g>
</g>
</svg>
