<?xml version="1.0" encoding="UTF-8" standalone="no"?>
<!DOCTYPE svg PUBLIC "-//W3C//DTD SVG 1.1//EN"
 "http://www.w3.org/Graphics/SVG/1.1/DTD/svg11.dtd">
<!-- Generated by graphviz version 2.43.20190912.0211 (20190912.0211)
 -->
<!-- Title: blinky Pages: 1 -->
<svg width="527pt" height="174pt"
 viewBox="0.00 0.00 527.12 173.65" xmlns="http://www.w3.org/2000/svg" xmlns:xlink="http://www.w3.org/1999/xlink">
<g id="graph0" class="graph" transform="scale(1 1) rotate(0) translate(4 169.65)">
<title>blinky</title>
<polygon fill="white" stroke="transparent" points="-4,4 -4,-169.65 523.12,-169.65 523.12,4 -4,4"/>
<!-- __start -->
<g id="node1" class="node">
<title>__start</title>
<ellipse fill="black" stroke="black" cx="7.2" cy="-56.63" rx="7.2" ry="7.2"/>
</g>
<!-- OFF_STATE -->
<g id="node2" class="node">
<title>OFF_STATE</title>
<ellipse fill="lightgray" stroke="black" cx="124.11" cy="-56.63" rx="51.92" ry="51.92"/>
<text text-anchor="middle" x="124.11" y="-53.53" font-family="Helvetica,sans-Serif" font-size="12.00">OFF_STATE</text>
</g>
<!-- __start&#45;&gt;OFF_STATE -->
<g id="edge1" class="edge">
<title>__start&#45;&gt;OFF_STATE</title>
<path fill="none" stroke="black" d="M14.71,-56.63C24.25,-56.63 43,-56.63 62.26,-56.63"/>
<polygon fill="black" stroke="black" points="62.34,-60.13 72.34,-56.63 62.34,-53.13 62.34,-60.13"/>
<text text-anchor="middle" x="43.4" y="-59.63" font-family="Helvetica,sans-Serif" font-size="10.00">reset</text>
</g>
<!-- ON_STATE -->
<g id="node3" class="node">
<title>ON_STATE</title>
<ellipse fill="lightgreen" stroke="black" cx="290.83" cy="-117.63" rx="48.03" ry="48.03"/>
<text text-anchor="middle" x="290.83" y="-114.53" font-family="Helvetica,sans-Serif" font-size="12.00">ON_STATE</text>
</g>
<!-- OFF_STATE&#45;&gt;ON_STATE -->
<g id="edge2" class="edge">
<title>OFF_STATE&#45;&gt;ON_STATE</title>
<path fill="none" stroke="black" d="M172.75,-74.28C192.61,-81.63 215.75,-90.2 236.19,-97.77"/>
<polygon fill="black" stroke="black" points="235.09,-101.09 245.68,-101.28 237.52,-94.53 235.09,-101.09"/>
<text text-anchor="middle" x="209.32" y="-94.63" font-family="Helvetica,sans-Serif" font-size="10.00">always</text>
</g>
<!-- FADE_STATE -->
<g id="node4" class="node">
<title>FADE_STATE</title>
<ellipse fill="lightyellow" stroke="black" cx="462.48" cy="-56.63" rx="56.77" ry="56.77"/>
<text text-anchor="middle" x="462.48" y="-53.53" font-family="Helvetica,sans-Serif" font-size="12.00">FADE_STATE</text>
</g>
<!-- ON_STATE&#45;&gt;FADE_STATE -->
<g id="edge3" class="edge">
<title>ON_STATE&#45;&gt;FADE_STATE</title>
<path fill="none" stroke="black" d="M336.41,-101.61C355.65,-94.69 378.49,-86.48 399.35,-78.98"/>
<polygon fill="black" stroke="black" points="400.55,-82.26 408.77,-75.59 398.18,-75.68 400.55,-82.26"/>
<text text-anchor="middle" x="372.35" y="-94.63" font-family="Helvetica,sans-Serif" font-size="10.00">always</text>
</g>
<!-- FADE_STATE&#45;&gt;OFF_STATE -->
<g id="edge4" class="edge">
<title>FADE_STATE&#45;&gt;OFF_STATE</title>
<path fill="none" stroke="black" d="M405.96,-52.79C384.95,-51.52 360.81,-50.26 338.85,-49.63 296.19,-48.42 285.48,-48.37 242.82,-49.63 224.34,-50.18 204.26,-51.22 186,-52.32"/>
<polygon fill="black" stroke="black" points="185.54,-48.84 175.78,-52.96 185.97,-55.83 185.54,-48.84"/>
<text text-anchor="middle" x="290.83" y="-52.63" font-family="Helvetica,sans-Serif" font-size="10.00">always</text>
</g>
</g>
</svg>
