<?xml version="1.0" encoding="UTF-8" standalone="no"?>
<!DOCTYPE svg PUBLIC "-//W3C//DTD SVG 1.1//EN"
 "http://www.w3.org/Graphics/SVG/1.1/DTD/svg11.dtd">
<!-- Generated by graphviz version 13.1.2 (20250808.2320)
 -->
<!-- Title: cfg_sync_reset Pages: 1 -->
<svg width="302pt" height="152pt"
 viewBox="0.00 0.00 302.00 152.00" xmlns="http://www.w3.org/2000/svg" xmlns:xlink="http://www.w3.org/1999/xlink">
<g id="graph0" class="graph" transform="scale(1 1) rotate(0) translate(4 148)">
<title>cfg_sync_reset</title>
<polygon fill="white" stroke="none" points="-4,4 -4,-148 298,-148 298,4 -4,4"/>
<g id="clust1" class="cluster">
<title>cluster_cfg_rst</title>
<polygon fill="#fce7f3" stroke="#9d174d" points="0,-25 0,-99 104.5,-99 104.5,-25 0,-25"/>
<text xml:space="preserve" text-anchor="middle" x="52.25" y="-82.65" font-family="Helvetica Bold" font-size="13.00">cfg_rst (sync)</text>
</g>
<g id="clust2" class="cluster">
<title>cluster_sys_rst</title>
<polygon fill="#fed7aa" stroke="#c2410c" points="180,-8 180,-136 286.75,-136 286.75,-8 180,-8"/>
<text xml:space="preserve" text-anchor="middle" x="233.38" y="-119.65" font-family="Helvetica Bold" font-size="13.00">sys_rst (sync)</text>
</g>
<!-- cfg_rst__p_cfg_reg -->
<g id="node1" class="node">
<title>cfg_rst__p_cfg_reg</title>
<polygon fill="white" stroke="black" points="83.75,-69 19.75,-69 19.75,-33 83.75,-33 83.75,-69"/>
<text xml:space="preserve" text-anchor="middle" x="51.75" y="-52.55" font-family="Helvetica,sans-Serif" font-size="11.00">p_cfg_reg</text>
<text xml:space="preserve" text-anchor="middle" x="51.75" y="-40.55" font-family="Helvetica,sans-Serif" font-size="11.00">(cfg_clk)</text>
</g>
<!-- sys_rst__p_mode_sync -->
<g id="node2" class="node">
<title>sys_rst__p_mode_sync</title>
<polygon fill="white" stroke="black" points="274.25,-52 191.5,-52 191.5,-16 274.25,-16 274.25,-52"/>
<text xml:space="preserve" text-anchor="middle" x="232.88" y="-35.55" font-family="Helvetica,sans-Serif" font-size="11.00">p_mode_sync</text>
<text xml:space="preserve" text-anchor="middle" x="232.88" y="-23.55" font-family="Helvetica,sans-Serif" font-size="11.00">(sys_clk)</text>
</g>
<!-- cfg_rst__p_cfg_reg&#45;&gt;sys_rst__p_mode_sync -->
<g id="edge1" class="edge">
<title>cfg_rst__p_cfg_reg&#45;&gt;sys_rst__p_mode_sync</title>
<path fill="none" stroke="#dc2626" stroke-dasharray="5,2" d="M104.5,-46.09C124.58,-44.18 147.76,-41.98 168.8,-39.99"/>
<polygon fill="#dc2626" stroke="#dc2626" points="168.87,-43.5 178.5,-39.07 168.21,-36.53 168.87,-43.5"/>
<text xml:space="preserve" text-anchor="middle" x="142.25" y="-46.77" font-family="Helvetica,sans-Serif" font-size="10.00" fill="#dc2626">duty_cycle_r</text>
</g>
<!-- cfg_rst__p_cfg_reg&#45;&gt;sys_rst__p_mode_sync -->
<g id="edge2" class="edge">
<title>cfg_rst__p_cfg_reg&#45;&gt;sys_rst__p_mode_sync</title>
<path fill="none" stroke="#dc2626" stroke-dasharray="5,2" d="M104.5,-27.27C107.84,-26.28 111.19,-25.42 114.5,-24.75 135.61,-20.45 159.24,-21.26 179.72,-23.7"/>
<polygon fill="#dc2626" stroke="#dc2626" points="176.97,-34.89 179.21,-24.54 171,-31.24 176.97,-34.89"/>
<text xml:space="preserve" text-anchor="middle" x="142.25" y="-26.5" font-family="Helvetica,sans-Serif" font-size="10.00" fill="#dc2626">mode_sel_r</text>
</g>
<!-- sys_rst__p_duty_capture -->
<g id="node3" class="node">
<title>sys_rst__p_duty_capture</title>
<polygon fill="white" stroke="black" points="278,-106 187.75,-106 187.75,-70 278,-70 278,-106"/>
<text xml:space="preserve" text-anchor="middle" x="232.88" y="-89.55" font-family="Helvetica,sans-Serif" font-size="11.00">p_duty_capture</text>
<text xml:space="preserve" text-anchor="middle" x="232.88" y="-77.55" font-family="Helvetica,sans-Serif" font-size="11.00">(sys_clk)</text>
</g>
</g>
</svg>
