<?xml version="1.0" encoding="UTF-8" standalone="no"?>
<!DOCTYPE svg PUBLIC "-//W3C//DTD SVG 1.1//EN"
 "http://www.w3.org/Graphics/SVG/1.1/DTD/svg11.dtd">
<!-- Generated by graphviz version 13.1.2 (20250808.2320)
 -->
<!-- Title: hierarchy Pages: 1 -->
<svg width="270pt" height="116pt"
 viewBox="0.00 0.00 270.00 116.00" xmlns="http://www.w3.org/2000/svg" xmlns:xlink="http://www.w3.org/1999/xlink">
<g id="graph0" class="graph" transform="scale(1 1) rotate(0) translate(4 112)">
<title>hierarchy</title>
<polygon fill="white" stroke="none" points="-4,4 -4,-112 265.88,-112 265.88,4 -4,4"/>
<!-- top -->
<g id="node1" class="node">
<title>top</title>
<polygon fill="lightblue" stroke="black" points="148,-108 94,-108 94,-72 148,-72 148,-108"/>
<text xml:space="preserve" text-anchor="middle" x="121" y="-84.97" font-family="Helvetica,sans-Serif" font-size="12.00">top</text>
</g>
<!-- blinky -->
<g id="node2" class="node">
<title>blinky</title>
<polygon fill="lightblue" stroke="black" points="54,-36 0,-36 0,0 54,0 54,-36"/>
<text xml:space="preserve" text-anchor="middle" x="27" y="-12.97" font-family="Helvetica,sans-Serif" font-size="12.00">blinky</text>
</g>
<!-- top&#45;&gt;blinky -->
<g id="edge1" class="edge">
<title>top&#45;&gt;blinky</title>
<path fill="none" stroke="black" d="M97.76,-71.7C86.13,-63.03 71.85,-52.4 59.18,-42.96"/>
<polygon fill="black" stroke="black" points="61.62,-40.42 51.51,-37.25 57.44,-46.03 61.62,-40.42"/>
</g>
<!-- pwm_controller -->
<g id="node3" class="node">
<title>pwm_controller</title>
<polygon fill="lightblue" stroke="black" points="169.88,-36 72.12,-36 72.12,0 169.88,0 169.88,-36"/>
<text xml:space="preserve" text-anchor="middle" x="121" y="-12.97" font-family="Helvetica,sans-Serif" font-size="12.00">pwm_controller</text>
</g>
<!-- top&#45;&gt;pwm_controller -->
<g id="edge2" class="edge">
<title>top&#45;&gt;pwm_controller</title>
<path fill="none" stroke="black" d="M121,-71.7C121,-64.41 121,-55.73 121,-47.54"/>
<polygon fill="black" stroke="black" points="124.5,-47.62 121,-37.62 117.5,-47.62 124.5,-47.62"/>
</g>
<!-- traffic_light -->
<g id="node4" class="node">
<title>traffic_light</title>
<polygon fill="lightblue" stroke="black" points="261.88,-36 188.12,-36 188.12,0 261.88,0 261.88,-36"/>
<text xml:space="preserve" text-anchor="middle" x="225" y="-12.97" font-family="Helvetica,sans-Serif" font-size="12.00">traffic_light</text>
</g>
<!-- top&#45;&gt;traffic_light -->
<g id="edge3" class="edge">
<title>top&#45;&gt;traffic_light</title>
<path fill="none" stroke="black" d="M146.98,-71.52C159.98,-62.76 175.91,-52.04 189.97,-42.58"/>
<polygon fill="black" stroke="black" points="191.76,-45.59 198.1,-37.11 187.85,-39.79 191.76,-45.59"/>
</g>
</g>
</svg>
