<?xml version="1.0" encoding="UTF-8" standalone="no"?>
<!DOCTYPE svg PUBLIC "-//W3C//DTD SVG 1.1//EN"
 "http://www.w3.org/Graphics/SVG/1.1/DTD/svg11.dtd">
<!-- Generated by graphviz version 13.1.2 (20250808.2320)
 -->
<!-- Title: hierarchy Pages: 1 -->
<svg width="352pt" height="116pt"
 viewBox="0.00 0.00 352.00 116.00" xmlns="http://www.w3.org/2000/svg" xmlns:xlink="http://www.w3.org/1999/xlink">
<g id="graph0" class="graph" transform="scale(1 1) rotate(0) translate(4 112)">
<title>hierarchy</title>
<polygon fill="white" stroke="none" points="-4,4 -4,-112 347.88,-112 347.88,4 -4,4"/>
<!-- top -->
<g id="node1" class="node">
<title>top</title>
<polygon fill="lightblue" stroke="black" points="180,-108 126,-108 126,-72 180,-72 180,-108"/>
<text xml:space="preserve" text-anchor="middle" x="153" y="-84.97" font-family="Helvetica,sans-Serif" font-size="12.00">top</text>
</g>
<!-- blinky -->
<g id="node2" class="node">
<title>blinky</title>
<polygon fill="lightblue" stroke="black" points="54,-36 0,-36 0,0 54,0 54,-36"/>
<text xml:space="preserve" text-anchor="middle" x="27" y="-12.97" font-family="Helvetica,sans-Serif" font-size="12.00">blinky</text>
</g>
<!-- top&#45;&gt;blinky -->
<g id="edge1" class="edge">
<title>top&#45;&gt;blinky</title>
<path fill="none" stroke="black" d="M125.66,-73.81C107.66,-63.81 83.88,-50.6 64.17,-39.65"/>
<polygon fill="black" stroke="black" points="66.05,-36.69 55.61,-34.89 62.65,-42.81 66.05,-36.69"/>
</g>
<!-- cfg_sync -->
<g id="node3" class="node">
<title>cfg_sync</title>
<polygon fill="lightblue" stroke="black" points="135.62,-36 72.38,-36 72.38,0 135.62,0 135.62,-36"/>
<text xml:space="preserve" text-anchor="middle" x="104" y="-12.97" font-family="Helvetica,sans-Serif" font-size="12.00">cfg_sync</text>
</g>
<!-- top&#45;&gt;cfg_sync -->
<g id="edge2" class="edge">
<title>top&#45;&gt;cfg_sync</title>
<path fill="none" stroke="black" d="M140.89,-71.7C135.31,-63.73 128.57,-54.1 122.38,-45.26"/>
<polygon fill="black" stroke="black" points="125.44,-43.53 116.84,-37.34 119.71,-47.54 125.44,-43.53"/>
</g>
<!-- pwm_controller -->
<g id="node4" class="node">
<title>pwm_controller</title>
<polygon fill="lightblue" stroke="black" points="251.88,-36 154.12,-36 154.12,0 251.88,0 251.88,-36"/>
<text xml:space="preserve" text-anchor="middle" x="203" y="-12.97" font-family="Helvetica,sans-Serif" font-size="12.00">pwm_controller</text>
</g>
<!-- top&#45;&gt;pwm_controller -->
<g id="edge3" class="edge">
<title>top&#45;&gt;pwm_controller</title>
<path fill="none" stroke="black" d="M165.36,-71.7C171.05,-63.73 177.93,-54.1 184.24,-45.26"/>
<polygon fill="black" stroke="black" points="186.94,-47.51 189.9,-37.34 181.24,-43.44 186.94,-47.51"/>
</g>
<!-- traffic_light -->
<g id="node5" class="node">
<title>traffic_light</title>
<polygon fill="lightblue" stroke="black" points="343.88,-36 270.12,-36 270.12,0 343.88,0 343.88,-36"/>
<text xml:space="preserve" text-anchor="middle" x="307" y="-12.97" font-family="Helvetica,sans-Serif" font-size="12.00">traffic_light</text>
</g>
<!-- top&#45;&gt;traffic_light -->
<g id="edge4" class="edge">
<title>top&#45;&gt;traffic_light</title>
<path fill="none" stroke="black" d="M180.18,-76.65C202.03,-66.71 233.28,-52.51 259.28,-40.69"/>
<polygon fill="black" stroke="black" points="260.66,-43.91 268.32,-36.58 257.77,-37.53 260.66,-43.91"/>
</g>
</g>
</svg>
