<?xml version="1.0" encoding="UTF-8" standalone="no"?>
<!DOCTYPE svg PUBLIC "-//W3C//DTD SVG 1.1//EN"
 "http://www.w3.org/Graphics/SVG/1.1/DTD/svg11.dtd">
<!-- Generated by graphviz version 2.43.20190912.0211 (20190912.0211)
 -->
<!-- Title: hierarchy Pages: 1 -->
<svg width="352pt" height="116pt"
 viewBox="0.00 0.00 352.00 116.00" xmlns="http://www.w3.org/2000/svg" xmlns:xlink="http://www.w3.org/1999/xlink">
<g id="graph0" class="graph" transform="scale(1 1) rotate(0) translate(4 112)">
<title>hierarchy</title>
<polygon fill="white" stroke="transparent" points="-4,4 -4,-112 348,-112 348,4 -4,4"/>
<!-- top -->
<g id="node1" class="node">
<title>top</title>
<polygon fill="lightblue" stroke="black" points="180,-108 126,-108 126,-72 180,-72 180,-108"/>
<text text-anchor="middle" x="153" y="-86.9" font-family="Helvetica,sans-Serif" font-size="12.00">top</text>
</g>
<!-- blinky -->
<g id="node2" class="node">
<title>blinky</title>
<polygon fill="lightblue" stroke="black" points="54,-36 0,-36 0,0 54,0 54,-36"/>
<text text-anchor="middle" x="27" y="-14.9" font-family="Helvetica,sans-Serif" font-size="12.00">blinky</text>
</g>
<!-- top&#45;&gt;blinky -->
<g id="edge1" class="edge">
<title>top&#45;&gt;blinky</title>
<path fill="none" stroke="black" d="M125.97,-73.98C107.66,-63.81 83.25,-50.25 63.26,-39.14"/>
<polygon fill="black" stroke="black" points="64.86,-36.03 54.42,-34.23 61.46,-42.15 64.86,-36.03"/>
</g>
<!-- cfg_sync -->
<g id="node3" class="node">
<title>cfg_sync</title>
<polygon fill="lightblue" stroke="black" points="136,-36 72,-36 72,0 136,0 136,-36"/>
<text text-anchor="middle" x="104" y="-14.9" font-family="Helvetica,sans-Serif" font-size="12.00">cfg_sync</text>
</g>
<!-- top&#45;&gt;cfg_sync -->
<g id="edge2" class="edge">
<title>top&#45;&gt;cfg_sync</title>
<path fill="none" stroke="black" d="M140.89,-71.7C135.13,-63.47 128.14,-53.48 121.79,-44.42"/>
<polygon fill="black" stroke="black" points="124.58,-42.29 115.97,-36.1 118.84,-46.3 124.58,-42.29"/>
</g>
<!-- pwm_controller -->
<g id="node4" class="node">
<title>pwm_controller</title>
<polygon fill="lightblue" stroke="black" points="252,-36 154,-36 154,0 252,0 252,-36"/>
<text text-anchor="middle" x="203" y="-14.9" font-family="Helvetica,sans-Serif" font-size="12.00">pwm_controller</text>
</g>
<!-- top&#45;&gt;pwm_controller -->
<g id="edge3" class="edge">
<title>top&#45;&gt;pwm_controller</title>
<path fill="none" stroke="black" d="M165.36,-71.7C171.23,-63.47 178.37,-53.48 184.84,-44.42"/>
<polygon fill="black" stroke="black" points="187.82,-46.28 190.78,-36.1 182.12,-42.21 187.82,-46.28"/>
</g>
<!-- traffic_light -->
<g id="node5" class="node">
<title>traffic_light</title>
<polygon fill="lightblue" stroke="black" points="344,-36 270,-36 270,0 344,0 344,-36"/>
<text text-anchor="middle" x="307" y="-14.9" font-family="Helvetica,sans-Serif" font-size="12.00">traffic_light</text>
</g>
<!-- top&#45;&gt;traffic_light -->
<g id="edge4" class="edge">
<title>top&#45;&gt;traffic_light</title>
<path fill="none" stroke="black" d="M180.18,-76.65C202.4,-66.54 234.33,-52.03 260.59,-40.09"/>
<polygon fill="black" stroke="black" points="262.33,-43.15 269.98,-35.83 259.43,-36.78 262.33,-43.15"/>
</g>
</g>
</svg>
