<?xml version="1.0" encoding="UTF-8" standalone="no"?>
<!DOCTYPE svg PUBLIC "-//W3C//DTD SVG 1.1//EN"
 "http://www.w3.org/Graphics/SVG/1.1/DTD/svg11.dtd">
<!-- Generated by graphviz version 13.1.2 (20250808.2320)
 -->
<!-- Title: pwm_controller_block Pages: 1 -->
<svg width="282pt" height="200pt"
 viewBox="0.00 0.00 282.00 200.00" xmlns="http://www.w3.org/2000/svg" xmlns:xlink="http://www.w3.org/1999/xlink">
<g id="graph0" class="graph" transform="scale(1 1) rotate(0) translate(4 195.5)">
<title>pwm_controller_block</title>
<polygon fill="white" stroke="none" points="-4,4 -4,-195.5 278.25,-195.5 278.25,4 -4,4"/>
<!-- gen_box_pwm_controller -->
<g id="node1" class="node">
<title>gen_box_pwm_controller</title>
<polygon fill="#c8f5c4" stroke="none" points="97.5,-157.12 97.5,-189.88 176.75,-189.88 176.75,-157.12 97.5,-157.12"/>
<text xml:space="preserve" text-anchor="start" x="107.5" y="-168.47" font-family="Helvetica,sans-Serif" font-size="12.00">WIDTH = 8</text>
<polygon fill="none" stroke="#1a5c1a" stroke-width="2" points="98.5,-158.12 98.5,-188.88 175.75,-188.88 175.75,-158.12 98.5,-158.12"/>
</g>
<!-- port_box_pwm_controller -->
<g id="node2" class="node">
<title>port_box_pwm_controller</title>
<polygon fill="#fffde7" stroke="none" points="0,0 0,-119 274.25,-119 274.25,0 0,0"/>
<text xml:space="preserve" text-anchor="start" x="10" y="-97.6" font-family="Helvetica,sans-Serif" font-size="12.00">▸ clk</text>
<text xml:space="preserve" text-anchor="start" x="151.75" y="-96.47" font-family="Helvetica,sans-Serif" font-size="12.00"> </text>
<text xml:space="preserve" text-anchor="start" x="214.75" y="-97.22" font-family="Helvetica,sans-Serif" font-size="12.00">pwm_o ◂</text>
<text xml:space="preserve" text-anchor="start" x="10" y="-69.6" font-family="Helvetica,sans-Serif" font-size="12.00">▸ rst</text>
<text xml:space="preserve" text-anchor="start" x="151.75" y="-68.47" font-family="Helvetica,sans-Serif" font-size="12.00"> </text>
<text xml:space="preserve" text-anchor="start" x="186.25" y="-69.22" font-family="Helvetica,sans-Serif" font-size="12.00">period_done ◂</text>
<text xml:space="preserve" text-anchor="start" x="10" y="-41.6" font-family="Helvetica,sans-Serif" font-size="12.00">▸ en</text>
<text xml:space="preserve" text-anchor="start" x="151.75" y="-40.48" font-family="Helvetica,sans-Serif" font-size="12.00"> </text>
<text xml:space="preserve" text-anchor="start" x="223.75" y="-40.48" font-family="Helvetica,sans-Serif" font-size="12.00"> </text>
<text xml:space="preserve" text-anchor="start" x="10" y="-13.6" font-family="Helvetica,sans-Serif" font-size="12.00">▸ duty_i [WIDTH&#45;1:0]</text>
<text xml:space="preserve" text-anchor="start" x="151.75" y="-12.47" font-family="Helvetica,sans-Serif" font-size="12.00"> </text>
<text xml:space="preserve" text-anchor="start" x="223.75" y="-12.47" font-family="Helvetica,sans-Serif" font-size="12.00"> </text>
<polygon fill="none" stroke="#5d4200" stroke-width="2" points="1,-1 1,-118 273.25,-118 273.25,-1 1,-1"/>
</g>
<!-- gen_box_pwm_controller&#45;&gt;port_box_pwm_controller -->
</g>
</svg>
