<?xml version="1.0" encoding="UTF-8" standalone="no"?>
<!DOCTYPE svg PUBLIC "-//W3C//DTD SVG 1.1//EN"
 "http://www.w3.org/Graphics/SVG/1.1/DTD/svg11.dtd">
<!-- Generated by graphviz version 2.43.20190912.0211 (20190912.0211)
 -->
<!-- Title: cfg_sync_cdc Pages: 1 -->
<svg width="307pt" height="163pt"
 viewBox="0.00 0.00 307.00 163.00" xmlns="http://www.w3.org/2000/svg" xmlns:xlink="http://www.w3.org/1999/xlink">
<g id="graph0" class="graph" transform="scale(1 1) rotate(0) translate(4 159)">
<title>cfg_sync_cdc</title>
<polygon fill="white" stroke="transparent" points="-4,4 -4,-159 303,-159 303,4 -4,4"/>
<g id="clust1" class="cluster">
<title>cluster_cfg_clk</title>
<polygon fill="#dbeafe" stroke="#1d4ed8" points="8,-73 8,-147 89,-147 89,-73 8,-73"/>
<text text-anchor="middle" x="48.5" y="-132.6" font-family="Helvetica Bold" font-size="13.00">cfg_clk</text>
</g>
<g id="clust2" class="cluster">
<title>cluster_sys_clk</title>
<polygon fill="#fef9c3" stroke="#b45309" points="184,-8 184,-136 291,-136 291,-8 184,-8"/>
<text text-anchor="middle" x="237.5" y="-121.6" font-family="Helvetica Bold" font-size="13.00">sys_clk</text>
</g>
<!-- cfg_clk__p_cfg_reg -->
<g id="node1" class="node">
<title>cfg_clk__p_cfg_reg</title>
<polygon fill="white" stroke="black" points="81,-117 16,-117 16,-81 81,-81 81,-117"/>
<text text-anchor="middle" x="48.5" y="-96.2" font-family="Helvetica,sans-Serif" font-size="11.00">p_cfg_reg</text>
</g>
<!-- sys_clk__p_mode_sync -->
<g id="node2" class="node">
<title>sys_clk__p_mode_sync</title>
<polygon fill="white" stroke="black" points="279,-106 196,-106 196,-70 279,-70 279,-106"/>
<text text-anchor="middle" x="237.5" y="-85.2" font-family="Helvetica,sans-Serif" font-size="11.00">p_mode_sync</text>
</g>
<!-- cfg_clk__p_cfg_reg&#45;&gt;sys_clk__p_mode_sync -->
<g id="edge1" class="edge">
<title>cfg_clk__p_cfg_reg&#45;&gt;sys_clk__p_mode_sync</title>
<path fill="none" stroke="#dc2626" stroke-dasharray="5,2" d="M89,-96.68C113.56,-95.23 145.69,-93.34 173.68,-91.7"/>
<polygon fill="#dc2626" stroke="#dc2626" points="174.22,-95.17 184,-91.09 173.81,-88.18 174.22,-95.17"/>
<text text-anchor="middle" x="136.5" y="-110" font-family="Helvetica,sans-Serif" font-size="10.00" fill="#dc2626">duty_cycle_r</text>
<text text-anchor="middle" x="136.5" y="-99" font-family="Helvetica,sans-Serif" font-size="10.00" fill="#dc2626">(unsynchronized)</text>
</g>
<!-- cfg_clk__p_cfg_reg&#45;&gt;sys_clk__p_mode_sync -->
<g id="edge2" class="edge">
<title>cfg_clk__p_cfg_reg&#45;&gt;sys_clk__p_mode_sync</title>
<path fill="none" stroke="#16a34a" d="M81.59,-73C87.12,-69.71 93.02,-66.86 99,-65 130.84,-55.12 141.18,-59.15 174,-65 174.1,-65.02 174.21,-65.04 174.31,-65.06"/>
<polygon fill="#16a34a" stroke="#16a34a" points="173.48,-68.46 184,-67.2 174.99,-61.62 173.48,-68.46"/>
<text text-anchor="middle" x="136.5" y="-79" font-family="Helvetica,sans-Serif" font-size="10.00" fill="#16a34a">mode_sel_r</text>
<text text-anchor="middle" x="136.5" y="-68" font-family="Helvetica,sans-Serif" font-size="10.00" fill="#16a34a">(synchronized)</text>
</g>
<!-- sys_clk__p_duty_capture -->
<g id="node3" class="node">
<title>sys_clk__p_duty_capture</title>
<polygon fill="white" stroke="black" points="283,-52 192,-52 192,-16 283,-16 283,-52"/>
<text text-anchor="middle" x="237.5" y="-31.2" font-family="Helvetica,sans-Serif" font-size="11.00">p_duty_capture</text>
</g>
</g>
</svg>
