<?xml version="1.0" encoding="UTF-8" standalone="no"?>
<!DOCTYPE svg PUBLIC "-//W3C//DTD SVG 1.1//EN"
 "http://www.w3.org/Graphics/SVG/1.1/DTD/svg11.dtd">
<!-- Generated by graphviz version 2.43.20190912.0211 (20190912.0211)
 -->
<!-- Title: pwm_controller Pages: 1 -->
<svg width="448pt" height="153pt"
 viewBox="0.00 0.00 448.32 152.87" xmlns="http://www.w3.org/2000/svg" xmlns:xlink="http://www.w3.org/1999/xlink">
<g id="graph0" class="graph" transform="scale(1 1) rotate(0) translate(4 148.87)">
<title>pwm_controller</title>
<polygon fill="white" stroke="transparent" points="-4,4 -4,-148.87 444.32,-148.87 444.32,4 -4,4"/>
<!-- __start -->
<g id="node1" class="node">
<title>__start</title>
<ellipse fill="black" stroke="black" cx="7.2" cy="-32.01" rx="7.2" ry="7.2"/>
</g>
<!-- IDLE -->
<g id="node2" class="node">
<title>IDLE</title>
<ellipse fill="lightblue" stroke="black" cx="99.49" cy="-32.01" rx="27.17" ry="27.17"/>
<text text-anchor="middle" x="99.49" y="-28.91" font-family="Helvetica,sans-Serif" font-size="12.00">IDLE</text>
</g>
<!-- __start&#45;&gt;IDLE -->
<g id="edge1" class="edge">
<title>__start&#45;&gt;IDLE</title>
<path fill="none" stroke="black" d="M14.41,-32.01C24.2,-32.01 43.96,-32.01 61.87,-32.01"/>
<polygon fill="black" stroke="black" points="62.11,-35.51 72.11,-32.01 62.11,-28.51 62.11,-35.51"/>
<text text-anchor="middle" x="43.4" y="-35.01" font-family="Helvetica,sans-Serif" font-size="10.00">reset</text>
</g>
<!-- COUNTING -->
<g id="node3" class="node">
<title>COUNTING</title>
<ellipse fill="lightyellow" stroke="black" cx="223.43" cy="-95.01" rx="49.73" ry="49.73"/>
<text text-anchor="middle" x="223.43" y="-91.91" font-family="Helvetica,sans-Serif" font-size="12.00">COUNTING</text>
</g>
<!-- IDLE&#45;&gt;COUNTING -->
<g id="edge2" class="edge">
<title>IDLE&#45;&gt;COUNTING</title>
<path fill="none" stroke="black" d="M124,-44.16C136.96,-50.85 153.61,-59.45 169.51,-67.67"/>
<polygon fill="black" stroke="black" points="168.26,-70.96 178.75,-72.44 171.47,-64.74 168.26,-70.96"/>
<text text-anchor="middle" x="150.07" y="-62.01" font-family="Helvetica,sans-Serif" font-size="10.00">en</text>
</g>
<!-- DONE -->
<g id="node4" class="node">
<title>DONE</title>
<ellipse fill="lightgreen" stroke="black" cx="408.31" cy="-32.01" rx="32.02" ry="32.02"/>
<text text-anchor="middle" x="408.31" y="-28.91" font-family="Helvetica,sans-Serif" font-size="12.00">DONE</text>
</g>
<!-- COUNTING&#45;&gt;DONE -->
<g id="edge3" class="edge">
<title>COUNTING&#45;&gt;DONE</title>
<path fill="none" stroke="black" d="M271.05,-78.95C301.06,-68.61 339.62,-55.33 368.06,-45.53"/>
<polygon fill="black" stroke="black" points="369.35,-48.79 377.67,-42.22 367.07,-42.17 369.35,-48.79"/>
<text text-anchor="middle" x="324.8" y="-73.01" font-family="Helvetica,sans-Serif" font-size="10.00">count == 8&#39;hFF</text>
</g>
<!-- DONE&#45;&gt;IDLE -->
<g id="edge4" class="edge">
<title>DONE&#45;&gt;IDLE</title>
<path fill="none" stroke="black" d="M376.29,-29.55C331.51,-26.35 246.16,-21.54 173.57,-25.01 161.46,-25.59 148.26,-26.7 136.45,-27.88"/>
<polygon fill="black" stroke="black" points="136.07,-24.4 126.49,-28.91 136.8,-31.36 136.07,-24.4"/>
<text text-anchor="middle" x="223.43" y="-28.01" font-family="Helvetica,sans-Serif" font-size="10.00">always</text>
</g>
</g>
</svg>
