<?xml version="1.0" encoding="UTF-8" standalone="no"?>
<!DOCTYPE svg PUBLIC "-//W3C//DTD SVG 1.1//EN"
 "http://www.w3.org/Graphics/SVG/1.1/DTD/svg11.dtd">
<!-- Generated by graphviz version 2.43.20190912.0211 (20190912.0211)
 -->
<!-- Title: blinky_block Pages: 1 -->
<svg width="214pt" height="119pt"
 viewBox="0.00 0.00 214.00 119.00" xmlns="http://www.w3.org/2000/svg" xmlns:xlink="http://www.w3.org/1999/xlink">
<g id="graph0" class="graph" transform="scale(1 1) rotate(0) translate(4 115)">
<title>blinky_block</title>
<polygon fill="white" stroke="transparent" points="-4,4 -4,-115 210,-115 210,4 -4,4"/>
<!-- port_box_blinky -->
<g id="node1" class="node">
<title>port_box_blinky</title>
<polygon fill="#fffde7" stroke="transparent" points="0,0 0,-111 206,-111 206,0 0,0"/>
<text text-anchor="start" x="10" y="-90.9" font-family="Helvetica,sans-Serif" font-size="12.00">▸ clk</text>
<text text-anchor="start" x="103" y="-90.9" font-family="Helvetica,sans-Serif" font-size="12.00"> </text>
<text text-anchor="start" x="148" y="-90.9" font-family="Helvetica,sans-Serif" font-size="12.00">led_on ◂</text>
<text text-anchor="start" x="10" y="-64.9" font-family="Helvetica,sans-Serif" font-size="12.00">▸ rst</text>
<text text-anchor="start" x="103" y="-64.9" font-family="Helvetica,sans-Serif" font-size="12.00"> </text>
<text text-anchor="start" x="138" y="-64.9" font-family="Helvetica,sans-Serif" font-size="12.00">led_fade ◂</text>
<text text-anchor="start" x="10" y="-38.9" font-family="Helvetica,sans-Serif" font-size="12.00">▸ en</text>
<text text-anchor="start" x="103" y="-38.9" font-family="Helvetica,sans-Serif" font-size="12.00"> </text>
<text text-anchor="start" x="149" y="-38.9" font-family="Helvetica,sans-Serif" font-size="12.00">led_off ◂</text>
<text text-anchor="start" x="10" y="-12.9" font-family="Helvetica,sans-Serif" font-size="12.00">▸ timer_exp</text>
<text text-anchor="start" x="103" y="-12.9" font-family="Helvetica,sans-Serif" font-size="12.00"> </text>
<text text-anchor="start" x="165" y="-12.9" font-family="Helvetica,sans-Serif" font-size="12.00"> </text>
<polygon fill="none" stroke="#5d4200" stroke-width="2" points="1,-1 1,-110 205,-110 205,-1 1,-1"/>
</g>
</g>
</svg>
