<?xml version="1.0" encoding="UTF-8" standalone="no"?>
<!DOCTYPE svg PUBLIC "-//W3C//DTD SVG 1.1//EN"
 "http://www.w3.org/Graphics/SVG/1.1/DTD/svg11.dtd">
<!-- Generated by graphviz version 13.1.2 (20250808.2320)
 -->
<!-- Title: traffic_light Pages: 1 -->
<svg width="692pt" height="170pt"
 viewBox="0.00 0.00 692.00 170.00" xmlns="http://www.w3.org/2000/svg" xmlns:xlink="http://www.w3.org/1999/xlink">
<g id="graph0" class="graph" transform="scale(1 1) rotate(0) translate(4 166)">
<title>traffic_light</title>
<polygon fill="white" stroke="none" points="-4,4 -4,-166 688.17,-166 688.17,4 -4,4"/>
<!-- __start -->
<g id="node1" class="node">
<title>__start</title>
<ellipse fill="black" stroke="black" cx="7.2" cy="-36.41" rx="7.2" ry="7.2"/>
</g>
<!-- RED -->
<g id="node2" class="node">
<title>RED</title>
<ellipse fill="salmon" stroke="black" cx="98" cy="-36.41" rx="25.85" ry="25.85"/>
<text xml:space="preserve" text-anchor="middle" x="98" y="-31.38" font-family="Helvetica,sans-Serif" font-size="12.00">RED</text>
</g>
<!-- __start&#45;&gt;RED -->
<g id="edge1" class="edge">
<title>__start&#45;&gt;RED</title>
<path fill="none" stroke="black" d="M14.87,-36.41C24.58,-36.41 43.28,-36.41 60.4,-36.41"/>
<polygon fill="black" stroke="black" points="60.35,-39.91 70.35,-36.41 60.35,-32.91 60.35,-39.91"/>
<text xml:space="preserve" text-anchor="middle" x="43.28" y="-38.16" font-family="Helvetica,sans-Serif" font-size="10.00">reset</text>
</g>
<!-- RED_AMBER -->
<g id="node3" class="node">
<title>RED_AMBER</title>
<ellipse fill="lightyellow" stroke="black" cx="280.95" cy="-105.41" rx="56.6" ry="56.6"/>
<text xml:space="preserve" text-anchor="middle" x="280.95" y="-100.38" font-family="Helvetica,sans-Serif" font-size="12.00">RED_AMBER</text>
</g>
<!-- RED&#45;&gt;RED_AMBER -->
<g id="edge2" class="edge">
<title>RED&#45;&gt;RED_AMBER</title>
<path fill="none" stroke="black" d="M122.66,-45.43C146.6,-54.56 184.65,-69.07 217.33,-81.53"/>
<polygon fill="black" stroke="black" points="215.72,-84.66 226.32,-84.95 218.22,-78.12 215.72,-84.66"/>
<text xml:space="preserve" text-anchor="middle" x="174.1" y="-78.84" font-family="Helvetica,sans-Serif" font-size="10.00">timer_exp = &#39;1&#39;</text>
</g>
<!-- GREEN -->
<g id="node4" class="node">
<title>GREEN</title>
<ellipse fill="lightgreen" stroke="black" cx="474.45" cy="-94.41" rx="36.41" ry="36.41"/>
<text xml:space="preserve" text-anchor="middle" x="474.45" y="-89.38" font-family="Helvetica,sans-Serif" font-size="12.00">GREEN</text>
</g>
<!-- RED_AMBER&#45;&gt;GREEN -->
<g id="edge3" class="edge">
<title>RED_AMBER&#45;&gt;GREEN</title>
<path fill="none" stroke="black" d="M337.86,-102.19C365.94,-100.58 399.58,-98.65 426.33,-97.11"/>
<polygon fill="black" stroke="black" points="426.42,-100.61 436.21,-96.55 426.02,-93.62 426.42,-100.61"/>
<text xml:space="preserve" text-anchor="middle" x="387.8" y="-102.64" font-family="Helvetica,sans-Serif" font-size="10.00">timer_exp = &#39;1&#39;</text>
</g>
<!-- AMBER -->
<g id="node5" class="node">
<title>AMBER</title>
<ellipse fill="orange" stroke="black" cx="647.76" cy="-36.41" rx="36.41" ry="36.41"/>
<text xml:space="preserve" text-anchor="middle" x="647.76" y="-31.38" font-family="Helvetica,sans-Serif" font-size="12.00">AMBER</text>
</g>
<!-- GREEN&#45;&gt;AMBER -->
<g id="edge4" class="edge">
<title>GREEN&#45;&gt;AMBER</title>
<path fill="none" stroke="black" d="M509.3,-82.95C535.93,-73.93 573.26,-61.29 602.3,-51.46"/>
<polygon fill="black" stroke="black" points="603.21,-54.85 611.56,-48.33 600.96,-48.22 603.21,-54.85"/>
<text xml:space="preserve" text-anchor="middle" x="561.11" y="-77.4" font-family="Helvetica,sans-Serif" font-size="10.00">timer_exp = &#39;1&#39;</text>
</g>
<!-- AMBER&#45;&gt;RED -->
<g id="edge5" class="edge">
<title>AMBER&#45;&gt;RED</title>
<path fill="none" stroke="black" d="M611.15,-36.41C512.36,-36.41 235.59,-36.41 135.61,-36.41"/>
<polygon fill="black" stroke="black" points="135.84,-32.91 125.84,-36.41 135.84,-39.91 135.84,-32.91"/>
<text xml:space="preserve" text-anchor="middle" x="387.8" y="-38.16" font-family="Helvetica,sans-Serif" font-size="10.00">timer_exp = &#39;1&#39;</text>
</g>
</g>
</svg>
