<?xml version="1.0" encoding="UTF-8" standalone="no"?>
<!DOCTYPE svg PUBLIC "-//W3C//DTD SVG 1.1//EN"
 "http://www.w3.org/Graphics/SVG/1.1/DTD/svg11.dtd">
<!-- Generated by graphviz version 13.1.2 (20250808.2320)
 -->
<!-- Title: traffic_light_block Pages: 1 -->
<svg width="223pt" height="248pt"
 viewBox="0.00 0.00 223.00 248.00" xmlns="http://www.w3.org/2000/svg" xmlns:xlink="http://www.w3.org/1999/xlink">
<g id="graph0" class="graph" transform="scale(1 1) rotate(0) translate(4 243.62)">
<title>traffic_light_block</title>
<polygon fill="white" stroke="none" points="-4,4 -4,-243.62 219,-243.62 219,4 -4,4"/>
<!-- gen_box_traffic_light -->
<g id="node1" class="node">
<title>gen_box_traffic_light</title>
<polygon fill="#c8f5c4" stroke="none" points="13.5,-155.38 13.5,-239.62 201.5,-239.62 201.5,-155.38 13.5,-155.38"/>
<text xml:space="preserve" text-anchor="start" x="23.5" y="-218.22" font-family="Helvetica,sans-Serif" font-size="12.00">CLK_FREQ_HZ = 50_000_000</text>
<text xml:space="preserve" text-anchor="start" x="23.5" y="-192.47" font-family="Helvetica,sans-Serif" font-size="12.00">PHASE_MS = 5_000</text>
<text xml:space="preserve" text-anchor="start" x="23.5" y="-166.72" font-family="Helvetica,sans-Serif" font-size="12.00">TRANS_MS = 2_000</text>
<polygon fill="none" stroke="#1a5c1a" stroke-width="2" points="14.5,-156.38 14.5,-238.62 200.5,-238.62 200.5,-156.38 14.5,-156.38"/>
</g>
<!-- port_box_traffic_light -->
<g id="node2" class="node">
<title>port_box_traffic_light</title>
<polygon fill="#fffde7" stroke="none" points="0,0 0,-119 215,-119 215,0 0,0"/>
<text xml:space="preserve" text-anchor="start" x="10" y="-97.6" font-family="Helvetica,sans-Serif" font-size="12.00">▸ clk</text>
<text xml:space="preserve" text-anchor="start" x="103" y="-96.47" font-family="Helvetica,sans-Serif" font-size="12.00"> </text>
<text xml:space="preserve" text-anchor="start" x="154" y="-97.22" font-family="Helvetica,sans-Serif" font-size="12.00">red_out ◂</text>
<text xml:space="preserve" text-anchor="start" x="10" y="-69.6" font-family="Helvetica,sans-Serif" font-size="12.00">▸ rst</text>
<text xml:space="preserve" text-anchor="start" x="103" y="-68.47" font-family="Helvetica,sans-Serif" font-size="12.00"> </text>
<text xml:space="preserve" text-anchor="start" x="137.5" y="-69.22" font-family="Helvetica,sans-Serif" font-size="12.00">amber_out ◂</text>
<text xml:space="preserve" text-anchor="start" x="10" y="-41.6" font-family="Helvetica,sans-Serif" font-size="12.00">▸ timer_exp</text>
<text xml:space="preserve" text-anchor="start" x="103" y="-40.48" font-family="Helvetica,sans-Serif" font-size="12.00"> </text>
<text xml:space="preserve" text-anchor="start" x="140.5" y="-41.23" font-family="Helvetica,sans-Serif" font-size="12.00">green_out ◂</text>
<text xml:space="preserve" text-anchor="start" x="10" y="-13.6" font-family="Helvetica,sans-Serif" font-size="12.00">▸ por_n</text>
<text xml:space="preserve" text-anchor="start" x="103" y="-12.47" font-family="Helvetica,sans-Serif" font-size="12.00"> </text>
<text xml:space="preserve" text-anchor="start" x="169.75" y="-12.47" font-family="Helvetica,sans-Serif" font-size="12.00"> </text>
<polygon fill="none" stroke="#5d4200" stroke-width="2" points="1,-1 1,-118 214,-118 214,-1 1,-1"/>
</g>
<!-- gen_box_traffic_light&#45;&gt;port_box_traffic_light -->
</g>
</svg>
