<?xml version="1.0" encoding="UTF-8" standalone="no"?>
<!DOCTYPE svg PUBLIC "-//W3C//DTD SVG 1.1//EN"
 "http://www.w3.org/Graphics/SVG/1.1/DTD/svg11.dtd">
<!-- Generated by graphviz version 13.1.2 (20250808.2320)
 -->
<!-- Title: cfg_sync_cdc Pages: 1 -->
<svg width="305pt" height="152pt"
 viewBox="0.00 0.00 305.00 152.00" xmlns="http://www.w3.org/2000/svg" xmlns:xlink="http://www.w3.org/1999/xlink">
<g id="graph0" class="graph" transform="scale(1 1) rotate(0) translate(4 148)">
<title>cfg_sync_cdc</title>
<polygon fill="white" stroke="none" points="-4,4 -4,-148 300.5,-148 300.5,4 -4,4"/>
<g id="clust1" class="cluster">
<title>cluster_cfg_clk</title>
<polygon fill="#dbeafe" stroke="#1d4ed8" points="8,-31 8,-105 88,-105 88,-31 8,-31"/>
<text xml:space="preserve" text-anchor="middle" x="48" y="-88.65" font-family="Helvetica Bold" font-size="13.00">cfg_clk</text>
</g>
<g id="clust2" class="cluster">
<title>cluster_sys_clk</title>
<polygon fill="#fef9c3" stroke="#b45309" points="182.25,-8 182.25,-136 288.5,-136 288.5,-8 182.25,-8"/>
<text xml:space="preserve" text-anchor="middle" x="235.38" y="-119.65" font-family="Helvetica Bold" font-size="13.00">sys_clk</text>
</g>
<!-- cfg_clk__p_cfg_reg -->
<g id="node1" class="node">
<title>cfg_clk__p_cfg_reg</title>
<polygon fill="white" stroke="black" points="80,-75 16,-75 16,-39 80,-39 80,-75"/>
<text xml:space="preserve" text-anchor="middle" x="48" y="-52.55" font-family="Helvetica,sans-Serif" font-size="11.00">p_cfg_reg</text>
</g>
<!-- sys_clk__p_mode_sync -->
<g id="node2" class="node">
<title>sys_clk__p_mode_sync</title>
<polygon fill="white" stroke="black" points="276.75,-52 194,-52 194,-16 276.75,-16 276.75,-52"/>
<text xml:space="preserve" text-anchor="middle" x="235.38" y="-29.55" font-family="Helvetica,sans-Serif" font-size="11.00">p_mode_sync</text>
</g>
<!-- cfg_clk__p_cfg_reg&#45;&gt;sys_clk__p_mode_sync -->
<g id="edge1" class="edge">
<title>cfg_clk__p_cfg_reg&#45;&gt;sys_clk__p_mode_sync</title>
<path fill="none" stroke="#dc2626" stroke-dasharray="5,2" d="M88,-54.54C109.96,-52.92 138.71,-50.38 171.29,-45.99"/>
<polygon fill="#dc2626" stroke="#dc2626" points="171.33,-49.52 180.76,-44.68 170.37,-42.59 171.33,-49.52"/>
<text xml:space="preserve" text-anchor="middle" x="135.12" y="-66.69" font-family="Helvetica,sans-Serif" font-size="10.00" fill="#dc2626">duty_cycle_r</text>
<text xml:space="preserve" text-anchor="middle" x="135.12" y="-55.44" font-family="Helvetica,sans-Serif" font-size="10.00" fill="#dc2626">(unsynchronized)</text>
</g>
<!-- cfg_clk__p_cfg_reg&#45;&gt;sys_clk__p_mode_sync -->
<g id="edge2" class="edge">
<title>cfg_clk__p_cfg_reg&#45;&gt;sys_clk__p_mode_sync</title>
<path fill="none" stroke="#16a34a" d="M76.62,-31C83.17,-26.29 90.46,-22.05 98,-19.5 121.12,-11.67 147.59,-12.43 171.02,-16.17"/>
<polygon fill="#16a34a" stroke="#16a34a" points="170.3,-19.59 180.76,-17.94 171.55,-12.71 170.3,-19.59"/>
<text xml:space="preserve" text-anchor="middle" x="135.12" y="-32.5" font-family="Helvetica,sans-Serif" font-size="10.00" fill="#16a34a">mode_sel_r</text>
<text xml:space="preserve" text-anchor="middle" x="135.12" y="-21.25" font-family="Helvetica,sans-Serif" font-size="10.00" fill="#16a34a">(synchronized)</text>
</g>
<!-- sys_clk__p_duty_capture -->
<g id="node3" class="node">
<title>sys_clk__p_duty_capture</title>
<polygon fill="white" stroke="black" points="280.5,-106 190.25,-106 190.25,-70 280.5,-70 280.5,-106"/>
<text xml:space="preserve" text-anchor="middle" x="235.38" y="-83.55" font-family="Helvetica,sans-Serif" font-size="11.00">p_duty_capture</text>
</g>
</g>
</svg>
