<?xml version="1.0" encoding="UTF-8" standalone="no"?>
<!DOCTYPE svg PUBLIC "-//W3C//DTD SVG 1.1//EN"
 "http://www.w3.org/Graphics/SVG/1.1/DTD/svg11.dtd">
<!-- Generated by graphviz version 13.1.2 (20250808.2320)
 -->
<!-- Title: pwm_controller Pages: 1 -->
<svg width="443pt" height="152pt"
 viewBox="0.00 0.00 443.00 152.00" xmlns="http://www.w3.org/2000/svg" xmlns:xlink="http://www.w3.org/1999/xlink">
<g id="graph0" class="graph" transform="scale(1 1) rotate(0) translate(4 147.61)">
<title>pwm_controller</title>
<polygon fill="white" stroke="none" points="-4,4 -4,-147.61 439.25,-147.61 439.25,4 -4,4"/>
<!-- __start -->
<g id="node1" class="node">
<title>__start</title>
<ellipse fill="black" stroke="black" cx="7.2" cy="-31.36" rx="7.2" ry="7.2"/>
</g>
<!-- IDLE -->
<g id="node2" class="node">
<title>IDLE</title>
<ellipse fill="lightblue" stroke="black" cx="98.46" cy="-31.36" rx="26.31" ry="26.31"/>
<text xml:space="preserve" text-anchor="middle" x="98.46" y="-26.33" font-family="Helvetica,sans-Serif" font-size="12.00">IDLE</text>
</g>
<!-- __start&#45;&gt;IDLE -->
<g id="edge1" class="edge">
<title>__start&#45;&gt;IDLE</title>
<path fill="none" stroke="black" d="M14.62,-31.36C24.33,-31.36 43.46,-31.36 60.89,-31.36"/>
<polygon fill="black" stroke="black" points="60.47,-34.86 70.47,-31.36 60.47,-27.86 60.47,-34.86"/>
<text xml:space="preserve" text-anchor="middle" x="43.27" y="-33.11" font-family="Helvetica,sans-Serif" font-size="10.00">reset</text>
</g>
<!-- COUNTING -->
<g id="node3" class="node">
<title>COUNTING</title>
<ellipse fill="lightyellow" stroke="black" cx="220.53" cy="-94.36" rx="49.26" ry="49.26"/>
<text xml:space="preserve" text-anchor="middle" x="220.53" y="-89.33" font-family="Helvetica,sans-Serif" font-size="12.00">COUNTING</text>
</g>
<!-- IDLE&#45;&gt;COUNTING -->
<g id="edge2" class="edge">
<title>IDLE&#45;&gt;COUNTING</title>
<path fill="none" stroke="black" d="M122.33,-43.36C134.83,-49.92 150.88,-58.34 166.31,-66.44"/>
<polygon fill="black" stroke="black" points="164.51,-69.44 174.99,-70.99 167.76,-63.24 164.51,-69.44"/>
<text xml:space="preserve" text-anchor="middle" x="148.02" y="-60.84" font-family="Helvetica,sans-Serif" font-size="10.00">en</text>
</g>
<!-- DONE -->
<g id="node4" class="node">
<title>DONE</title>
<ellipse fill="lightgreen" stroke="black" cx="403.89" cy="-31.36" rx="31.36" ry="31.36"/>
<text xml:space="preserve" text-anchor="middle" x="403.89" y="-26.33" font-family="Helvetica,sans-Serif" font-size="12.00">DONE</text>
</g>
<!-- COUNTING&#45;&gt;DONE -->
<g id="edge3" class="edge">
<title>COUNTING&#45;&gt;DONE</title>
<path fill="none" stroke="black" d="M267.29,-78.46C296.84,-68.2 334.91,-54.97 363.18,-45.15"/>
<polygon fill="black" stroke="black" points="364.15,-48.52 372.45,-41.93 361.86,-41.91 364.15,-48.52"/>
<text xml:space="preserve" text-anchor="middle" x="321.16" y="-72.1" font-family="Helvetica,sans-Serif" font-size="10.00">count == 8&#39;hFF</text>
</g>
<!-- DONE&#45;&gt;IDLE -->
<g id="edge4" class="edge">
<title>DONE&#45;&gt;IDLE</title>
<path fill="none" stroke="black" d="M372.15,-29.15C327.78,-26.28 243.21,-21.98 171.27,-25.11 159.86,-25.6 147.45,-26.54 136.21,-27.54"/>
<polygon fill="black" stroke="black" points="136.15,-24.03 126.52,-28.45 136.81,-31 136.15,-24.03"/>
<text xml:space="preserve" text-anchor="middle" x="220.53" y="-26.86" font-family="Helvetica,sans-Serif" font-size="10.00">always</text>
</g>
</g>
</svg>
