<?xml version="1.0" encoding="UTF-8" standalone="no"?>
<!DOCTYPE svg PUBLIC "-//W3C//DTD SVG 1.1//EN"
 "http://www.w3.org/Graphics/SVG/1.1/DTD/svg11.dtd">
<!-- Generated by graphviz version 13.1.2 (20250808.2320)
 -->
<!-- Title: traffic_light_reset Pages: 1 -->
<svg width="252pt" height="98pt"
 viewBox="0.00 0.00 252.00 98.00" xmlns="http://www.w3.org/2000/svg" xmlns:xlink="http://www.w3.org/1999/xlink">
<g id="graph0" class="graph" transform="scale(1 1) rotate(0) translate(4 94)">
<title>traffic_light_reset</title>
<polygon fill="white" stroke="none" points="-4,4 -4,-94 247.75,-94 247.75,4 -4,4"/>
<g id="clust1" class="cluster">
<title>cluster_rst</title>
<polygon fill="#fce7f3" stroke="#9d174d" points="8,-8 8,-82 97,-82 97,-8 8,-8"/>
<text xml:space="preserve" text-anchor="middle" x="52.5" y="-65.65" font-family="Helvetica Bold" font-size="13.00">rst (sync)</text>
</g>
<g id="clust2" class="cluster">
<title>cluster_por_n</title>
<polygon fill="#fed7aa" stroke="#c2410c" points="138.75,-8 138.75,-82 243.25,-82 243.25,-8 138.75,-8"/>
<text xml:space="preserve" text-anchor="middle" x="191" y="-65.65" font-family="Helvetica Bold" font-size="13.00">por_n (async)</text>
</g>
<!-- rst__p_state_reg -->
<g id="node1" class="node">
<title>rst__p_state_reg</title>
<polygon fill="white" stroke="black" points="89,-52 16,-52 16,-16 89,-16 89,-52"/>
<text xml:space="preserve" text-anchor="middle" x="52.5" y="-35.55" font-family="Helvetica,sans-Serif" font-size="11.00">p_state_reg</text>
<text xml:space="preserve" text-anchor="middle" x="52.5" y="-23.55" font-family="Helvetica,sans-Serif" font-size="11.00">(clk)</text>
</g>
<!-- por_n__p_watchdog -->
<g id="node2" class="node">
<title>por_n__p_watchdog</title>
<polygon fill="white" stroke="black" points="227.75,-52 153.25,-52 153.25,-16 227.75,-16 227.75,-52"/>
<text xml:space="preserve" text-anchor="middle" x="190.5" y="-35.55" font-family="Helvetica,sans-Serif" font-size="11.00">p_watchdog</text>
<text xml:space="preserve" text-anchor="middle" x="190.5" y="-23.55" font-family="Helvetica,sans-Serif" font-size="11.00">(clk)</text>
</g>
<!-- rst__p_state_reg&#45;&gt;por_n__p_watchdog -->
<g id="edge1" class="edge">
<title>rst__p_state_reg&#45;&gt;por_n__p_watchdog</title>
<path fill="none" stroke="#dc2626" stroke-dasharray="5,2" d="M97,-34C106.68,-34 117.12,-34 127.38,-34"/>
<polygon fill="#dc2626" stroke="#dc2626" points="127.24,-37.5 137.24,-34 127.24,-30.5 127.24,-37.5"/>
<text xml:space="preserve" text-anchor="middle" x="117.88" y="-35.75" font-family="Helvetica,sans-Serif" font-size="10.00" fill="#dc2626">state</text>
</g>
</g>
</svg>
