<svg xmlns="http://www.w3.org/2000/svg" xmlns:xlink="http://www.w3.org/1999/xlink" xmlns:s="https://github.com/nturley/netlistsvg" width="1943" height="824">
  <style>svg {
    stroke:#000;
    fill:none;
  }
  text {
    fill:#000;
    stroke:none;
    font-size:10px;
    font-weight: bold;
    font-family: "Courier New", monospace;
  }
  .nodelabel {
    text-anchor: middle;
  }
  .inputPortLabel {
    text-anchor: end;
  }
  .splitjoinBody {
    fill:#000;
  }</style>
  <g s:type="add" transform="translate(341,223)" s:width="25" s:height="25" id="cell_$add$src/pwm_controller.sv:60$3">
    <s:alias val="$add"/>
    <circle r="12.5" cx="12.5" cy="12.5" class="cell_$add$src/pwm_controller.sv:60$3"/>
    <line x1="7.5" x2="17.5" y1="12.5" y2="12.5" class="cell_$add$src/pwm_controller.sv:60$3"/>
    <line x1="12.5" x2="12.5" y1="7.5" y2="17.5" class="cell_$add$src/pwm_controller.sv:60$3"/>
    <g s:x="3" s:y="5" s:pid="A"/>
    <g s:x="3" s:y="20" s:pid="B"/>
    <g s:x="25" s:y="12.5" s:pid="Y"/>
  </g>
  <g s:type="generic" transform="translate(562,230)" s:width="30" s:height="40" id="cell_$auto$ff.cc:266:slice$47">
    <text x="15" y="-4" class="nodelabel cell_$auto$ff.cc:266:slice$47" s:attribute="ref">$sdff</text>
    <rect width="30" height="60" s:generic="body" class="cell_$auto$ff.cc:266:slice$47"/>
    <g transform="translate(0,10)" s:x="0" s:y="10" s:pid="in0" id="port_$auto$ff.cc:266:slice$47~CLK">
      <text x="-3" y="-4" class="inputPortLabel cell_$auto$ff.cc:266:slice$47">CLK</text>
    </g>
    <g transform="translate(0,30)" s:x="0" s:y="10" s:pid="in0" id="port_$auto$ff.cc:266:slice$47~D">
      <text x="-3" y="-4" class="inputPortLabel cell_$auto$ff.cc:266:slice$47">D</text>
    </g>
    <g transform="translate(0,50)" s:x="0" s:y="10" s:pid="in0" id="port_$auto$ff.cc:266:slice$47~SRST">
      <text x="-3" y="-4" class="inputPortLabel cell_$auto$ff.cc:266:slice$47">SRST</text>
    </g>
    <g transform="translate(30,10)" s:x="30" s:y="10" s:pid="out0" id="port_$auto$ff.cc:266:slice$47~Q">
      <text x="5" y="-4" style="fill:#000; stroke:none" class="cell_$auto$ff.cc:266:slice$47">Q</text>
    </g>
  </g>
  <g s:type="generic" transform="translate(1566,682)" s:width="30" s:height="40" id="cell_$auto$ff.cc:266:slice$52">
    <text x="15" y="-4" class="nodelabel cell_$auto$ff.cc:266:slice$52" s:attribute="ref">$sdffe</text>
    <rect width="30" height="80" s:generic="body" class="cell_$auto$ff.cc:266:slice$52"/>
    <g transform="translate(0,10)" s:x="0" s:y="10" s:pid="in0" id="port_$auto$ff.cc:266:slice$52~CLK">
      <text x="-3" y="-4" class="inputPortLabel cell_$auto$ff.cc:266:slice$52">CLK</text>
    </g>
    <g transform="translate(0,30)" s:x="0" s:y="10" s:pid="in0" id="port_$auto$ff.cc:266:slice$52~D">
      <text x="-3" y="-4" class="inputPortLabel cell_$auto$ff.cc:266:slice$52">D</text>
    </g>
    <g transform="translate(0,50)" s:x="0" s:y="10" s:pid="in0" id="port_$auto$ff.cc:266:slice$52~EN">
      <text x="-3" y="-4" class="inputPortLabel cell_$auto$ff.cc:266:slice$52">EN</text>
    </g>
    <g transform="translate(0,70)" s:x="0" s:y="10" s:pid="in0" id="port_$auto$ff.cc:266:slice$52~SRST">
      <text x="-3" y="-4" class="inputPortLabel cell_$auto$ff.cc:266:slice$52">SRST</text>
    </g>
    <g transform="translate(30,10)" s:x="30" s:y="10" s:pid="out0" id="port_$auto$ff.cc:266:slice$52~Q">
      <text x="5" y="-4" style="fill:#000; stroke:none" class="cell_$auto$ff.cc:266:slice$52">Q</text>
    </g>
  </g>
  <g s:type="generic" transform="translate(883,732)" s:width="30" s:height="40" id="cell_$auto$opt_dff.cc:248:make_patterns_logic$54">
    <text x="15" y="-4" class="nodelabel cell_$auto$opt_dff.cc:248:make_patterns_logic$54" s:attribute="ref">$ne</text>
    <rect width="30" height="40" s:generic="body" class="cell_$auto$opt_dff.cc:248:make_patterns_logic$54"/>
    <g transform="translate(0,10)" s:x="0" s:y="10" s:pid="in0" id="port_$auto$opt_dff.cc:248:make_patterns_logic$54~A">
      <text x="-3" y="-4" class="inputPortLabel cell_$auto$opt_dff.cc:248:make_patterns_logic$54">A</text>
    </g>
    <g transform="translate(0,30)" s:x="0" s:y="10" s:pid="in0" id="port_$auto$opt_dff.cc:248:make_patterns_logic$54~B">
      <text x="-3" y="-4" class="inputPortLabel cell_$auto$opt_dff.cc:248:make_patterns_logic$54">B</text>
    </g>
    <g transform="translate(30,10)" s:x="30" s:y="10" s:pid="out0" id="port_$auto$opt_dff.cc:248:make_patterns_logic$54~Y">
      <text x="5" y="-4" style="fill:#000; stroke:none" class="cell_$auto$opt_dff.cc:248:make_patterns_logic$54">Y</text>
    </g>
  </g>
  <g s:type="generic" transform="translate(883,624)" s:width="30" s:height="40" id="cell_$auto$opt_dff.cc:248:make_patterns_logic$56">
    <text x="15" y="-4" class="nodelabel cell_$auto$opt_dff.cc:248:make_patterns_logic$56" s:attribute="ref">$ne</text>
    <rect width="30" height="40" s:generic="body" class="cell_$auto$opt_dff.cc:248:make_patterns_logic$56"/>
    <g transform="translate(0,10)" s:x="0" s:y="10" s:pid="in0" id="port_$auto$opt_dff.cc:248:make_patterns_logic$56~A">
      <text x="-3" y="-4" class="inputPortLabel cell_$auto$opt_dff.cc:248:make_patterns_logic$56">A</text>
    </g>
    <g transform="translate(0,30)" s:x="0" s:y="10" s:pid="in0" id="port_$auto$opt_dff.cc:248:make_patterns_logic$56~B">
      <text x="-3" y="-4" class="inputPortLabel cell_$auto$opt_dff.cc:248:make_patterns_logic$56">B</text>
    </g>
    <g transform="translate(30,10)" s:x="30" s:y="10" s:pid="out0" id="port_$auto$opt_dff.cc:248:make_patterns_logic$56~Y">
      <text x="5" y="-4" style="fill:#000; stroke:none" class="cell_$auto$opt_dff.cc:248:make_patterns_logic$56">Y</text>
    </g>
  </g>
  <g s:type="generic" transform="translate(1248,722)" s:width="30" s:height="40" id="cell_$auto$opt_dff.cc:273:make_patterns_logic$58">
    <text x="15" y="-4" class="nodelabel cell_$auto$opt_dff.cc:273:make_patterns_logic$58" s:attribute="ref">$reduce_and</text>
    <rect width="30" height="20" s:generic="body" class="cell_$auto$opt_dff.cc:273:make_patterns_logic$58"/>
    <g transform="translate(0,10)" s:x="0" s:y="10" s:pid="in0" id="port_$auto$opt_dff.cc:273:make_patterns_logic$58~A">
      <text x="-3" y="-4" class="inputPortLabel cell_$auto$opt_dff.cc:273:make_patterns_logic$58">A</text>
    </g>
    <g transform="translate(30,10)" s:x="30" s:y="10" s:pid="out0" id="port_$auto$opt_dff.cc:273:make_patterns_logic$58~Y">
      <text x="5" y="-4" style="fill:#000; stroke:none" class="cell_$auto$opt_dff.cc:273:make_patterns_logic$58">Y</text>
    </g>
  </g>
  <g s:type="not" transform="translate(137,391.5)" s:width="30" s:height="20" id="cell_$auto$opt_dff.cc:303:combine_resets$48">
    <s:alias val="$_NOT_"/>
    <s:alias val="$not"/>
    <s:alias val="$logic_not"/>
    <path d="M0,0 L0,20 L20,10 Z" class="cell_$auto$opt_dff.cc:303:combine_resets$48"/>
    <circle cx="23" cy="10" r="3" class="cell_$auto$opt_dff.cc:303:combine_resets$48"/>
    <g s:x="0" s:y="10" s:pid="A"/>
    <g s:x="25" s:y="10" s:pid="Y"/>
  </g>
  <g s:type="generic" transform="translate(274,381)" s:width="30" s:height="40" id="cell_$auto$opt_dff.cc:307:combine_resets$51">
    <text x="15" y="-4" class="nodelabel cell_$auto$opt_dff.cc:307:combine_resets$51" s:attribute="ref">$reduce_or</text>
    <rect width="30" height="20" s:generic="body" class="cell_$auto$opt_dff.cc:307:combine_resets$51"/>
    <g transform="translate(0,10)" s:x="0" s:y="10" s:pid="in0" id="port_$auto$opt_dff.cc:307:combine_resets$51~A">
      <text x="-3" y="-4" class="inputPortLabel cell_$auto$opt_dff.cc:307:combine_resets$51">A</text>
    </g>
    <g transform="translate(30,10)" s:x="30" s:y="10" s:pid="out0" id="port_$auto$opt_dff.cc:307:combine_resets$51~Y">
      <text x="5" y="-4" style="fill:#000; stroke:none" class="cell_$auto$opt_dff.cc:307:combine_resets$51">Y</text>
    </g>
  </g>
  <g s:type="eq" transform="translate(742.6666666666666,463.5)" s:width="25" s:height="25" id="cell_$eq$src/pwm_controller.sv:89$5">
    <s:alias val="$eq"/>
    <circle r="12.5" cx="12.5" cy="12.5" class="cell_$eq$src/pwm_controller.sv:89$5"/>
    <line x1="7.5" x2="17.5" y1="10" y2="10" class="cell_$eq$src/pwm_controller.sv:89$5"/>
    <line x1="7.5" x2="17.5" y1="15" y2="15" class="cell_$eq$src/pwm_controller.sv:89$5"/>
    <g s:x="3" s:y="5" s:pid="A"/>
    <g s:x="3" s:y="20" s:pid="B"/>
    <g s:x="25" s:y="12.5" s:pid="Y"/>
  </g>
  <g s:type="lt" transform="translate(1746.6666666666667,23)" s:width="25" s:height="25" id="cell_$lt$src/pwm_controller.sv:119$7">
    <s:alias val="$lt"/>
    <circle r="12.5" cx="12.5" cy="12.5" class="cell_$lt$src/pwm_controller.sv:119$7"/>
    <line x1="7.5" x2="17.5" y1="12.5" y2="7.5" class="cell_$lt$src/pwm_controller.sv:119$7"/>
    <line x1="7.5" x2="17.5" y1="12.5" y2="17.5" class="cell_$lt$src/pwm_controller.sv:119$7"/>
    <g s:x="3" s:y="5" s:pid="A"/>
    <g s:x="3" s:y="20" s:pid="B"/>
    <g s:x="25" s:y="12.5" s:pid="Y"/>
  </g>
  <g s:type="eq" transform="translate(1746.6666666666667,787)" s:width="25" s:height="25" id="cell_$procmux$10_CMP0">
    <s:alias val="$eq"/>
    <circle r="12.5" cx="12.5" cy="12.5" class="cell_$procmux$10_CMP0"/>
    <line x1="7.5" x2="17.5" y1="10" y2="10" class="cell_$procmux$10_CMP0"/>
    <line x1="7.5" x2="17.5" y1="15" y2="15" class="cell_$procmux$10_CMP0"/>
    <g s:x="3" s:y="5" s:pid="A"/>
    <g s:x="3" s:y="20" s:pid="B"/>
    <g s:x="25" s:y="12.5" s:pid="Y"/>
  </g>
  <g s:type="mux" transform="translate(1810,93)" s:width="20" s:height="40" id="cell_$procmux$13">
    <s:alias val="$pmux"/>
    <s:alias val="$mux"/>
    <s:alias val="$_MUX_"/>
    <path d="M0,0 L20,10 L20,30 L0,40 Z" class="cell_$procmux$13"/>
    <g s:x="0" s:y="10" s:pid="A"/>
    <g s:x="0" s:y="30" s:pid="B"/>
    <g s:x="10" s:y="35" s:pid="S"/>
    <g s:x="20" s:y="20" s:pid="Y"/>
  </g>
  <g s:type="mux" transform="translate(960,331.5)" s:width="20" s:height="40" id="cell_$procmux$18">
    <s:alias val="$pmux"/>
    <s:alias val="$mux"/>
    <s:alias val="$_MUX_"/>
    <path d="M0,0 L20,10 L20,30 L0,40 Z" class="cell_$procmux$18"/>
    <g s:x="0" s:y="10" s:pid="A"/>
    <g s:x="0" s:y="30" s:pid="B"/>
    <g s:x="10" s:y="35" s:pid="S"/>
    <g s:x="20" s:y="20" s:pid="Y"/>
  </g>
  <g s:type="mux" transform="translate(960,391.5)" s:width="20" s:height="40" id="cell_$procmux$26">
    <s:alias val="$pmux"/>
    <s:alias val="$mux"/>
    <s:alias val="$_MUX_"/>
    <path d="M0,0 L20,10 L20,30 L0,40 Z" class="cell_$procmux$26"/>
    <g s:x="0" s:y="10" s:pid="A"/>
    <g s:x="0" s:y="30" s:pid="B"/>
    <g s:x="10" s:y="35" s:pid="S"/>
    <g s:x="20" s:y="20" s:pid="Y"/>
  </g>
  <g s:type="mux" transform="translate(1325,371.5)" s:width="20" s:height="40" id="cell_$procmux$32">
    <s:alias val="$pmux"/>
    <s:alias val="$mux"/>
    <s:alias val="$_MUX_"/>
    <path d="M0,0 L20,10 L20,30 L0,40 Z" class="cell_$procmux$32"/>
    <g s:x="0" s:y="10" s:pid="A"/>
    <g s:x="0" s:y="30" s:pid="B"/>
    <g s:x="10" s:y="35" s:pid="S"/>
    <g s:x="20" s:y="20" s:pid="Y"/>
  </g>
  <g s:type="eq" transform="translate(77,389)" s:width="25" s:height="25" id="cell_$procmux$33_CMP0">
    <s:alias val="$eq"/>
    <circle r="12.5" cx="12.5" cy="12.5" class="cell_$procmux$33_CMP0"/>
    <line x1="7.5" x2="17.5" y1="10" y2="10" class="cell_$procmux$33_CMP0"/>
    <line x1="7.5" x2="17.5" y1="15" y2="15" class="cell_$procmux$33_CMP0"/>
    <g s:x="3" s:y="5" s:pid="A"/>
    <g s:x="3" s:y="20" s:pid="B"/>
    <g s:x="25" s:y="12.5" s:pid="Y"/>
  </g>
  <g s:type="not" transform="translate(741,688)" s:width="30" s:height="20" id="cell_$procmux$34_CMP0">
    <s:alias val="$_NOT_"/>
    <s:alias val="$not"/>
    <s:alias val="$logic_not"/>
    <path d="M0,0 L0,20 L20,10 Z" class="cell_$procmux$34_CMP0"/>
    <circle cx="23" cy="10" r="3" class="cell_$procmux$34_CMP0"/>
    <g s:x="0" s:y="10" s:pid="A"/>
    <g s:x="25" s:y="10" s:pid="Y"/>
  </g>
  <g s:type="mux" transform="translate(1810,158)" s:width="20" s:height="40" id="cell_$procmux$9">
    <s:alias val="$pmux"/>
    <s:alias val="$mux"/>
    <s:alias val="$_MUX_"/>
    <path d="M0,0 L20,10 L20,30 L0,40 Z" class="cell_$procmux$9"/>
    <g s:x="0" s:y="10" s:pid="A"/>
    <g s:x="0" s:y="30" s:pid="B"/>
    <g s:x="10" s:y="35" s:pid="S"/>
    <g s:x="20" s:y="20" s:pid="Y"/>
  </g>
  <g s:type="inputExt" transform="translate(274,293)" s:width="30" s:height="20" id="cell_clk">
    <text x="15" y="-4" class="nodelabel cell_clk" s:attribute="ref">clk</text>
    <s:alias val="$_inputExt_"/>
    <path d="M0,0 L0,20 L15,20 L30,10 L15,0 Z" class="cell_clk"/>
    <g s:x="28" s:y="10" s:pid="Y"/>
  </g>
  <g s:type="inputExt" transform="translate(137,533.5)" s:width="30" s:height="20" id="cell_rst">
    <text x="15" y="-4" class="nodelabel cell_rst" s:attribute="ref">rst</text>
    <s:alias val="$_inputExt_"/>
    <path d="M0,0 L0,20 L15,20 L30,10 L15,0 Z" class="cell_rst"/>
    <g s:x="28" s:y="10" s:pid="Y"/>
  </g>
  <g s:type="inputExt" transform="translate(741,533.5)" s:width="30" s:height="20" id="cell_en">
    <text x="15" y="-4" class="nodelabel cell_en" s:attribute="ref">en</text>
    <s:alias val="$_inputExt_"/>
    <path d="M0,0 L0,20 L15,20 L30,10 L15,0 Z" class="cell_en"/>
    <g s:x="28" s:y="10" s:pid="Y"/>
  </g>
  <g s:type="inputExt" transform="translate(1566,33)" s:width="30" s:height="20" id="cell_duty_i">
    <text x="15" y="-4" class="nodelabel cell_duty_i" s:attribute="ref">duty_i</text>
    <s:alias val="$_inputExt_"/>
    <path d="M0,0 L0,20 L15,20 L30,10 L15,0 Z" class="cell_duty_i"/>
    <g s:x="28" s:y="10" s:pid="Y"/>
  </g>
  <g s:type="outputExt" transform="translate(1865,103)" s:width="30" s:height="20" id="cell_pwm_o">
    <text x="15" y="-4" class="nodelabel cell_pwm_o" s:attribute="ref">pwm_o</text>
    <s:alias val="$_outputExt_"/>
    <path d="M30,0 L30,20 L15,20 L0,10 L15,0 Z" class="cell_pwm_o"/>
    <g s:x="0" s:y="10" s:pid="A"/>
  </g>
  <g s:type="outputExt" transform="translate(1865,168)" s:width="30" s:height="20" id="cell_period_done">
    <text x="15" y="-4" class="nodelabel cell_period_done" s:attribute="ref">period_done</text>
    <s:alias val="$_outputExt_"/>
    <path d="M30,0 L30,20 L15,20 L0,10 L15,0 Z" class="cell_period_done"/>
    <g s:x="0" s:y="10" s:pid="A"/>
  </g>
  <g s:type="constant" transform="translate(202,233)" s:width="30" s:height="20" id="cell_1">
    <text x="15" y="-4" class="nodelabel cell_1" s:attribute="ref">1</text>
    <s:alias val="$_constant_"/>
    <rect width="30" height="20" class="cell_1"/>
    <g s:x="30" s:y="10" s:pid="Y"/>
  </g>
  <g s:type="constant" transform="translate(811,752.5)" s:width="30" s:height="20" id="cell_10">
    <text x="15" y="-4" class="nodelabel cell_10" s:attribute="ref">10</text>
    <s:alias val="$_constant_"/>
    <rect width="30" height="20" class="cell_10"/>
    <g s:x="30" s:y="10" s:pid="Y"/>
  </g>
  <g s:type="constant" transform="translate(12,644.5)" s:width="30" s:height="20" id="cell_01">
    <text x="15" y="-4" class="nodelabel cell_01" s:attribute="ref">01</text>
    <s:alias val="$_constant_"/>
    <rect width="30" height="20" class="cell_01"/>
    <g s:x="30" s:y="10" s:pid="Y"/>
  </g>
  <g s:type="constant" transform="translate(562,473.5)" s:width="30" s:height="20" id="cell_11111111">
    <text x="15" y="-4" class="nodelabel cell_11111111" s:attribute="ref">0xff</text>
    <s:alias val="$_constant_"/>
    <rect width="30" height="20" class="cell_11111111"/>
    <g s:x="30" s:y="10" s:pid="Y"/>
  </g>
  <g s:type="constant" transform="translate(1745,93)" s:width="30" s:height="20" id="cell_0">
    <text x="15" y="-4" class="nodelabel cell_0" s:attribute="ref">0</text>
    <s:alias val="$_constant_"/>
    <rect width="30" height="20" class="cell_0"/>
    <g s:x="30" s:y="10" s:pid="Y"/>
  </g>
  <g s:type="constant" transform="translate(1176,324)" s:width="30" s:height="20" id="cell_00">
    <text x="15" y="-4" class="nodelabel cell_00" s:attribute="ref">00</text>
    <s:alias val="$_constant_"/>
    <rect width="30" height="20" class="cell_00"/>
    <g s:x="30" s:y="10" s:pid="Y"/>
  </g>
  <g s:type="join" transform="translate(822,667.5)" s:width="4" s:height="40" id="cell_$join$,4,37,">
    <rect width="5" height="40" class="splitjoinBody" s:generic="body"/>
    <s:alias val="$_join_"/>
    <g s:x="5" s:y="20" s:pid="out"/>
    <g transform="translate(0,10)" s:x="0" s:y="10" s:pid="in0">
      <text x="-3" y="-4" class="inputPortLabel">0</text>
    </g>
    <g transform="translate(0,30)" s:x="0" s:y="10" s:pid="in0">
      <text x="-3" y="-4" class="inputPortLabel">1</text>
    </g>
  </g>
  <g s:type="join" transform="translate(822,553)" s:width="4" s:height="40" id="cell_$join$,39,40,">
    <rect width="5" height="40" class="splitjoinBody" s:generic="body"/>
    <s:alias val="$_join_"/>
    <g s:x="5" s:y="20" s:pid="out"/>
    <g transform="translate(0,10)" s:x="0" s:y="10" s:pid="in0">
      <text x="-3" y="-4" class="inputPortLabel">0</text>
    </g>
    <g transform="translate(0,30)" s:x="0" s:y="10" s:pid="in0">
      <text x="-3" y="-4" class="inputPortLabel">1</text>
    </g>
  </g>
  <g s:type="join" transform="translate(1191,712)" s:width="4" s:height="40" id="cell_$join$,41,38,">
    <rect width="5" height="40" class="splitjoinBody" s:generic="body"/>
    <s:alias val="$_join_"/>
    <g s:x="5" s:y="20" s:pid="out"/>
    <g transform="translate(0,10)" s:x="0" s:y="10" s:pid="in0">
      <text x="-3" y="-4" class="inputPortLabel">0</text>
    </g>
    <g transform="translate(0,30)" s:x="0" s:y="10" s:pid="in0">
      <text x="-3" y="-4" class="inputPortLabel">1</text>
    </g>
  </g>
  <g s:type="join" transform="translate(213,371)" s:width="4" s:height="40" id="cell_$join$,3,42,">
    <rect width="5" height="40" class="splitjoinBody" s:generic="body"/>
    <s:alias val="$_join_"/>
    <g s:x="5" s:y="20" s:pid="out"/>
    <g transform="translate(0,10)" s:x="0" s:y="10" s:pid="in0">
      <text x="-3" y="-4" class="inputPortLabel">0</text>
    </g>
    <g transform="translate(0,30)" s:x="0" s:y="10" s:pid="in0">
      <text x="-3" y="-4" class="inputPortLabel">1</text>
    </g>
  </g>
  <g s:type="join" transform="translate(1195,381)" s:width="4" s:height="40" id="cell_$join$,45,46,47,48,">
    <rect width="5" height="40" class="splitjoinBody" s:generic="body"/>
    <s:alias val="$_join_"/>
    <g s:x="5" s:y="20" s:pid="out"/>
    <g transform="translate(0,10)" s:x="0" s:y="10" s:pid="in0">
      <text x="-3" y="-4" class="inputPortLabel">0:1</text>
    </g>
    <g transform="translate(0,30)" s:x="0" s:y="10" s:pid="in0">
      <text x="-3" y="-4" class="inputPortLabel">2:3</text>
    </g>
  </g>
  <g s:type="join" transform="translate(1191,572.5)" s:width="4" s:height="40" id="cell_$join$,39,37,">
    <rect width="5" height="40" class="splitjoinBody" s:generic="body"/>
    <s:alias val="$_join_"/>
    <g s:x="5" s:y="20" s:pid="out"/>
    <g transform="translate(0,10)" s:x="0" s:y="10" s:pid="in0">
      <text x="-3" y="-4" class="inputPortLabel">0</text>
    </g>
    <g transform="translate(0,30)" s:x="0" s:y="10" s:pid="in0">
      <text x="-3" y="-4" class="inputPortLabel">1</text>
    </g>
  </g>
  <line x1="593" x2="716" y1="240.5" y2="240.5" class="net_15,16,17,18,19,20,21,22"/>
  <line x1="716" x2="716" y1="240.5" y2="210" class="net_15,16,17,18,19,20,21,22"/>
  <line x1="716" x2="252" y1="210" y2="210" class="net_15,16,17,18,19,20,21,22"/>
  <line x1="252" x2="252" y1="210" y2="228" class="net_15,16,17,18,19,20,21,22"/>
  <circle cx="716" cy="210" r="2" style="fill:#000" class="net_15,16,17,18,19,20,21,22"/>
  <circle cx="716" cy="240.5" r="2" style="fill:#000" class="net_15,16,17,18,19,20,21,22"/>
  <line x1="252" x2="344" y1="228" y2="228" class="net_15,16,17,18,19,20,21,22"/>
  <line x1="593" x2="716" y1="240.5" y2="240.5" class="net_15,16,17,18,19,20,21,22"/>
  <line x1="716" x2="716" y1="240.5" y2="468.5" class="net_15,16,17,18,19,20,21,22"/>
  <line x1="716" x2="745.6666666666666" y1="468.5" y2="468.5" class="net_15,16,17,18,19,20,21,22"/>
  <line x1="593" x2="716" y1="240.5" y2="240.5" class="net_15,16,17,18,19,20,21,22"/>
  <line x1="716" x2="716" y1="240.5" y2="12" class="net_15,16,17,18,19,20,21,22"/>
  <line x1="716" x2="1720" y1="12" y2="12" class="net_15,16,17,18,19,20,21,22"/>
  <line x1="1720" x2="1720" y1="12" y2="28" class="net_15,16,17,18,19,20,21,22"/>
  <line x1="1720" x2="1749.6666666666667" y1="28" y2="28" class="net_15,16,17,18,19,20,21,22"/>
  <line x1="232" x2="344" y1="243" y2="243" class="net_49"/>
  <line x1="232" x2="242" y1="243" y2="243" class="net_49"/>
  <line x1="242" x2="242" y1="243" y2="188" class="net_49"/>
  <circle cx="242" cy="243" r="2" style="fill:#000" class="net_49"/>
  <line x1="242" x2="1810" y1="188" y2="188" class="net_49"/>
  <line x1="302" x2="512" y1="303" y2="303" class="net_2"/>
  <line x1="512" x2="512" y1="303" y2="240.5" class="net_2"/>
  <circle cx="512" cy="303" r="2" style="fill:#000" class="net_2"/>
  <line x1="512" x2="562" y1="240.5" y2="240.5" class="net_2"/>
  <line x1="302" x2="1526" y1="303" y2="303" class="net_2"/>
  <line x1="1526" x2="1526" y1="303" y2="692.5" class="net_2"/>
  <line x1="1526" x2="1566" y1="692.5" y2="692.5" class="net_2"/>
  <line x1="366" x2="522" y1="235.5" y2="235.5" class="net_23,24,25,26,27,28,29,30"/>
  <line x1="522" x2="522" y1="235.5" y2="260.5" class="net_23,24,25,26,27,28,29,30"/>
  <line x1="522" x2="562" y1="260.5" y2="260.5" class="net_23,24,25,26,27,28,29,30"/>
  <line x1="305" x2="522" y1="391.5" y2="391.5" class="net_31"/>
  <line x1="522" x2="522" y1="391.5" y2="280.5" class="net_31"/>
  <line x1="522" x2="562" y1="280.5" y2="280.5" class="net_31"/>
  <line x1="1345" x2="1516" y1="391.5" y2="391.5" class="net_32,33"/>
  <line x1="1516" x2="1516" y1="391.5" y2="712.5" class="net_32,33"/>
  <line x1="1516" x2="1566" y1="712.5" y2="712.5" class="net_32,33"/>
  <line x1="1279" x2="1566" y1="732.5" y2="732.5" class="net_34"/>
  <line x1="165" x2="177" y1="543.5" y2="543.5" class="net_3"/>
  <line x1="177" x2="177" y1="543.5" y2="785" class="net_3"/>
  <line x1="177" x2="1516" y1="785" y2="785" class="net_3"/>
  <line x1="1516" x2="1516" y1="785" y2="752.5" class="net_3"/>
  <circle cx="177" cy="543.5" r="2" style="fill:#000" class="net_3"/>
  <line x1="1516" x2="1566" y1="752.5" y2="752.5" class="net_3"/>
  <line x1="165" x2="177" y1="543.5" y2="543.5" class="net_3"/>
  <line x1="177" x2="177" y1="543.5" y2="381.5" class="net_3"/>
  <line x1="177" x2="213" y1="381.5" y2="381.5" class="net_3"/>
  <line x1="828" x2="861" y1="688" y2="688" class="net_4,37"/>
  <line x1="861" x2="861" y1="688" y2="742.5" class="net_4,37"/>
  <line x1="861" x2="883" y1="742.5" y2="742.5" class="net_4,37"/>
  <line x1="841" x2="883" y1="762.5" y2="762.5" class="net_50,51"/>
  <line x1="841" x2="851" y1="762.5" y2="762.5" class="net_50,51"/>
  <line x1="851" x2="851" y1="762.5" y2="807" class="net_50,51"/>
  <circle cx="851" cy="762.5" r="2" style="fill:#000" class="net_50,51"/>
  <line x1="851" x2="1749.6666666666667" y1="807" y2="807" class="net_50,51"/>
  <line x1="841" x2="851" y1="762.5" y2="762.5" class="net_50,51"/>
  <line x1="851" x2="851" y1="762.5" y2="361.5" class="net_50,51"/>
  <line x1="851" x2="960" y1="361.5" y2="361.5" class="net_50,51"/>
  <line x1="828" x2="861" y1="573.5" y2="573.5" class="net_39,40"/>
  <line x1="861" x2="861" y1="573.5" y2="634.5" class="net_39,40"/>
  <line x1="861" x2="883" y1="634.5" y2="634.5" class="net_39,40"/>
  <line x1="42" x2="883" y1="654.5" y2="654.5" class="net_52,53"/>
  <line x1="42" x2="112" y1="654.5" y2="654.5" class="net_52,53"/>
  <line x1="112" x2="112" y1="654.5" y2="421.5" class="net_52,53"/>
  <circle cx="112" cy="654.5" r="2" style="fill:#000" class="net_52,53"/>
  <line x1="112" x2="960" y1="421.5" y2="421.5" class="net_52,53"/>
  <line x1="42" x2="52" y1="654.5" y2="654.5" class="net_52,53"/>
  <line x1="52" x2="52" y1="654.5" y2="409" class="net_52,53"/>
  <circle cx="52" cy="654.5" r="2" style="fill:#000" class="net_52,53"/>
  <line x1="52" x2="80" y1="409" y2="409" class="net_52,53"/>
  <line x1="1197" x2="1248" y1="732.5" y2="732.5" class="net_41,38"/>
  <line x1="102" x2="137" y1="401.5" y2="401.5" class="net_39"/>
  <line x1="102" x2="122" y1="401.5" y2="401.5" class="net_39"/>
  <line x1="122" x2="122" y1="401.5" y2="148" class="net_39"/>
  <line x1="122" x2="1820" y1="148" y2="148" class="net_39"/>
  <circle cx="122" cy="401.5" r="2" style="fill:#000" class="net_39"/>
  <line x1="1820" x2="1820" y1="148" y2="128" class="net_39"/>
  <line x1="102" x2="122" y1="401.5" y2="401.5" class="net_39"/>
  <line x1="122" x2="122" y1="401.5" y2="563.5" class="net_39"/>
  <line x1="122" x2="822" y1="563.5" y2="563.5" class="net_39"/>
  <line x1="102" x2="122" y1="401.5" y2="401.5" class="net_39"/>
  <line x1="122" x2="122" y1="401.5" y2="563.5" class="net_39"/>
  <line x1="122" x2="512" y1="563.5" y2="563.5" class="net_39"/>
  <line x1="512" x2="512" y1="563.5" y2="452.5" class="net_39"/>
  <line x1="512" x2="1151" y1="452.5" y2="452.5" class="net_39"/>
  <line x1="1151" x2="1151" y1="452.5" y2="583" class="net_39"/>
  <circle cx="512" cy="563.5" r="2" style="fill:#000" class="net_39"/>
  <line x1="1151" x2="1191" y1="583" y2="583" class="net_39"/>
  <line x1="219" x2="274" y1="391.5" y2="391.5" class="net_3,42"/>
  <line x1="592" x2="745.6666666666666" y1="483.5" y2="483.5" class="net_54,55,56,57,58,59,60,61"/>
  <line x1="1594" x2="1749.6666666666667" y1="43" y2="43" class="net_5,6,7,8,9,10,11,12"/>
  <line x1="1597" x2="1720" y1="692.5" y2="692.5" class="net_35,36"/>
  <line x1="1720" x2="1720" y1="692.5" y2="792" class="net_35,36"/>
  <circle cx="1720" cy="792" r="2" style="fill:#000" class="net_35,36"/>
  <line x1="1720" x2="1749.6666666666667" y1="792" y2="792" class="net_35,36"/>
  <line x1="1597" x2="1720" y1="692.5" y2="692.5" class="net_35,36"/>
  <line x1="1720" x2="1720" y1="692.5" y2="199" class="net_35,36"/>
  <line x1="1720" x2="52" y1="199" y2="199" class="net_35,36"/>
  <line x1="52" x2="52" y1="199" y2="394" class="net_35,36"/>
  <circle cx="1720" cy="692.5" r="2" style="fill:#000" class="net_35,36"/>
  <line x1="52" x2="80" y1="394" y2="394" class="net_35,36"/>
  <line x1="1597" x2="1720" y1="692.5" y2="692.5" class="net_35,36"/>
  <line x1="1720" x2="1720" y1="692.5" y2="796" class="net_35,36"/>
  <line x1="1720" x2="716" y1="796" y2="796" class="net_35,36"/>
  <line x1="716" x2="716" y1="796" y2="698" class="net_35,36"/>
  <line x1="716" x2="741" y1="698" y2="698" class="net_35,36"/>
  <line x1="1775" x2="1810" y1="103" y2="103" class="net_64"/>
  <line x1="1775" x2="1785" y1="103" y2="103" class="net_64"/>
  <line x1="1785" x2="1785" y1="103" y2="168" class="net_64"/>
  <circle cx="1785" cy="103" r="2" style="fill:#000" class="net_64"/>
  <line x1="1785" x2="1810" y1="168" y2="168" class="net_64"/>
  <line x1="1771.6666666666667" x2="1795" y1="35.5" y2="35.5" class="net_43"/>
  <line x1="1795" x2="1795" y1="35.5" y2="123" class="net_43"/>
  <line x1="1795" x2="1810" y1="123" y2="123" class="net_43"/>
  <line x1="861" x2="960" y1="341.5" y2="341.5" class="net_x,x"/>
  <line x1="861" x2="861" y1="341.5" y2="401.5" class="net_x,x"/>
  <line x1="861" x2="960" y1="401.5" y2="401.5" class="net_x,x"/>
  <line x1="767.6666666666666" x2="801" y1="476" y2="476" class="net_40"/>
  <line x1="801" x2="801" y1="476" y2="381.5" class="net_40"/>
  <line x1="801" x2="970" y1="381.5" y2="381.5" class="net_40"/>
  <circle cx="801" cy="476" r="2" style="fill:#000" class="net_40"/>
  <line x1="970" x2="970" y1="381.5" y2="366.5" class="net_40"/>
  <line x1="767.6666666666666" x2="801" y1="476" y2="476" class="net_40"/>
  <line x1="801" x2="801" y1="476" y2="583.5" class="net_40"/>
  <line x1="801" x2="822" y1="583.5" y2="583.5" class="net_40"/>
  <line x1="769" x2="791" y1="543.5" y2="543.5" class="net_4"/>
  <line x1="791" x2="791" y1="543.5" y2="441.5" class="net_4"/>
  <line x1="791" x2="970" y1="441.5" y2="441.5" class="net_4"/>
  <circle cx="791" cy="543.5" r="2" style="fill:#000" class="net_4"/>
  <line x1="970" x2="970" y1="441.5" y2="426.5" class="net_4"/>
  <line x1="769" x2="791" y1="543.5" y2="543.5" class="net_4"/>
  <line x1="791" x2="791" y1="543.5" y2="678" class="net_4"/>
  <line x1="791" x2="822" y1="678" y2="678" class="net_4"/>
  <line x1="1206" x2="1216" y1="334" y2="334" class="net_69,70"/>
  <line x1="1216" x2="1216" y1="334" y2="381.5" class="net_69,70"/>
  <line x1="1216" x2="1325" y1="381.5" y2="381.5" class="net_69,70"/>
  <line x1="1201" x2="1325" y1="401.5" y2="401.5" class="net_45,46,47,48"/>
  <line x1="1197" x2="1335" y1="593" y2="593" class="net_39,37"/>
  <line x1="1335" x2="1335" y1="593" y2="406.5" class="net_39,37"/>
  <line x1="1771.6666666666667" x2="1820" y1="799.5" y2="799.5" class="net_44"/>
  <line x1="1820" x2="1820" y1="799.5" y2="193" class="net_44"/>
  <line x1="1830" x2="1865" y1="113" y2="113" class="net_13"/>
  <line x1="1830" x2="1865" y1="178" y2="178" class="net_14"/>
  <line x1="766" x2="822" y1="698" y2="698" class="net_37"/>
  <line x1="766" x2="781" y1="698" y2="698" class="net_37"/>
  <line x1="781" x2="781" y1="698" y2="603" class="net_37"/>
  <circle cx="781" cy="698" r="2" style="fill:#000" class="net_37"/>
  <line x1="781" x2="1191" y1="603" y2="603" class="net_37"/>
  <line x1="914" x2="1151" y1="634.5" y2="634.5" class="net_41"/>
  <line x1="1151" x2="1151" y1="634.5" y2="722.5" class="net_41"/>
  <line x1="1151" x2="1191" y1="722.5" y2="722.5" class="net_41"/>
  <line x1="914" x2="1191" y1="742.5" y2="742.5" class="net_38"/>
  <line x1="162" x2="213" y1="401.5" y2="401.5" class="net_42"/>
  <line x1="980" x2="1151" y1="351.5" y2="351.5" class="net_45,46"/>
  <line x1="1151" x2="1151" y1="351.5" y2="391.5" class="net_45,46"/>
  <line x1="1151" x2="1195" y1="391.5" y2="391.5" class="net_45,46"/>
  <line x1="980" x2="1195" y1="411.5" y2="411.5" class="net_47,48"/>
</svg>
