<svg xmlns="http://www.w3.org/2000/svg" xmlns:xlink="http://www.w3.org/1999/xlink" xmlns:s="https://github.com/nturley/netlistsvg" width="953" height="579">
  <style>svg {
    stroke:#000;
    fill:none;
  }
  text {
    fill:#000;
    stroke:none;
    font-size:10px;
    font-weight: bold;
    font-family: "Courier New", monospace;
  }
  .nodelabel {
    text-anchor: middle;
  }
  .inputPortLabel {
    text-anchor: end;
  }
  .splitjoinBody {
    fill:#000;
  }</style>
  <g s:type="generic" transform="translate(216,236)" s:width="30" s:height="40" id="cell_$auto$ff.cc:266:slice$22">
    <text x="15" y="-4" class="nodelabel cell_$auto$ff.cc:266:slice$22" s:attribute="ref">$sdffe</text>
    <rect width="30" height="80" s:generic="body" class="cell_$auto$ff.cc:266:slice$22"/>
    <g transform="translate(0,10)" s:x="0" s:y="10" s:pid="in0" id="port_$auto$ff.cc:266:slice$22~CLK">
      <text x="-3" y="-4" class="inputPortLabel cell_$auto$ff.cc:266:slice$22">CLK</text>
    </g>
    <g transform="translate(0,30)" s:x="0" s:y="10" s:pid="in0" id="port_$auto$ff.cc:266:slice$22~D">
      <text x="-3" y="-4" class="inputPortLabel cell_$auto$ff.cc:266:slice$22">D</text>
    </g>
    <g transform="translate(0,50)" s:x="0" s:y="10" s:pid="in0" id="port_$auto$ff.cc:266:slice$22~EN">
      <text x="-3" y="-4" class="inputPortLabel cell_$auto$ff.cc:266:slice$22">EN</text>
    </g>
    <g transform="translate(0,70)" s:x="0" s:y="10" s:pid="in0" id="port_$auto$ff.cc:266:slice$22~SRST">
      <text x="-3" y="-4" class="inputPortLabel cell_$auto$ff.cc:266:slice$22">SRST</text>
    </g>
    <g transform="translate(30,10)" s:x="30" s:y="10" s:pid="out0" id="port_$auto$ff.cc:266:slice$22~Q">
      <text x="5" y="-4" style="fill:#000; stroke:none" class="cell_$auto$ff.cc:266:slice$22">Q</text>
    </g>
  </g>
  <g s:type="generic" transform="translate(525,323)" s:width="30" s:height="40" id="cell_$auto$opt_reduce.cc:131:opt_pmux$15">
    <text x="15" y="-4" class="nodelabel cell_$auto$opt_reduce.cc:131:opt_pmux$15" s:attribute="ref">$reduce_or</text>
    <rect width="30" height="20" s:generic="body" class="cell_$auto$opt_reduce.cc:131:opt_pmux$15"/>
    <g transform="translate(0,10)" s:x="0" s:y="10" s:pid="in0" id="port_$auto$opt_reduce.cc:131:opt_pmux$15~A">
      <text x="-3" y="-4" class="inputPortLabel cell_$auto$opt_reduce.cc:131:opt_pmux$15">A</text>
    </g>
    <g transform="translate(30,10)" s:x="30" s:y="10" s:pid="out0" id="port_$auto$opt_reduce.cc:131:opt_pmux$15~Y">
      <text x="5" y="-4" style="fill:#000; stroke:none" class="cell_$auto$opt_reduce.cc:131:opt_pmux$15">Y</text>
    </g>
  </g>
  <g s:type="generic" transform="translate(525,75)" s:width="30" s:height="40" id="cell_$auto$opt_reduce.cc:131:opt_pmux$17">
    <text x="15" y="-4" class="nodelabel cell_$auto$opt_reduce.cc:131:opt_pmux$17" s:attribute="ref">$reduce_or</text>
    <rect width="30" height="20" s:generic="body" class="cell_$auto$opt_reduce.cc:131:opt_pmux$17"/>
    <g transform="translate(0,10)" s:x="0" s:y="10" s:pid="in0" id="port_$auto$opt_reduce.cc:131:opt_pmux$17~A">
      <text x="-3" y="-4" class="inputPortLabel cell_$auto$opt_reduce.cc:131:opt_pmux$17">A</text>
    </g>
    <g transform="translate(30,10)" s:x="30" s:y="10" s:pid="out0" id="port_$auto$opt_reduce.cc:131:opt_pmux$17~Y">
      <text x="5" y="-4" style="fill:#000; stroke:none" class="cell_$auto$opt_reduce.cc:131:opt_pmux$17">Y</text>
    </g>
  </g>
  <g s:type="generic" transform="translate(525,416)" s:width="30" s:height="40" id="cell_$auto$opt_reduce.cc:131:opt_pmux$19">
    <text x="15" y="-4" class="nodelabel cell_$auto$opt_reduce.cc:131:opt_pmux$19" s:attribute="ref">$reduce_or</text>
    <rect width="30" height="20" s:generic="body" class="cell_$auto$opt_reduce.cc:131:opt_pmux$19"/>
    <g transform="translate(0,10)" s:x="0" s:y="10" s:pid="in0" id="port_$auto$opt_reduce.cc:131:opt_pmux$19~A">
      <text x="-3" y="-4" class="inputPortLabel cell_$auto$opt_reduce.cc:131:opt_pmux$19">A</text>
    </g>
    <g transform="translate(30,10)" s:x="30" s:y="10" s:pid="out0" id="port_$auto$opt_reduce.cc:131:opt_pmux$19~Y">
      <text x="5" y="-4" style="fill:#000; stroke:none" class="cell_$auto$opt_reduce.cc:131:opt_pmux$19">Y</text>
    </g>
  </g>
  <g s:type="and" transform="translate(126,226.5)" s:width="30" s:height="25" id="cell_:11">
    <s:alias val="$and"/>
    <s:alias val="$logic_and"/>
    <s:alias val="$_AND_"/>
    <path d="M0,0 L0,25 L15,25 A15 12.5 0 0 0 15,0 Z" class="cell_:11"/>
    <g s:x="0" s:y="5" s:pid="A"/>
    <g s:x="0" s:y="20" s:pid="B"/>
    <g s:x="30" s:y="12.5" s:pid="Y"/>
  </g>
  <g s:type="mux" transform="translate(883,439)" s:width="20" s:height="40" id="cell_:23">
    <s:alias val="$pmux"/>
    <s:alias val="$mux"/>
    <s:alias val="$_MUX_"/>
    <path d="M0,0 L20,10 L20,30 L0,40 Z" class="cell_:23"/>
    <g s:x="0" s:y="10" s:pid="A"/>
    <g s:x="0" s:y="30" s:pid="B"/>
    <g s:x="10" s:y="35" s:pid="S"/>
    <g s:x="20" s:y="20" s:pid="Y"/>
  </g>
  <g s:type="eq" transform="translate(401.6666666666667,161)" s:width="25" s:height="25" id="cell_:28">
    <s:alias val="$eq"/>
    <circle r="12.5" cx="12.5" cy="12.5" class="cell_:28"/>
    <line x1="7.5" x2="17.5" y1="10" y2="10" class="cell_:28"/>
    <line x1="7.5" x2="17.5" y1="15" y2="15" class="cell_:28"/>
    <g s:x="3" s:y="5" s:pid="A"/>
    <g s:x="3" s:y="20" s:pid="B"/>
    <g s:x="25" s:y="12.5" s:pid="Y"/>
  </g>
  <g s:type="not" transform="translate(400,236.5)" s:width="30" s:height="20" id="cell_:30">
    <s:alias val="$_NOT_"/>
    <s:alias val="$not"/>
    <s:alias val="$logic_not"/>
    <path d="M0,0 L0,20 L20,10 Z" class="cell_:30"/>
    <circle cx="23" cy="10" r="3" class="cell_:30"/>
    <g s:x="0" s:y="10" s:pid="A"/>
    <g s:x="25" s:y="10" s:pid="Y"/>
  </g>
  <g s:type="eq" transform="translate(401.6666666666667,331)" s:width="25" s:height="25" id="cell_:32">
    <s:alias val="$eq"/>
    <circle r="12.5" cx="12.5" cy="12.5" class="cell_:32"/>
    <line x1="7.5" x2="17.5" y1="10" y2="10" class="cell_:32"/>
    <line x1="7.5" x2="17.5" y1="15" y2="15" class="cell_:32"/>
    <g s:x="3" s:y="5" s:pid="A"/>
    <g s:x="3" s:y="20" s:pid="B"/>
    <g s:x="25" s:y="12.5" s:pid="Y"/>
  </g>
  <g s:type="mux" transform="translate(827.6666666666666,120)" s:width="20" s:height="40" id="cell_:37">
    <s:alias val="$pmux"/>
    <s:alias val="$mux"/>
    <s:alias val="$_MUX_"/>
    <path d="M0,0 L20,10 L20,30 L0,40 Z" class="cell_:37"/>
    <g s:x="0" s:y="10" s:pid="A"/>
    <g s:x="0" s:y="30" s:pid="B"/>
    <g s:x="10" s:y="35" s:pid="S"/>
    <g s:x="20" s:y="20" s:pid="Y"/>
  </g>
  <g s:type="mux" transform="translate(827.6666666666666,363)" s:width="20" s:height="40" id="cell_:42">
    <s:alias val="$pmux"/>
    <s:alias val="$mux"/>
    <s:alias val="$_MUX_"/>
    <path d="M0,0 L20,10 L20,30 L0,40 Z" class="cell_:42"/>
    <g s:x="0" s:y="10" s:pid="A"/>
    <g s:x="0" s:y="30" s:pid="B"/>
    <g s:x="10" s:y="35" s:pid="S"/>
    <g s:x="20" s:y="20" s:pid="Y"/>
  </g>
  <g s:type="mux" transform="translate(827.6666666666666,12)" s:width="20" s:height="40" id="cell_:47">
    <s:alias val="$pmux"/>
    <s:alias val="$mux"/>
    <s:alias val="$_MUX_"/>
    <path d="M0,0 L20,10 L20,30 L0,40 Z" class="cell_:47"/>
    <g s:x="0" s:y="10" s:pid="A"/>
    <g s:x="0" s:y="30" s:pid="B"/>
    <g s:x="10" s:y="35" s:pid="S"/>
    <g s:x="20" s:y="20" s:pid="Y"/>
  </g>
  <g s:type="inputExt" transform="translate(126,171.5)" s:width="30" s:height="20" id="cell_clk">
    <text x="15" y="-4" class="nodelabel cell_clk" s:attribute="ref">clk</text>
    <s:alias val="$_inputExt_"/>
    <path d="M0,0 L0,20 L15,20 L30,10 L15,0 Z" class="cell_clk"/>
    <g s:x="28" s:y="10" s:pid="Y"/>
  </g>
  <g s:type="inputExt" transform="translate(126,296.5)" s:width="30" s:height="20" id="cell_rst">
    <text x="15" y="-4" class="nodelabel cell_rst" s:attribute="ref">rst</text>
    <s:alias val="$_inputExt_"/>
    <path d="M0,0 L0,20 L15,20 L30,10 L15,0 Z" class="cell_rst"/>
    <g s:x="28" s:y="10" s:pid="Y"/>
  </g>
  <g s:type="inputExt" transform="translate(37,236.5)" s:width="30" s:height="20" id="cell_en">
    <text x="15" y="-4" class="nodelabel cell_en" s:attribute="ref">en</text>
    <s:alias val="$_inputExt_"/>
    <path d="M0,0 L0,20 L15,20 L30,10 L15,0 Z" class="cell_en"/>
    <g s:x="28" s:y="10" s:pid="Y"/>
  </g>
  <g s:type="inputExt" transform="translate(37,171.5)" s:width="30" s:height="20" id="cell_timer_exp">
    <text x="15" y="-4" class="nodelabel cell_timer_exp" s:attribute="ref">timer_exp</text>
    <s:alias val="$_inputExt_"/>
    <path d="M0,0 L0,20 L15,20 L30,10 L15,0 Z" class="cell_timer_exp"/>
    <g s:x="28" s:y="10" s:pid="Y"/>
  </g>
  <g s:type="outputExt" transform="translate(883,130)" s:width="30" s:height="20" id="cell_led_on">
    <text x="15" y="-4" class="nodelabel cell_led_on" s:attribute="ref">led_on</text>
    <s:alias val="$_outputExt_"/>
    <path d="M30,0 L30,20 L15,20 L0,10 L15,0 Z" class="cell_led_on"/>
    <g s:x="0" s:y="10" s:pid="A"/>
  </g>
  <g s:type="outputExt" transform="translate(883,373)" s:width="30" s:height="20" id="cell_led_fade">
    <text x="15" y="-4" class="nodelabel cell_led_fade" s:attribute="ref">led_fade</text>
    <s:alias val="$_outputExt_"/>
    <path d="M30,0 L30,20 L15,20 L0,10 L15,0 Z" class="cell_led_fade"/>
    <g s:x="0" s:y="10" s:pid="A"/>
  </g>
  <g s:type="outputExt" transform="translate(883,22)" s:width="30" s:height="20" id="cell_led_off">
    <text x="15" y="-4" class="nodelabel cell_led_off" s:attribute="ref">led_off</text>
    <s:alias val="$_outputExt_"/>
    <path d="M30,0 L30,20 L15,20 L0,10 L15,0 Z" class="cell_led_off"/>
    <g s:x="0" s:y="10" s:pid="A"/>
  </g>
  <g s:type="constant" transform="translate(818,459)" s:width="30" s:height="20" id="cell_100100">
    <text x="15" y="-4" class="nodelabel cell_100100" s:attribute="ref">0x24</text>
    <s:alias val="$_constant_"/>
    <rect width="30" height="20" class="cell_100100"/>
    <g s:x="30" s:y="10" s:pid="Y"/>
  </g>
  <g s:type="constant" transform="translate(216,171)" s:width="30" s:height="20" id="cell_10">
    <text x="15" y="-4" class="nodelabel cell_10" s:attribute="ref">10</text>
    <s:alias val="$_constant_"/>
    <rect width="30" height="20" class="cell_10"/>
    <g s:x="30" s:y="10" s:pid="Y"/>
  </g>
  <g s:type="constant" transform="translate(216,32)" s:width="30" s:height="20" id="cell_01">
    <text x="15" y="-4" class="nodelabel cell_01" s:attribute="ref">01</text>
    <s:alias val="$_constant_"/>
    <rect width="30" height="20" class="cell_01"/>
    <g s:x="30" s:y="10" s:pid="Y"/>
  </g>
  <g s:type="join" transform="translate(477,313)" s:width="4" s:height="40" id="cell_$join$,14,15,">
    <rect width="5" height="40" class="splitjoinBody" s:generic="body"/>
    <s:alias val="$_join_"/>
    <g s:x="5" s:y="20" s:pid="out"/>
    <g transform="translate(0,10)" s:x="0" s:y="10" s:pid="in0">
      <text x="-3" y="-4" class="inputPortLabel">0</text>
    </g>
    <g transform="translate(0,30)" s:x="0" s:y="10" s:pid="in0">
      <text x="-3" y="-4" class="inputPortLabel">1</text>
    </g>
  </g>
  <g s:type="join" transform="translate(477,236)" s:width="4" s:height="40" id="cell_$join$,17,15,">
    <rect width="5" height="40" class="splitjoinBody" s:generic="body"/>
    <s:alias val="$_join_"/>
    <g s:x="5" s:y="20" s:pid="out"/>
    <g transform="translate(0,10)" s:x="0" s:y="10" s:pid="in0">
      <text x="-3" y="-4" class="inputPortLabel">0</text>
    </g>
    <g transform="translate(0,30)" s:x="0" s:y="10" s:pid="in0">
      <text x="-3" y="-4" class="inputPortLabel">1</text>
    </g>
  </g>
  <g s:type="join" transform="translate(477,406)" s:width="4" s:height="40" id="cell_$join$,14,17,">
    <rect width="5" height="40" class="splitjoinBody" s:generic="body"/>
    <s:alias val="$_join_"/>
    <g s:x="5" s:y="20" s:pid="out"/>
    <g transform="translate(0,10)" s:x="0" s:y="10" s:pid="in0">
      <text x="-3" y="-4" class="inputPortLabel">0</text>
    </g>
    <g transform="translate(0,30)" s:x="0" s:y="10" s:pid="in0">
      <text x="-3" y="-4" class="inputPortLabel">1</text>
    </g>
  </g>
  <g s:type="join" transform="translate(19,12)" s:width="4" s:height="40" id="cell_$join$,x,x,">
    <rect width="5" height="40" class="splitjoinBody" s:generic="body"/>
    <s:alias val="$_join_"/>
    <g s:x="5" s:y="20" s:pid="out"/>
    <g transform="translate(0,10)" s:x="0" s:y="10" s:pid="in0">
      <text x="-3" y="-4" class="inputPortLabel">0</text>
    </g>
  </g>
  <g s:type="join" transform="translate(837,516)" s:width="4" s:height="40" id="cell_$join$,14,17,15,">
    <rect width="5" height="40" class="splitjoinBody" s:generic="body"/>
    <s:alias val="$_join_"/>
    <g s:x="5" s:y="20" s:pid="out"/>
    <g transform="translate(0,10)" s:x="0" s:y="10" s:pid="in0">
      <text x="-3" y="-4" class="inputPortLabel">0:1</text>
    </g>
    <g transform="translate(0,30)" s:x="0" s:y="10" s:pid="in0">
      <text x="-3" y="-4" class="inputPortLabel">2</text>
    </g>
  </g>
  <g s:type="join" transform="translate(777,332.5)" s:width="4" s:height="40" id="cell_$join$,16,17,">
    <rect width="5" height="40" class="splitjoinBody" s:generic="body"/>
    <s:alias val="$_join_"/>
    <g s:x="5" s:y="20" s:pid="out"/>
    <g transform="translate(0,10)" s:x="0" s:y="10" s:pid="in0">
      <text x="-3" y="-4" class="inputPortLabel">0</text>
    </g>
    <g transform="translate(0,30)" s:x="0" s:y="10" s:pid="in0">
      <text x="-3" y="-4" class="inputPortLabel">1</text>
    </g>
  </g>
  <g s:type="join" transform="translate(777,418.5)" s:width="4" s:height="40" id="cell_$join$,19,15,">
    <rect width="5" height="40" class="splitjoinBody" s:generic="body"/>
    <s:alias val="$_join_"/>
    <g s:x="5" s:y="20" s:pid="out"/>
    <g transform="translate(0,10)" s:x="0" s:y="10" s:pid="in0">
      <text x="-3" y="-4" class="inputPortLabel">0</text>
    </g>
    <g transform="translate(0,30)" s:x="0" s:y="10" s:pid="in0">
      <text x="-3" y="-4" class="inputPortLabel">1</text>
    </g>
  </g>
  <g s:type="join" transform="translate(777,55)" s:width="4" s:height="40" id="cell_$join$,14,18,">
    <rect width="5" height="40" class="splitjoinBody" s:generic="body"/>
    <s:alias val="$_join_"/>
    <g s:x="5" s:y="20" s:pid="out"/>
    <g transform="translate(0,10)" s:x="0" s:y="10" s:pid="in0">
      <text x="-3" y="-4" class="inputPortLabel">0</text>
    </g>
    <g transform="translate(0,30)" s:x="0" s:y="10" s:pid="in0">
      <text x="-3" y="-4" class="inputPortLabel">1</text>
    </g>
  </g>
  <line x1="154" x2="176" y1="181.5" y2="181.5" class="net_2"/>
  <line x1="176" x2="176" y1="181.5" y2="246.5" class="net_2"/>
  <line x1="176" x2="216" y1="246.5" y2="246.5" class="net_2"/>
  <line x1="903" x2="941" y1="459" y2="459" class="net_9,10"/>
  <line x1="941" x2="941" y1="459" y2="566" class="net_9,10"/>
  <line x1="941" x2="176" y1="566" y2="566" class="net_9,10"/>
  <line x1="176" x2="176" y1="566" y2="266.5" class="net_9,10"/>
  <line x1="176" x2="216" y1="266.5" y2="266.5" class="net_9,10"/>
  <line x1="156" x2="166" y1="239" y2="239" class="net_11"/>
  <line x1="166" x2="166" y1="239" y2="286.5" class="net_11"/>
  <line x1="166" x2="216" y1="286.5" y2="286.5" class="net_11"/>
  <line x1="154" x2="216" y1="306.5" y2="306.5" class="net_3"/>
  <line x1="483" x2="525" y1="333.5" y2="333.5" class="net_14,15"/>
  <line x1="483" x2="493" y1="256.5" y2="256.5" class="net_17,15"/>
  <line x1="493" x2="493" y1="256.5" y2="85.5" class="net_17,15"/>
  <line x1="493" x2="525" y1="85.5" y2="85.5" class="net_17,15"/>
  <line x1="483" x2="525" y1="426.5" y2="426.5" class="net_14,17"/>
  <line x1="483" x2="503" y1="426.5" y2="426.5" class="net_14,17"/>
  <line x1="503" x2="503" y1="426.5" y2="526.5" class="net_14,17"/>
  <circle cx="503" cy="426.5" r="2" style="fill:#000" class="net_14,17"/>
  <line x1="503" x2="837" y1="526.5" y2="526.5" class="net_14,17"/>
  <line x1="65" x2="101" y1="181.5" y2="181.5" class="net_5"/>
  <line x1="101" x2="101" y1="181.5" y2="231.5" class="net_5"/>
  <line x1="101" x2="126" y1="231.5" y2="231.5" class="net_5"/>
  <line x1="65" x2="126" y1="246.5" y2="246.5" class="net_4"/>
  <line x1="848" x2="883" y1="469" y2="469" class="net_20,21,22,23,24,25"/>
  <line x1="843" x2="893" y1="536.5" y2="536.5" class="net_14,17,15"/>
  <line x1="893" x2="893" y1="536.5" y2="474" class="net_14,17,15"/>
  <line x1="247" x2="390" y1="246.5" y2="246.5" class="net_12,13"/>
  <line x1="390" x2="390" y1="246.5" y2="166" class="net_12,13"/>
  <circle cx="390" cy="246.5" r="2" style="fill:#000" class="net_12,13"/>
  <line x1="390" x2="404.6666666666667" y1="166" y2="166" class="net_12,13"/>
  <line x1="247" x2="400" y1="246.5" y2="246.5" class="net_12,13"/>
  <line x1="247" x2="390" y1="246.5" y2="246.5" class="net_12,13"/>
  <line x1="390" x2="390" y1="246.5" y2="336" class="net_12,13"/>
  <line x1="390" x2="404.6666666666667" y1="336" y2="336" class="net_12,13"/>
  <line x1="246" x2="404.6666666666667" y1="181" y2="181" class="net_26,27"/>
  <line x1="246" x2="380" y1="181" y2="181" class="net_26,27"/>
  <line x1="380" x2="380" y1="181" y2="150" class="net_26,27"/>
  <circle cx="380" cy="181" r="2" style="fill:#000" class="net_26,27"/>
  <line x1="380" x2="827.6666666666666" y1="150" y2="150" class="net_26,27"/>
  <line x1="246" x2="380" y1="181" y2="181" class="net_26,27"/>
  <line x1="380" x2="380" y1="181" y2="393" class="net_26,27"/>
  <line x1="380" x2="827.6666666666666" y1="393" y2="393" class="net_26,27"/>
  <line x1="246" x2="370" y1="42" y2="42" class="net_28,29"/>
  <line x1="370" x2="370" y1="42" y2="351" class="net_28,29"/>
  <circle cx="370" cy="42" r="2" style="fill:#000" class="net_28,29"/>
  <line x1="370" x2="404.6666666666667" y1="351" y2="351" class="net_28,29"/>
  <line x1="246" x2="827.6666666666666" y1="42" y2="42" class="net_28,29"/>
  <line x1="793" x2="827.6666666666666" y1="130" y2="130" class="net_x"/>
  <line x1="793" x2="793" y1="130" y2="373" class="net_x"/>
  <circle cx="793" cy="130" r="2" style="fill:#000" class="net_x"/>
  <line x1="793" x2="827.6666666666666" y1="373" y2="373" class="net_x"/>
  <line x1="793" x2="793" y1="130" y2="22" class="net_x"/>
  <line x1="793" x2="827.6666666666666" y1="22" y2="22" class="net_x"/>
  <line x1="783" x2="837.6666666666666" y1="353" y2="353" class="net_16,17"/>
  <line x1="837.6666666666666" x2="837.6666666666666" y1="353" y2="155" class="net_16,17"/>
  <line x1="783" x2="837.6666666666666" y1="439" y2="439" class="net_19,15"/>
  <line x1="837.6666666666666" x2="837.6666666666666" y1="439" y2="398" class="net_19,15"/>
  <line x1="783" x2="837.6666666666666" y1="75.5" y2="75.5" class="net_14,18"/>
  <line x1="837.6666666666666" x2="837.6666666666666" y1="75.5" y2="47" class="net_14,18"/>
  <line x1="847.6666666666666" x2="883" y1="140" y2="140" class="net_6"/>
  <line x1="847.6666666666666" x2="883" y1="383" y2="383" class="net_7"/>
  <line x1="847.6666666666666" x2="883" y1="32" y2="32" class="net_8"/>
  <line x1="426.6666666666667" x2="460" y1="173.5" y2="173.5" class="net_14"/>
  <line x1="460" x2="460" y1="173.5" y2="323.5" class="net_14"/>
  <circle cx="460" cy="173.5" r="2" style="fill:#000" class="net_14"/>
  <circle cx="460" cy="323.5" r="2" style="fill:#000" class="net_14"/>
  <line x1="460" x2="477" y1="323.5" y2="323.5" class="net_14"/>
  <line x1="426.6666666666667" x2="460" y1="173.5" y2="173.5" class="net_14"/>
  <line x1="460" x2="460" y1="173.5" y2="416.5" class="net_14"/>
  <line x1="460" x2="477" y1="416.5" y2="416.5" class="net_14"/>
  <line x1="426.6666666666667" x2="460" y1="173.5" y2="173.5" class="net_14"/>
  <line x1="460" x2="460" y1="173.5" y2="54" class="net_14"/>
  <line x1="460" x2="745" y1="54" y2="54" class="net_14"/>
  <line x1="745" x2="745" y1="54" y2="65.5" class="net_14"/>
  <line x1="745" x2="777" y1="65.5" y2="65.5" class="net_14"/>
  <line x1="426.6666666666667" x2="477" y1="343.5" y2="343.5" class="net_15"/>
  <line x1="426.6666666666667" x2="440" y1="343.5" y2="343.5" class="net_15"/>
  <line x1="440" x2="440" y1="343.5" y2="266.5" class="net_15"/>
  <circle cx="440" cy="343.5" r="2" style="fill:#000" class="net_15"/>
  <line x1="440" x2="477" y1="266.5" y2="266.5" class="net_15"/>
  <line x1="426.6666666666667" x2="440" y1="343.5" y2="343.5" class="net_15"/>
  <line x1="440" x2="440" y1="343.5" y2="546.5" class="net_15"/>
  <line x1="440" x2="837" y1="546.5" y2="546.5" class="net_15"/>
  <line x1="426.6666666666667" x2="440" y1="343.5" y2="343.5" class="net_15"/>
  <line x1="440" x2="440" y1="343.5" y2="546.5" class="net_15"/>
  <line x1="440" x2="493" y1="546.5" y2="546.5" class="net_15"/>
  <line x1="493" x2="493" y1="546.5" y2="449" class="net_15"/>
  <circle cx="493" cy="546.5" r="2" style="fill:#000" class="net_15"/>
  <line x1="493" x2="777" y1="449" y2="449" class="net_15"/>
  <line x1="425" x2="477" y1="246.5" y2="246.5" class="net_17"/>
  <line x1="425" x2="450" y1="246.5" y2="246.5" class="net_17"/>
  <line x1="450" x2="450" y1="246.5" y2="436.5" class="net_17"/>
  <circle cx="450" cy="246.5" r="2" style="fill:#000" class="net_17"/>
  <line x1="450" x2="477" y1="436.5" y2="436.5" class="net_17"/>
  <line x1="425" x2="450" y1="246.5" y2="246.5" class="net_17"/>
  <line x1="450" x2="450" y1="246.5" y2="363" class="net_17"/>
  <circle cx="450" cy="363" r="2" style="fill:#000" class="net_17"/>
  <line x1="450" x2="777" y1="363" y2="363" class="net_17"/>
  <line x1="556" x2="745" y1="333.5" y2="333.5" class="net_16"/>
  <line x1="745" x2="745" y1="333.5" y2="343" class="net_16"/>
  <line x1="745" x2="777" y1="343" y2="343" class="net_16"/>
  <line x1="556" x2="745" y1="426.5" y2="426.5" class="net_19"/>
  <line x1="745" x2="745" y1="426.5" y2="429" class="net_19"/>
  <line x1="745" x2="777" y1="429" y2="429" class="net_19"/>
  <line x1="556" x2="777" y1="85.5" y2="85.5" class="net_18"/>
</svg>
