<svg xmlns="http://www.w3.org/2000/svg" xmlns:xlink="http://www.w3.org/1999/xlink" xmlns:s="https://github.com/nturley/netlistsvg" width="1515" height="1208.5">
  <style>svg {
    stroke:#000;
    fill:none;
  }
  text {
    fill:#000;
    stroke:none;
    font-size:10px;
    font-weight: bold;
    font-family: "Courier New", monospace;
  }
  .nodelabel {
    text-anchor: middle;
  }
  .inputPortLabel {
    text-anchor: end;
  }
  .splitjoinBody {
    fill:#000;
  }</style>
  <g s:type="generic" transform="translate(173,447)" s:width="30" s:height="40" id="cell_$auto$ff.cc:266:slice$30">
    <text x="15" y="-4" class="nodelabel cell_$auto$ff.cc:266:slice$30" s:attribute="ref">$sdffe</text>
    <rect width="30" height="80" s:generic="body" class="cell_$auto$ff.cc:266:slice$30"/>
    <g transform="translate(0,10)" s:x="0" s:y="10" s:pid="in0" id="port_$auto$ff.cc:266:slice$30~CLK">
      <text x="-3" y="-4" class="inputPortLabel cell_$auto$ff.cc:266:slice$30">CLK</text>
    </g>
    <g transform="translate(0,30)" s:x="0" s:y="10" s:pid="in0" id="port_$auto$ff.cc:266:slice$30~D">
      <text x="-3" y="-4" class="inputPortLabel cell_$auto$ff.cc:266:slice$30">D</text>
    </g>
    <g transform="translate(0,50)" s:x="0" s:y="10" s:pid="in0" id="port_$auto$ff.cc:266:slice$30~EN">
      <text x="-3" y="-4" class="inputPortLabel cell_$auto$ff.cc:266:slice$30">EN</text>
    </g>
    <g transform="translate(0,70)" s:x="0" s:y="10" s:pid="in0" id="port_$auto$ff.cc:266:slice$30~SRST">
      <text x="-3" y="-4" class="inputPortLabel cell_$auto$ff.cc:266:slice$30">SRST</text>
    </g>
    <g transform="translate(30,10)" s:x="30" s:y="10" s:pid="out0" id="port_$auto$ff.cc:266:slice$30~Q">
      <text x="5" y="-4" style="fill:#000; stroke:none" class="cell_$auto$ff.cc:266:slice$30">Q</text>
    </g>
  </g>
  <g s:type="generic" transform="translate(865,650.5)" s:width="30" s:height="40" id="cell_$auto$opt_dff.cc:248:make_patterns_logic$32">
    <text x="15" y="-4" class="nodelabel cell_$auto$opt_dff.cc:248:make_patterns_logic$32" s:attribute="ref">$ne</text>
    <rect width="30" height="40" s:generic="body" class="cell_$auto$opt_dff.cc:248:make_patterns_logic$32"/>
    <g transform="translate(0,10)" s:x="0" s:y="10" s:pid="in0" id="port_$auto$opt_dff.cc:248:make_patterns_logic$32~A">
      <text x="-3" y="-4" class="inputPortLabel cell_$auto$opt_dff.cc:248:make_patterns_logic$32">A</text>
    </g>
    <g transform="translate(0,30)" s:x="0" s:y="10" s:pid="in0" id="port_$auto$opt_dff.cc:248:make_patterns_logic$32~B">
      <text x="-3" y="-4" class="inputPortLabel cell_$auto$opt_dff.cc:248:make_patterns_logic$32">B</text>
    </g>
    <g transform="translate(30,10)" s:x="30" s:y="10" s:pid="out0" id="port_$auto$opt_dff.cc:248:make_patterns_logic$32~Y">
      <text x="5" y="-4" style="fill:#000; stroke:none" class="cell_$auto$opt_dff.cc:248:make_patterns_logic$32">Y</text>
    </g>
  </g>
  <g s:type="generic" transform="translate(865,503.5)" s:width="30" s:height="40" id="cell_$auto$opt_dff.cc:248:make_patterns_logic$34">
    <text x="15" y="-4" class="nodelabel cell_$auto$opt_dff.cc:248:make_patterns_logic$34" s:attribute="ref">$ne</text>
    <rect width="30" height="40" s:generic="body" class="cell_$auto$opt_dff.cc:248:make_patterns_logic$34"/>
    <g transform="translate(0,10)" s:x="0" s:y="10" s:pid="in0" id="port_$auto$opt_dff.cc:248:make_patterns_logic$34~A">
      <text x="-3" y="-4" class="inputPortLabel cell_$auto$opt_dff.cc:248:make_patterns_logic$34">A</text>
    </g>
    <g transform="translate(0,30)" s:x="0" s:y="10" s:pid="in0" id="port_$auto$opt_dff.cc:248:make_patterns_logic$34~B">
      <text x="-3" y="-4" class="inputPortLabel cell_$auto$opt_dff.cc:248:make_patterns_logic$34">B</text>
    </g>
    <g transform="translate(30,10)" s:x="30" s:y="10" s:pid="out0" id="port_$auto$opt_dff.cc:248:make_patterns_logic$34~Y">
      <text x="5" y="-4" style="fill:#000; stroke:none" class="cell_$auto$opt_dff.cc:248:make_patterns_logic$34">Y</text>
    </g>
  </g>
  <g s:type="generic" transform="translate(865,415.5)" s:width="30" s:height="40" id="cell_$auto$opt_dff.cc:248:make_patterns_logic$36">
    <text x="15" y="-4" class="nodelabel cell_$auto$opt_dff.cc:248:make_patterns_logic$36" s:attribute="ref">$ne</text>
    <rect width="30" height="40" s:generic="body" class="cell_$auto$opt_dff.cc:248:make_patterns_logic$36"/>
    <g transform="translate(0,10)" s:x="0" s:y="10" s:pid="in0" id="port_$auto$opt_dff.cc:248:make_patterns_logic$36~A">
      <text x="-3" y="-4" class="inputPortLabel cell_$auto$opt_dff.cc:248:make_patterns_logic$36">A</text>
    </g>
    <g transform="translate(0,30)" s:x="0" s:y="10" s:pid="in0" id="port_$auto$opt_dff.cc:248:make_patterns_logic$36~B">
      <text x="-3" y="-4" class="inputPortLabel cell_$auto$opt_dff.cc:248:make_patterns_logic$36">B</text>
    </g>
    <g transform="translate(30,10)" s:x="30" s:y="10" s:pid="out0" id="port_$auto$opt_dff.cc:248:make_patterns_logic$36~Y">
      <text x="5" y="-4" style="fill:#000; stroke:none" class="cell_$auto$opt_dff.cc:248:make_patterns_logic$36">Y</text>
    </g>
  </g>
  <g s:type="generic" transform="translate(865,327.5)" s:width="30" s:height="40" id="cell_$auto$opt_dff.cc:248:make_patterns_logic$38">
    <text x="15" y="-4" class="nodelabel cell_$auto$opt_dff.cc:248:make_patterns_logic$38" s:attribute="ref">$ne</text>
    <rect width="30" height="40" s:generic="body" class="cell_$auto$opt_dff.cc:248:make_patterns_logic$38"/>
    <g transform="translate(0,10)" s:x="0" s:y="10" s:pid="in0" id="port_$auto$opt_dff.cc:248:make_patterns_logic$38~A">
      <text x="-3" y="-4" class="inputPortLabel cell_$auto$opt_dff.cc:248:make_patterns_logic$38">A</text>
    </g>
    <g transform="translate(0,30)" s:x="0" s:y="10" s:pid="in0" id="port_$auto$opt_dff.cc:248:make_patterns_logic$38~B">
      <text x="-3" y="-4" class="inputPortLabel cell_$auto$opt_dff.cc:248:make_patterns_logic$38">B</text>
    </g>
    <g transform="translate(30,10)" s:x="30" s:y="10" s:pid="out0" id="port_$auto$opt_dff.cc:248:make_patterns_logic$38~Y">
      <text x="5" y="-4" style="fill:#000; stroke:none" class="cell_$auto$opt_dff.cc:248:make_patterns_logic$38">Y</text>
    </g>
  </g>
  <g s:type="generic" transform="translate(1225,473.5)" s:width="30" s:height="40" id="cell_$auto$opt_dff.cc:273:make_patterns_logic$40">
    <text x="15" y="-4" class="nodelabel cell_$auto$opt_dff.cc:273:make_patterns_logic$40" s:attribute="ref">$reduce_and</text>
    <rect width="30" height="20" s:generic="body" class="cell_$auto$opt_dff.cc:273:make_patterns_logic$40"/>
    <g transform="translate(0,10)" s:x="0" s:y="10" s:pid="in0" id="port_$auto$opt_dff.cc:273:make_patterns_logic$40~A">
      <text x="-3" y="-4" class="inputPortLabel cell_$auto$opt_dff.cc:273:make_patterns_logic$40">A</text>
    </g>
    <g transform="translate(30,10)" s:x="30" s:y="10" s:pid="out0" id="port_$auto$opt_dff.cc:273:make_patterns_logic$40~Y">
      <text x="5" y="-4" style="fill:#000; stroke:none" class="cell_$auto$opt_dff.cc:273:make_patterns_logic$40">Y</text>
    </g>
  </g>
  <g s:type="generic" transform="translate(613,902)" s:width="30" s:height="40" id="cell_$auto$opt_reduce.cc:131:opt_pmux$19">
    <text x="15" y="-4" class="nodelabel cell_$auto$opt_reduce.cc:131:opt_pmux$19" s:attribute="ref">$reduce_or</text>
    <rect width="30" height="20" s:generic="body" class="cell_$auto$opt_reduce.cc:131:opt_pmux$19"/>
    <g transform="translate(0,10)" s:x="0" s:y="10" s:pid="in0" id="port_$auto$opt_reduce.cc:131:opt_pmux$19~A">
      <text x="-3" y="-4" class="inputPortLabel cell_$auto$opt_reduce.cc:131:opt_pmux$19">A</text>
    </g>
    <g transform="translate(30,10)" s:x="30" s:y="10" s:pid="out0" id="port_$auto$opt_reduce.cc:131:opt_pmux$19~Y">
      <text x="5" y="-4" style="fill:#000; stroke:none" class="cell_$auto$opt_reduce.cc:131:opt_pmux$19">Y</text>
    </g>
  </g>
  <g s:type="generic" transform="translate(613,1089.5)" s:width="30" s:height="40" id="cell_$auto$opt_reduce.cc:131:opt_pmux$21">
    <text x="15" y="-4" class="nodelabel cell_$auto$opt_reduce.cc:131:opt_pmux$21" s:attribute="ref">$reduce_or</text>
    <rect width="30" height="20" s:generic="body" class="cell_$auto$opt_reduce.cc:131:opt_pmux$21"/>
    <g transform="translate(0,10)" s:x="0" s:y="10" s:pid="in0" id="port_$auto$opt_reduce.cc:131:opt_pmux$21~A">
      <text x="-3" y="-4" class="inputPortLabel cell_$auto$opt_reduce.cc:131:opt_pmux$21">A</text>
    </g>
    <g transform="translate(30,10)" s:x="30" s:y="10" s:pid="out0" id="port_$auto$opt_reduce.cc:131:opt_pmux$21~Y">
      <text x="5" y="-4" style="fill:#000; stroke:none" class="cell_$auto$opt_reduce.cc:131:opt_pmux$21">Y</text>
    </g>
  </g>
  <g s:type="generic" transform="translate(613,1166.5)" s:width="30" s:height="40" id="cell_$auto$opt_reduce.cc:131:opt_pmux$23">
    <text x="15" y="-4" class="nodelabel cell_$auto$opt_reduce.cc:131:opt_pmux$23" s:attribute="ref">$reduce_or</text>
    <rect width="30" height="20" s:generic="body" class="cell_$auto$opt_reduce.cc:131:opt_pmux$23"/>
    <g transform="translate(0,10)" s:x="0" s:y="10" s:pid="in0" id="port_$auto$opt_reduce.cc:131:opt_pmux$23~A">
      <text x="-3" y="-4" class="inputPortLabel cell_$auto$opt_reduce.cc:131:opt_pmux$23">A</text>
    </g>
    <g transform="translate(30,10)" s:x="30" s:y="10" s:pid="out0" id="port_$auto$opt_reduce.cc:131:opt_pmux$23~Y">
      <text x="5" y="-4" style="fill:#000; stroke:none" class="cell_$auto$opt_reduce.cc:131:opt_pmux$23">Y</text>
    </g>
  </g>
  <g s:type="generic" transform="translate(613,748)" s:width="30" s:height="40" id="cell_$auto$opt_reduce.cc:131:opt_pmux$25">
    <text x="15" y="-4" class="nodelabel cell_$auto$opt_reduce.cc:131:opt_pmux$25" s:attribute="ref">$reduce_or</text>
    <rect width="30" height="20" s:generic="body" class="cell_$auto$opt_reduce.cc:131:opt_pmux$25"/>
    <g transform="translate(0,10)" s:x="0" s:y="10" s:pid="in0" id="port_$auto$opt_reduce.cc:131:opt_pmux$25~A">
      <text x="-3" y="-4" class="inputPortLabel cell_$auto$opt_reduce.cc:131:opt_pmux$25">A</text>
    </g>
    <g transform="translate(30,10)" s:x="30" s:y="10" s:pid="out0" id="port_$auto$opt_reduce.cc:131:opt_pmux$25~Y">
      <text x="5" y="-4" style="fill:#000; stroke:none" class="cell_$auto$opt_reduce.cc:131:opt_pmux$25">Y</text>
    </g>
  </g>
  <g s:type="generic" transform="translate(613,816)" s:width="30" s:height="40" id="cell_$auto$opt_reduce.cc:131:opt_pmux$27">
    <text x="15" y="-4" class="nodelabel cell_$auto$opt_reduce.cc:131:opt_pmux$27" s:attribute="ref">$reduce_or</text>
    <rect width="30" height="20" s:generic="body" class="cell_$auto$opt_reduce.cc:131:opt_pmux$27"/>
    <g transform="translate(0,10)" s:x="0" s:y="10" s:pid="in0" id="port_$auto$opt_reduce.cc:131:opt_pmux$27~A">
      <text x="-3" y="-4" class="inputPortLabel cell_$auto$opt_reduce.cc:131:opt_pmux$27">A</text>
    </g>
    <g transform="translate(30,10)" s:x="30" s:y="10" s:pid="out0" id="port_$auto$opt_reduce.cc:131:opt_pmux$27~Y">
      <text x="5" y="-4" style="fill:#000; stroke:none" class="cell_$auto$opt_reduce.cc:131:opt_pmux$27">Y</text>
    </g>
  </g>
  <g s:type="mux" transform="translate(942,34)" s:width="20" s:height="40" id="cell_:12">
    <s:alias val="$pmux"/>
    <s:alias val="$mux"/>
    <s:alias val="$_MUX_"/>
    <path d="M0,0 L20,10 L20,30 L0,40 Z" class="cell_:12"/>
    <g s:x="0" s:y="10" s:pid="A"/>
    <g s:x="0" s:y="30" s:pid="B"/>
    <g s:x="10" s:y="35" s:pid="S"/>
    <g s:x="20" s:y="20" s:pid="Y"/>
  </g>
  <g s:type="mux" transform="translate(942,94)" s:width="20" s:height="40" id="cell_:16">
    <s:alias val="$pmux"/>
    <s:alias val="$mux"/>
    <s:alias val="$_MUX_"/>
    <path d="M0,0 L20,10 L20,30 L0,40 Z" class="cell_:16"/>
    <g s:x="0" s:y="10" s:pid="A"/>
    <g s:x="0" s:y="30" s:pid="B"/>
    <g s:x="10" s:y="35" s:pid="S"/>
    <g s:x="20" s:y="20" s:pid="Y"/>
  </g>
  <g s:type="mux" transform="translate(942,154)" s:width="20" s:height="40" id="cell_:20">
    <s:alias val="$pmux"/>
    <s:alias val="$mux"/>
    <s:alias val="$_MUX_"/>
    <path d="M0,0 L20,10 L20,30 L0,40 Z" class="cell_:20"/>
    <g s:x="0" s:y="10" s:pid="A"/>
    <g s:x="0" s:y="30" s:pid="B"/>
    <g s:x="10" s:y="35" s:pid="S"/>
    <g s:x="20" s:y="20" s:pid="Y"/>
  </g>
  <g s:type="mux" transform="translate(942,214)" s:width="20" s:height="40" id="cell_:24">
    <s:alias val="$pmux"/>
    <s:alias val="$mux"/>
    <s:alias val="$_MUX_"/>
    <path d="M0,0 L20,10 L20,30 L0,40 Z" class="cell_:24"/>
    <g s:x="0" s:y="10" s:pid="A"/>
    <g s:x="0" s:y="30" s:pid="B"/>
    <g s:x="10" s:y="35" s:pid="S"/>
    <g s:x="20" s:y="20" s:pid="Y"/>
  </g>
  <g s:type="mux" transform="translate(1225,114)" s:width="20" s:height="40" id="cell_:29">
    <s:alias val="$pmux"/>
    <s:alias val="$mux"/>
    <s:alias val="$_MUX_"/>
    <path d="M0,0 L20,10 L20,30 L0,40 Z" class="cell_:29"/>
    <g s:x="0" s:y="10" s:pid="A"/>
    <g s:x="0" s:y="30" s:pid="B"/>
    <g s:x="10" s:y="35" s:pid="S"/>
    <g s:x="20" s:y="20" s:pid="Y"/>
  </g>
  <g s:type="not" transform="translate(352,625)" s:width="30" s:height="20" id="cell_:33">
    <s:alias val="$_NOT_"/>
    <s:alias val="$not"/>
    <s:alias val="$logic_not"/>
    <path d="M0,0 L0,20 L20,10 Z" class="cell_:33"/>
    <circle cx="23" cy="10" r="3" class="cell_:33"/>
    <g s:x="0" s:y="10" s:pid="A"/>
    <g s:x="25" s:y="10" s:pid="Y"/>
  </g>
  <g s:type="eq" transform="translate(353.6666666666667,565)" s:width="25" s:height="25" id="cell_:35">
    <s:alias val="$eq"/>
    <circle r="12.5" cx="12.5" cy="12.5" class="cell_:35"/>
    <line x1="7.5" x2="17.5" y1="10" y2="10" class="cell_:35"/>
    <line x1="7.5" x2="17.5" y1="15" y2="15" class="cell_:35"/>
    <g s:x="3" s:y="5" s:pid="A"/>
    <g s:x="3" s:y="20" s:pid="B"/>
    <g s:x="25" s:y="12.5" s:pid="Y"/>
  </g>
  <g s:type="eq" transform="translate(442,692)" s:width="25" s:height="25" id="cell_:37">
    <s:alias val="$eq"/>
    <circle r="12.5" cx="12.5" cy="12.5" class="cell_:37"/>
    <line x1="7.5" x2="17.5" y1="10" y2="10" class="cell_:37"/>
    <line x1="7.5" x2="17.5" y1="15" y2="15" class="cell_:37"/>
    <g s:x="3" s:y="5" s:pid="A"/>
    <g s:x="3" s:y="20" s:pid="B"/>
    <g s:x="25" s:y="12.5" s:pid="Y"/>
  </g>
  <g s:type="eq" transform="translate(442,646)" s:width="25" s:height="25" id="cell_:39">
    <s:alias val="$eq"/>
    <circle r="12.5" cx="12.5" cy="12.5" class="cell_:39"/>
    <line x1="7.5" x2="17.5" y1="10" y2="10" class="cell_:39"/>
    <line x1="7.5" x2="17.5" y1="15" y2="15" class="cell_:39"/>
    <g s:x="3" s:y="5" s:pid="A"/>
    <g s:x="3" s:y="20" s:pid="B"/>
    <g s:x="25" s:y="12.5" s:pid="Y"/>
  </g>
  <g s:type="mux" transform="translate(1163,697)" s:width="20" s:height="40" id="cell_:45">
    <s:alias val="$pmux"/>
    <s:alias val="$mux"/>
    <s:alias val="$_MUX_"/>
    <path d="M0,0 L20,10 L20,30 L0,40 Z" class="cell_:45"/>
    <g s:x="0" s:y="10" s:pid="A"/>
    <g s:x="0" s:y="30" s:pid="B"/>
    <g s:x="10" s:y="35" s:pid="S"/>
    <g s:x="20" s:y="20" s:pid="Y"/>
  </g>
  <g s:type="mux" transform="translate(1163,1036.5)" s:width="20" s:height="40" id="cell_:51">
    <s:alias val="$pmux"/>
    <s:alias val="$mux"/>
    <s:alias val="$_MUX_"/>
    <path d="M0,0 L20,10 L20,30 L0,40 Z" class="cell_:51"/>
    <g s:x="0" s:y="10" s:pid="A"/>
    <g s:x="0" s:y="30" s:pid="B"/>
    <g s:x="10" s:y="35" s:pid="S"/>
    <g s:x="20" s:y="20" s:pid="Y"/>
  </g>
  <g s:type="mux" transform="translate(1163,851)" s:width="20" s:height="40" id="cell_:56">
    <s:alias val="$pmux"/>
    <s:alias val="$mux"/>
    <s:alias val="$_MUX_"/>
    <path d="M0,0 L20,10 L20,30 L0,40 Z" class="cell_:56"/>
    <g s:x="0" s:y="10" s:pid="A"/>
    <g s:x="0" s:y="30" s:pid="B"/>
    <g s:x="10" s:y="35" s:pid="S"/>
    <g s:x="20" s:y="20" s:pid="Y"/>
  </g>
  <g s:type="inputExt" transform="translate(78,442.5)" s:width="30" s:height="20" id="cell_clk">
    <text x="15" y="-4" class="nodelabel cell_clk" s:attribute="ref">clk</text>
    <s:alias val="$_inputExt_"/>
    <path d="M0,0 L0,20 L15,20 L30,10 L15,0 Z" class="cell_clk"/>
    <g s:x="28" s:y="10" s:pid="Y"/>
  </g>
  <g s:type="inputExt" transform="translate(78,507.5)" s:width="30" s:height="20" id="cell_rst">
    <text x="15" y="-4" class="nodelabel cell_rst" s:attribute="ref">rst</text>
    <s:alias val="$_inputExt_"/>
    <path d="M0,0 L0,20 L15,20 L30,10 L15,0 Z" class="cell_rst"/>
    <g s:x="28" s:y="10" s:pid="Y"/>
  </g>
  <g s:type="inputExt" transform="translate(517,308.5)" s:width="30" s:height="20" id="cell_timer_exp">
    <text x="15" y="-4" class="nodelabel cell_timer_exp" s:attribute="ref">timer_exp</text>
    <s:alias val="$_inputExt_"/>
    <path d="M0,0 L0,20 L15,20 L30,10 L15,0 Z" class="cell_timer_exp"/>
    <g s:x="28" s:y="10" s:pid="Y"/>
  </g>
  <g s:type="inputExt" transform="translate(36,22)" s:width="30" s:height="20" id="cell_por_n">
    <text x="15" y="-4" class="nodelabel cell_por_n" s:attribute="ref">por_n</text>
    <s:alias val="$_inputExt_"/>
    <path d="M0,0 L0,20 L15,20 L30,10 L15,0 Z" class="cell_por_n"/>
    <g s:x="28" s:y="10" s:pid="Y"/>
  </g>
  <g s:type="outputExt" transform="translate(1225,707)" s:width="30" s:height="20" id="cell_red_out">
    <text x="15" y="-4" class="nodelabel cell_red_out" s:attribute="ref">red_out</text>
    <s:alias val="$_outputExt_"/>
    <path d="M30,0 L30,20 L15,20 L0,10 L15,0 Z" class="cell_red_out"/>
    <g s:x="0" s:y="10" s:pid="A"/>
  </g>
  <g s:type="outputExt" transform="translate(1225,1046.5)" s:width="30" s:height="20" id="cell_amber_out">
    <text x="15" y="-4" class="nodelabel cell_amber_out" s:attribute="ref">amber_out</text>
    <s:alias val="$_outputExt_"/>
    <path d="M30,0 L30,20 L15,20 L0,10 L15,0 Z" class="cell_amber_out"/>
    <g s:x="0" s:y="10" s:pid="A"/>
  </g>
  <g s:type="outputExt" transform="translate(1225,981.5)" s:width="30" s:height="20" id="cell_green_out">
    <text x="15" y="-4" class="nodelabel cell_green_out" s:attribute="ref">green_out</text>
    <s:alias val="$_outputExt_"/>
    <path d="M30,0 L30,20 L15,20 L0,10 L15,0 Z" class="cell_green_out"/>
    <g s:x="0" s:y="10" s:pid="A"/>
  </g>
  <g s:type="constant" transform="translate(352,524)" s:width="30" s:height="20" id="cell_10">
    <text x="15" y="-4" class="nodelabel cell_10" s:attribute="ref">10</text>
    <s:alias val="$_constant_"/>
    <rect width="30" height="20" class="cell_10"/>
    <g s:x="30" s:y="10" s:pid="Y"/>
  </g>
  <g s:type="constant" transform="translate(173,575)" s:width="30" s:height="20" id="cell_01">
    <text x="15" y="-4" class="nodelabel cell_01" s:attribute="ref">01</text>
    <s:alias val="$_constant_"/>
    <rect width="30" height="20" class="cell_01"/>
    <g s:x="30" s:y="10" s:pid="Y"/>
  </g>
  <g s:type="constant" transform="translate(352,174)" s:width="30" s:height="20" id="cell_11">
    <text x="15" y="-4" class="nodelabel cell_11" s:attribute="ref">11</text>
    <s:alias val="$_constant_"/>
    <rect width="30" height="20" class="cell_11"/>
    <g s:x="30" s:y="10" s:pid="Y"/>
  </g>
  <g s:type="constant" transform="translate(613,234)" s:width="30" s:height="20" id="cell_00">
    <text x="15" y="-4" class="nodelabel cell_00" s:attribute="ref">00</text>
    <s:alias val="$_constant_"/>
    <rect width="30" height="20" class="cell_00"/>
    <g s:x="30" s:y="10" s:pid="Y"/>
  </g>
  <g s:type="join" transform="translate(679.3333333333334,604.5)" s:width="4" s:height="40" id="cell_$join$,4,14,">
    <rect width="5" height="40" class="splitjoinBody" s:generic="body"/>
    <s:alias val="$_join_"/>
    <g s:x="5" s:y="20" s:pid="out"/>
    <g transform="translate(0,10)" s:x="0" s:y="10" s:pid="in0">
      <text x="-3" y="-4" class="inputPortLabel">0</text>
    </g>
    <g transform="translate(0,30)" s:x="0" s:y="10" s:pid="in0">
      <text x="-3" y="-4" class="inputPortLabel">1</text>
    </g>
  </g>
  <g s:type="join" transform="translate(679.3333333333334,484)" s:width="4" s:height="40" id="cell_$join$,4,16,">
    <rect width="5" height="40" class="splitjoinBody" s:generic="body"/>
    <s:alias val="$_join_"/>
    <g s:x="5" s:y="20" s:pid="out"/>
    <g transform="translate(0,10)" s:x="0" s:y="10" s:pid="in0">
      <text x="-3" y="-4" class="inputPortLabel">0</text>
    </g>
    <g transform="translate(0,30)" s:x="0" s:y="10" s:pid="in0">
      <text x="-3" y="-4" class="inputPortLabel">1</text>
    </g>
  </g>
  <g s:type="join" transform="translate(679.3333333333334,396)" s:width="4" s:height="40" id="cell_$join$,4,18,">
    <rect width="5" height="40" class="splitjoinBody" s:generic="body"/>
    <s:alias val="$_join_"/>
    <g s:x="5" s:y="20" s:pid="out"/>
    <g transform="translate(0,10)" s:x="0" s:y="10" s:pid="in0">
      <text x="-3" y="-4" class="inputPortLabel">0</text>
    </g>
    <g transform="translate(0,30)" s:x="0" s:y="10" s:pid="in0">
      <text x="-3" y="-4" class="inputPortLabel">1</text>
    </g>
  </g>
  <g s:type="join" transform="translate(679.3333333333334,308)" s:width="4" s:height="40" id="cell_$join$,4,20,">
    <rect width="5" height="40" class="splitjoinBody" s:generic="body"/>
    <s:alias val="$_join_"/>
    <g s:x="5" s:y="20" s:pid="out"/>
    <g transform="translate(0,10)" s:x="0" s:y="10" s:pid="in0">
      <text x="-3" y="-4" class="inputPortLabel">0</text>
    </g>
    <g transform="translate(0,30)" s:x="0" s:y="10" s:pid="in0">
      <text x="-3" y="-4" class="inputPortLabel">1</text>
    </g>
  </g>
  <g s:type="join" transform="translate(1172.75,463.5)" s:width="4" s:height="40" id="cell_$join$,21,19,17,15,">
    <rect width="5" height="80" class="splitjoinBody" s:generic="body"/>
    <s:alias val="$_join_"/>
    <g s:x="5" s:y="20" s:pid="out"/>
    <g transform="translate(0,10)" s:x="0" s:y="10" s:pid="in0">
      <text x="-3" y="-4" class="inputPortLabel">0</text>
    </g>
    <g transform="translate(0,30)" s:x="0" s:y="10" s:pid="in0">
      <text x="-3" y="-4" class="inputPortLabel">1</text>
    </g>
    <g transform="translate(0,50)" s:x="0" s:y="10" s:pid="in0">
      <text x="-3" y="-4" class="inputPortLabel">2</text>
    </g>
    <g transform="translate(0,70)" s:x="0" s:y="10" s:pid="in0">
      <text x="-3" y="-4" class="inputPortLabel">3</text>
    </g>
  </g>
  <g s:type="join" transform="translate(542,892)" s:width="4" s:height="40" id="cell_$join$,14,16,20,">
    <rect width="5" height="40" class="splitjoinBody" s:generic="body"/>
    <s:alias val="$_join_"/>
    <g s:x="5" s:y="20" s:pid="out"/>
    <g transform="translate(0,10)" s:x="0" s:y="10" s:pid="in0">
      <text x="-3" y="-4" class="inputPortLabel">0:1</text>
    </g>
  </g>
  <g s:type="join" transform="translate(451.3333333333333,547)" s:width="4" s:height="40" id="cell_$join$,14,16,">
    <rect width="5" height="40" class="splitjoinBody" s:generic="body"/>
    <s:alias val="$_join_"/>
    <g s:x="5" s:y="20" s:pid="out"/>
    <g transform="translate(0,10)" s:x="0" s:y="10" s:pid="in0">
      <text x="-3" y="-4" class="inputPortLabel">0</text>
    </g>
    <g transform="translate(0,30)" s:x="0" s:y="10" s:pid="in0">
      <text x="-3" y="-4" class="inputPortLabel">1</text>
    </g>
  </g>
  <g s:type="join" transform="translate(540,1079.5)" s:width="4" s:height="40" id="cell_$join$,14,18,">
    <rect width="5" height="40" class="splitjoinBody" s:generic="body"/>
    <s:alias val="$_join_"/>
    <g s:x="5" s:y="20" s:pid="out"/>
    <g transform="translate(0,10)" s:x="0" s:y="10" s:pid="in0">
      <text x="-3" y="-4" class="inputPortLabel">0</text>
    </g>
    <g transform="translate(0,30)" s:x="0" s:y="10" s:pid="in0">
      <text x="-3" y="-4" class="inputPortLabel">1</text>
    </g>
  </g>
  <g s:type="join" transform="translate(540,1156.5)" s:width="4" s:height="40" id="cell_$join$,16,20,">
    <rect width="5" height="40" class="splitjoinBody" s:generic="body"/>
    <s:alias val="$_join_"/>
    <g s:x="5" s:y="20" s:pid="out"/>
    <g transform="translate(0,10)" s:x="0" s:y="10" s:pid="in0">
      <text x="-3" y="-4" class="inputPortLabel">0</text>
    </g>
    <g transform="translate(0,30)" s:x="0" s:y="10" s:pid="in0">
      <text x="-3" y="-4" class="inputPortLabel">1</text>
    </g>
  </g>
  <g s:type="join" transform="translate(540,464.5)" s:width="4" s:height="40" id="cell_$join$,18,20,">
    <rect width="5" height="40" class="splitjoinBody" s:generic="body"/>
    <s:alias val="$_join_"/>
    <g s:x="5" s:y="20" s:pid="out"/>
    <g transform="translate(0,10)" s:x="0" s:y="10" s:pid="in0">
      <text x="-3" y="-4" class="inputPortLabel">0</text>
    </g>
    <g transform="translate(0,30)" s:x="0" s:y="10" s:pid="in0">
      <text x="-3" y="-4" class="inputPortLabel">1</text>
    </g>
  </g>
  <g s:type="join" transform="translate(1177,123.5)" s:width="4" s:height="40" id="cell_$join$,27,28,29,30,31,32,33,34,">
    <rect width="5" height="80" class="splitjoinBody" s:generic="body"/>
    <s:alias val="$_join_"/>
    <g s:x="5" s:y="20" s:pid="out"/>
    <g transform="translate(0,10)" s:x="0" s:y="10" s:pid="in0">
      <text x="-3" y="-4" class="inputPortLabel">0:1</text>
    </g>
    <g transform="translate(0,30)" s:x="0" s:y="10" s:pid="in0">
      <text x="-3" y="-4" class="inputPortLabel">2:3</text>
    </g>
    <g transform="translate(0,50)" s:x="0" s:y="10" s:pid="in0">
      <text x="-3" y="-4" class="inputPortLabel">4:5</text>
    </g>
    <g transform="translate(0,70)" s:x="0" s:y="10" s:pid="in0">
      <text x="-3" y="-4" class="inputPortLabel">6:7</text>
    </g>
  </g>
  <g s:type="join" transform="translate(1177,264.5)" s:width="4" s:height="40" id="cell_$join$,14,16,18,20,">
    <rect width="5" height="40" class="splitjoinBody" s:generic="body"/>
    <s:alias val="$_join_"/>
    <g s:x="5" s:y="20" s:pid="out"/>
    <g transform="translate(0,10)" s:x="0" s:y="10" s:pid="in0">
      <text x="-3" y="-4" class="inputPortLabel">0:1</text>
    </g>
    <g transform="translate(0,30)" s:x="0" s:y="10" s:pid="in0">
      <text x="-3" y="-4" class="inputPortLabel">2:3</text>
    </g>
  </g>
  <g s:type="join" transform="translate(947.3333333333334,796)" s:width="4" s:height="40" id="cell_$join$,25,26,">
    <rect width="5" height="40" class="splitjoinBody" s:generic="body"/>
    <s:alias val="$_join_"/>
    <g s:x="5" s:y="20" s:pid="out"/>
    <g transform="translate(0,10)" s:x="0" s:y="10" s:pid="in0">
      <text x="-3" y="-4" class="inputPortLabel">0</text>
    </g>
    <g transform="translate(0,30)" s:x="0" s:y="10" s:pid="in0">
      <text x="-3" y="-4" class="inputPortLabel">1</text>
    </g>
  </g>
  <g s:type="join" transform="translate(947.3333333333334,1146.5)" s:width="4" s:height="40" id="cell_$join$,23,24,">
    <rect width="5" height="40" class="splitjoinBody" s:generic="body"/>
    <s:alias val="$_join_"/>
    <g s:x="5" s:y="20" s:pid="out"/>
    <g transform="translate(0,10)" s:x="0" s:y="10" s:pid="in0">
      <text x="-3" y="-4" class="inputPortLabel">0</text>
    </g>
    <g transform="translate(0,30)" s:x="0" s:y="10" s:pid="in0">
      <text x="-3" y="-4" class="inputPortLabel">1</text>
    </g>
  </g>
  <g s:type="join" transform="translate(947.3333333333334,911.5)" s:width="4" s:height="40" id="cell_$join$,22,18,">
    <rect width="5" height="40" class="splitjoinBody" s:generic="body"/>
    <s:alias val="$_join_"/>
    <g s:x="5" s:y="20" s:pid="out"/>
    <g transform="translate(0,10)" s:x="0" s:y="10" s:pid="in0">
      <text x="-3" y="-4" class="inputPortLabel">0</text>
    </g>
    <g transform="translate(0,30)" s:x="0" s:y="10" s:pid="in0">
      <text x="-3" y="-4" class="inputPortLabel">1</text>
    </g>
  </g>
  <g s:type="split" transform="translate(12,12)" s:width="5" s:height="40" id="cell_$split$,x,x,">
    <rect width="5" height="20" class="splitjoinBody" s:generic="body"/>
    <s:alias val="$_split_"/>
    <g s:x="0" s:y="20" s:pid="in"/>
    <g transform="translate(4,10)" s:x="4" s:y="10" s:pid="out0">
      <text x="5" y="-4">0</text>
    </g>
  </g>
  <line x1="106" x2="138" y1="452.5" y2="452.5" class="net_2"/>
  <line x1="138" x2="138" y1="452.5" y2="457.5" class="net_2"/>
  <line x1="138" x2="173" y1="457.5" y2="457.5" class="net_2"/>
  <line x1="1245" x2="1493" y1="134" y2="134" class="net_9,10"/>
  <line x1="1493" x2="1493" y1="134" y2="961.5" class="net_9,10"/>
  <line x1="1493" x2="118" y1="961.5" y2="961.5" class="net_9,10"/>
  <line x1="118" x2="118" y1="961.5" y2="477.5" class="net_9,10"/>
  <line x1="118" x2="173" y1="477.5" y2="477.5" class="net_9,10"/>
  <line x1="1256" x2="1503" y1="484" y2="484" class="net_11"/>
  <line x1="1503" x2="1503" y1="484" y2="12" class="net_11"/>
  <line x1="1503" x2="128" y1="12" y2="12" class="net_11"/>
  <line x1="128" x2="128" y1="12" y2="497.5" class="net_11"/>
  <line x1="128" x2="173" y1="497.5" y2="497.5" class="net_11"/>
  <line x1="106" x2="173" y1="517.5" y2="517.5" class="net_3"/>
  <line x1="685.3333333333334" x2="833" y1="625" y2="625" class="net_4,14"/>
  <line x1="833" x2="833" y1="625" y2="661" class="net_4,14"/>
  <line x1="833" x2="865" y1="661" y2="661" class="net_4,14"/>
  <line x1="382" x2="422" y1="534" y2="534" class="net_35,36"/>
  <line x1="422" x2="422" y1="534" y2="681" class="net_35,36"/>
  <circle cx="422" cy="534" r="2" style="fill:#000" class="net_35,36"/>
  <circle cx="422" cy="681" r="2" style="fill:#000" class="net_35,36"/>
  <line x1="422" x2="865" y1="681" y2="681" class="net_35,36"/>
  <line x1="382" x2="865" y1="534" y2="534" class="net_35,36"/>
  <line x1="382" x2="422" y1="534" y2="534" class="net_35,36"/>
  <line x1="422" x2="422" y1="534" y2="446" class="net_35,36"/>
  <circle cx="422" cy="446" r="2" style="fill:#000" class="net_35,36"/>
  <line x1="422" x2="865" y1="446" y2="446" class="net_35,36"/>
  <line x1="382" x2="422" y1="534" y2="534" class="net_35,36"/>
  <line x1="422" x2="422" y1="534" y2="446" class="net_35,36"/>
  <line x1="422" x2="497" y1="446" y2="446" class="net_35,36"/>
  <line x1="497" x2="497" y1="446" y2="358" class="net_35,36"/>
  <circle cx="497" cy="446" r="2" style="fill:#000" class="net_35,36"/>
  <line x1="497" x2="865" y1="358" y2="358" class="net_35,36"/>
  <line x1="382" x2="422" y1="534" y2="534" class="net_35,36"/>
  <line x1="422" x2="422" y1="534" y2="124" class="net_35,36"/>
  <line x1="422" x2="942" y1="124" y2="124" class="net_35,36"/>
  <line x1="382" x2="422" y1="534" y2="534" class="net_35,36"/>
  <line x1="422" x2="422" y1="534" y2="712" class="net_35,36"/>
  <circle cx="422" cy="712" r="2" style="fill:#000" class="net_35,36"/>
  <line x1="422" x2="445" y1="712" y2="712" class="net_35,36"/>
  <line x1="382" x2="422" y1="534" y2="534" class="net_35,36"/>
  <line x1="422" x2="422" y1="534" y2="1066.5" class="net_35,36"/>
  <line x1="422" x2="1163" y1="1066.5" y2="1066.5" class="net_35,36"/>
  <line x1="382" x2="422" y1="534" y2="534" class="net_35,36"/>
  <line x1="422" x2="422" y1="534" y2="881" class="net_35,36"/>
  <circle cx="422" cy="881" r="2" style="fill:#000" class="net_35,36"/>
  <line x1="422" x2="1163" y1="881" y2="881" class="net_35,36"/>
  <line x1="685.3333333333334" x2="833" y1="504.5" y2="504.5" class="net_4,16"/>
  <line x1="833" x2="833" y1="504.5" y2="514" class="net_4,16"/>
  <line x1="833" x2="865" y1="514" y2="514" class="net_4,16"/>
  <line x1="685.3333333333334" x2="833" y1="416.5" y2="416.5" class="net_4,18"/>
  <line x1="833" x2="833" y1="416.5" y2="426" class="net_4,18"/>
  <line x1="833" x2="865" y1="426" y2="426" class="net_4,18"/>
  <line x1="685.3333333333334" x2="833" y1="328.5" y2="328.5" class="net_4,20"/>
  <line x1="833" x2="833" y1="328.5" y2="338" class="net_4,20"/>
  <line x1="833" x2="865" y1="338" y2="338" class="net_4,20"/>
  <line x1="1178.75" x2="1225" y1="484" y2="484" class="net_21,19,17,15"/>
  <line x1="548" x2="613" y1="912.5" y2="912.5" class="net_14,16,20"/>
  <line x1="546" x2="613" y1="1100" y2="1100" class="net_14,18"/>
  <line x1="546" x2="613" y1="1177" y2="1177" class="net_16,20"/>
  <line x1="457.3333333333333" x2="477" y1="567.5" y2="567.5" class="net_14,16"/>
  <line x1="477" x2="477" y1="567.5" y2="758.5" class="net_14,16"/>
  <circle cx="477" cy="567.5" r="2" style="fill:#000" class="net_14,16"/>
  <circle cx="477" cy="758.5" r="2" style="fill:#000" class="net_14,16"/>
  <line x1="477" x2="613" y1="758.5" y2="758.5" class="net_14,16"/>
  <line x1="457.3333333333333" x2="477" y1="567.5" y2="567.5" class="net_14,16"/>
  <line x1="477" x2="477" y1="567.5" y2="902.5" class="net_14,16"/>
  <line x1="477" x2="542" y1="902.5" y2="902.5" class="net_14,16"/>
  <line x1="457.3333333333333" x2="477" y1="567.5" y2="567.5" class="net_14,16"/>
  <line x1="477" x2="477" y1="567.5" y2="275" class="net_14,16"/>
  <line x1="477" x2="1177" y1="275" y2="275" class="net_14,16"/>
  <line x1="546" x2="581" y1="485" y2="485" class="net_18,20"/>
  <line x1="581" x2="581" y1="485" y2="826.5" class="net_18,20"/>
  <circle cx="581" cy="485" r="2" style="fill:#000" class="net_18,20"/>
  <line x1="581" x2="613" y1="826.5" y2="826.5" class="net_18,20"/>
  <line x1="546" x2="581" y1="485" y2="485" class="net_18,20"/>
  <line x1="581" x2="581" y1="485" y2="295" class="net_18,20"/>
  <line x1="581" x2="1177" y1="295" y2="295" class="net_18,20"/>
  <line x1="833" x2="833" y1="104" y2="44" class="net_x,x"/>
  <circle cx="833" cy="104" r="2" style="fill:#000" class="net_x,x"/>
  <circle cx="833" cy="44" r="2" style="fill:#000" class="net_x,x"/>
  <line x1="833" x2="942" y1="44" y2="44" class="net_x,x"/>
  <line x1="833" x2="942" y1="104" y2="104" class="net_x,x"/>
  <line x1="833" x2="833" y1="104" y2="164" class="net_x,x"/>
  <circle cx="833" cy="164" r="2" style="fill:#000" class="net_x,x"/>
  <line x1="833" x2="942" y1="164" y2="164" class="net_x,x"/>
  <line x1="833" x2="833" y1="104" y2="224" class="net_x,x"/>
  <line x1="833" x2="942" y1="224" y2="224" class="net_x,x"/>
  <line x1="833" x2="833" y1="104" y2="23" class="net_x,x"/>
  <line x1="833" x2="1193" y1="23" y2="23" class="net_x,x"/>
  <line x1="1193" x2="1193" y1="23" y2="124" class="net_x,x"/>
  <line x1="1193" x2="1225" y1="124" y2="124" class="net_x,x"/>
  <line x1="203" x2="327" y1="585" y2="585" class="net_43,44"/>
  <line x1="327" x2="327" y1="585" y2="64" class="net_43,44"/>
  <circle cx="327" cy="585" r="2" style="fill:#000" class="net_43,44"/>
  <line x1="327" x2="942" y1="64" y2="64" class="net_43,44"/>
  <line x1="203" x2="356.6666666666667" y1="585" y2="585" class="net_43,44"/>
  <line x1="203" x2="327" y1="585" y2="585" class="net_43,44"/>
  <line x1="327" x2="327" y1="585" y2="727" class="net_43,44"/>
  <line x1="327" x2="1163" y1="727" y2="727" class="net_43,44"/>
  <line x1="545" x2="591" y1="318.5" y2="318.5" class="net_4"/>
  <line x1="591" x2="591" y1="318.5" y2="84" class="net_4"/>
  <line x1="591" x2="952" y1="84" y2="84" class="net_4"/>
  <circle cx="591" cy="318.5" r="2" style="fill:#000" class="net_4"/>
  <line x1="952" x2="952" y1="84" y2="69" class="net_4"/>
  <line x1="545" x2="591" y1="318.5" y2="318.5" class="net_4"/>
  <line x1="591" x2="591" y1="318.5" y2="144" class="net_4"/>
  <line x1="591" x2="952" y1="144" y2="144" class="net_4"/>
  <circle cx="591" cy="144" r="2" style="fill:#000" class="net_4"/>
  <line x1="952" x2="952" y1="144" y2="129" class="net_4"/>
  <line x1="545" x2="591" y1="318.5" y2="318.5" class="net_4"/>
  <line x1="591" x2="591" y1="318.5" y2="204" class="net_4"/>
  <line x1="591" x2="952" y1="204" y2="204" class="net_4"/>
  <circle cx="591" cy="204" r="2" style="fill:#000" class="net_4"/>
  <line x1="952" x2="952" y1="204" y2="189" class="net_4"/>
  <line x1="545" x2="591" y1="318.5" y2="318.5" class="net_4"/>
  <line x1="591" x2="591" y1="318.5" y2="264" class="net_4"/>
  <line x1="591" x2="952" y1="264" y2="264" class="net_4"/>
  <circle cx="591" cy="264" r="2" style="fill:#000" class="net_4"/>
  <line x1="952" x2="952" y1="264" y2="249" class="net_4"/>
  <line x1="545" x2="591" y1="318.5" y2="318.5" class="net_4"/>
  <line x1="591" x2="591" y1="318.5" y2="615" class="net_4"/>
  <line x1="591" x2="679.3333333333334" y1="615" y2="615" class="net_4"/>
  <line x1="545" x2="591" y1="318.5" y2="318.5" class="net_4"/>
  <line x1="591" x2="591" y1="318.5" y2="494.5" class="net_4"/>
  <circle cx="591" cy="494.5" r="2" style="fill:#000" class="net_4"/>
  <line x1="591" x2="679.3333333333334" y1="494.5" y2="494.5" class="net_4"/>
  <line x1="545" x2="591" y1="318.5" y2="318.5" class="net_4"/>
  <line x1="591" x2="591" y1="318.5" y2="406.5" class="net_4"/>
  <circle cx="591" cy="406.5" r="2" style="fill:#000" class="net_4"/>
  <line x1="591" x2="679.3333333333334" y1="406.5" y2="406.5" class="net_4"/>
  <line x1="545" x2="679.3333333333334" y1="318.5" y2="318.5" class="net_4"/>
  <line x1="382" x2="942" y1="184" y2="184" class="net_47,48"/>
  <line x1="382" x2="432" y1="184" y2="184" class="net_47,48"/>
  <line x1="432" x2="432" y1="184" y2="666" class="net_47,48"/>
  <circle cx="432" cy="184" r="2" style="fill:#000" class="net_47,48"/>
  <line x1="432" x2="445" y1="666" y2="666" class="net_47,48"/>
  <line x1="643" x2="942" y1="244" y2="244" class="net_49,50"/>
  <line x1="1183" x2="1225" y1="144" y2="144" class="net_27,28,29,30,31,32,33,34"/>
  <line x1="1183" x2="1235" y1="285" y2="285" class="net_14,16,18,20"/>
  <line x1="1235" x2="1235" y1="285" y2="149" class="net_14,16,18,20"/>
  <line x1="204" x2="337" y1="457.5" y2="457.5" class="net_12,13"/>
  <line x1="337" x2="337" y1="457.5" y2="635" class="net_12,13"/>
  <circle cx="337" cy="635" r="2" style="fill:#000" class="net_12,13"/>
  <line x1="337" x2="352" y1="635" y2="635" class="net_12,13"/>
  <line x1="204" x2="337" y1="457.5" y2="457.5" class="net_12,13"/>
  <line x1="337" x2="337" y1="457.5" y2="570" class="net_12,13"/>
  <circle cx="337" cy="570" r="2" style="fill:#000" class="net_12,13"/>
  <line x1="337" x2="356.6666666666667" y1="570" y2="570" class="net_12,13"/>
  <line x1="204" x2="337" y1="457.5" y2="457.5" class="net_12,13"/>
  <line x1="337" x2="337" y1="457.5" y2="697" class="net_12,13"/>
  <line x1="337" x2="445" y1="697" y2="697" class="net_12,13"/>
  <line x1="204" x2="337" y1="457.5" y2="457.5" class="net_12,13"/>
  <line x1="337" x2="337" y1="457.5" y2="554" class="net_12,13"/>
  <line x1="337" x2="412" y1="554" y2="554" class="net_12,13"/>
  <line x1="412" x2="412" y1="554" y2="651" class="net_12,13"/>
  <circle cx="337" cy="554" r="2" style="fill:#000" class="net_12,13"/>
  <line x1="412" x2="445" y1="651" y2="651" class="net_12,13"/>
  <line x1="1133" x2="1133" y1="871" y2="707" class="net_x"/>
  <line x1="1133" x2="1163" y1="707" y2="707" class="net_x"/>
  <line x1="1133" x2="1133" y1="871" y2="1046.5" class="net_x"/>
  <line x1="1133" x2="1163" y1="1046.5" y2="1046.5" class="net_x"/>
  <line x1="1133" x2="1133" y1="871" y2="861" class="net_x"/>
  <circle cx="1133" cy="861" r="2" style="fill:#000" class="net_x"/>
  <line x1="1133" x2="1163" y1="861" y2="861" class="net_x"/>
  <line x1="953.3333333333334" x2="1173" y1="816.5" y2="816.5" class="net_25,26"/>
  <line x1="1173" x2="1173" y1="816.5" y2="732" class="net_25,26"/>
  <line x1="953.3333333333334" x2="1173" y1="1167" y2="1167" class="net_23,24"/>
  <line x1="1173" x2="1173" y1="1167" y2="1071.5" class="net_23,24"/>
  <line x1="953.3333333333334" x2="1173" y1="932" y2="932" class="net_22,18"/>
  <line x1="1173" x2="1173" y1="932" y2="886" class="net_22,18"/>
  <line x1="1183" x2="1225" y1="717" y2="717" class="net_6"/>
  <line x1="1183" x2="1225" y1="1056.5" y2="1056.5" class="net_7"/>
  <line x1="1183" x2="1193" y1="871" y2="871" class="net_8"/>
  <line x1="1193" x2="1193" y1="871" y2="991.5" class="net_8"/>
  <line x1="1193" x2="1225" y1="991.5" y2="991.5" class="net_8"/>
  <line x1="377" x2="679.3333333333334" y1="635" y2="635" class="net_14"/>
  <line x1="377" x2="402" y1="635" y2="635" class="net_14"/>
  <line x1="402" x2="402" y1="635" y2="557.5" class="net_14"/>
  <circle cx="402" cy="635" r="2" style="fill:#000" class="net_14"/>
  <line x1="402" x2="451.3333333333333" y1="557.5" y2="557.5" class="net_14"/>
  <line x1="377" x2="402" y1="635" y2="635" class="net_14"/>
  <line x1="402" x2="402" y1="635" y2="1090" class="net_14"/>
  <line x1="402" x2="540" y1="1090" y2="1090" class="net_14"/>
  <line x1="378.6666666666667" x2="392" y1="577.5" y2="577.5" class="net_16"/>
  <line x1="392" x2="392" y1="577.5" y2="514.5" class="net_16"/>
  <circle cx="392" cy="577.5" r="2" style="fill:#000" class="net_16"/>
  <line x1="392" x2="679.3333333333334" y1="514.5" y2="514.5" class="net_16"/>
  <line x1="378.6666666666667" x2="451.3333333333333" y1="577.5" y2="577.5" class="net_16"/>
  <line x1="378.6666666666667" x2="392" y1="577.5" y2="577.5" class="net_16"/>
  <line x1="392" x2="392" y1="577.5" y2="1167" class="net_16"/>
  <line x1="392" x2="540" y1="1167" y2="1167" class="net_16"/>
  <line x1="467" x2="507" y1="704.5" y2="704.5" class="net_18"/>
  <line x1="507" x2="507" y1="704.5" y2="426.5" class="net_18"/>
  <circle cx="507" cy="704.5" r="2" style="fill:#000" class="net_18"/>
  <line x1="507" x2="679.3333333333334" y1="426.5" y2="426.5" class="net_18"/>
  <line x1="467" x2="507" y1="704.5" y2="704.5" class="net_18"/>
  <line x1="507" x2="507" y1="704.5" y2="1110" class="net_18"/>
  <line x1="507" x2="540" y1="1110" y2="1110" class="net_18"/>
  <line x1="467" x2="507" y1="704.5" y2="704.5" class="net_18"/>
  <line x1="507" x2="507" y1="704.5" y2="475" class="net_18"/>
  <circle cx="507" cy="475" r="2" style="fill:#000" class="net_18"/>
  <line x1="507" x2="540" y1="475" y2="475" class="net_18"/>
  <line x1="467" x2="507" y1="704.5" y2="704.5" class="net_18"/>
  <line x1="507" x2="507" y1="704.5" y2="942" class="net_18"/>
  <circle cx="507" cy="942" r="2" style="fill:#000" class="net_18"/>
  <line x1="507" x2="947.3333333333334" y1="942" y2="942" class="net_18"/>
  <line x1="467" x2="487" y1="658.5" y2="658.5" class="net_20"/>
  <line x1="487" x2="487" y1="658.5" y2="338.5" class="net_20"/>
  <circle cx="487" cy="658.5" r="2" style="fill:#000" class="net_20"/>
  <line x1="487" x2="679.3333333333334" y1="338.5" y2="338.5" class="net_20"/>
  <line x1="467" x2="487" y1="658.5" y2="658.5" class="net_20"/>
  <line x1="487" x2="487" y1="658.5" y2="1187" class="net_20"/>
  <line x1="487" x2="540" y1="1187" y2="1187" class="net_20"/>
  <line x1="467" x2="487" y1="658.5" y2="658.5" class="net_20"/>
  <line x1="487" x2="487" y1="658.5" y2="495" class="net_20"/>
  <circle cx="487" cy="495" r="2" style="fill:#000" class="net_20"/>
  <line x1="487" x2="540" y1="495" y2="495" class="net_20"/>
  <line x1="896" x2="1143" y1="338" y2="338" class="net_21"/>
  <line x1="1143" x2="1143" y1="338" y2="474" class="net_21"/>
  <line x1="1143" x2="1172.75" y1="474" y2="474" class="net_21"/>
  <line x1="896" x2="1133" y1="426" y2="426" class="net_19"/>
  <line x1="1133" x2="1133" y1="426" y2="494" class="net_19"/>
  <line x1="1133" x2="1172.75" y1="494" y2="494" class="net_19"/>
  <line x1="896" x2="1172.75" y1="514" y2="514" class="net_17"/>
  <line x1="896" x2="1173.25" y1="661" y2="661" class="net_15"/>
  <line x1="1173.25" x2="1173.25" y1="661" y2="534.5" class="net_15"/>
  <line x1="962" x2="1143" y1="54" y2="54" class="net_27,28"/>
  <line x1="1143" x2="1143" y1="54" y2="134" class="net_27,28"/>
  <line x1="1143" x2="1177" y1="134" y2="134" class="net_27,28"/>
  <line x1="962" x2="1133" y1="114" y2="114" class="net_29,30"/>
  <line x1="1133" x2="1133" y1="114" y2="154" class="net_29,30"/>
  <line x1="1133" x2="1177" y1="154" y2="154" class="net_29,30"/>
  <line x1="962" x2="1177" y1="174" y2="174" class="net_31,32"/>
  <line x1="962" x2="1177.5" y1="234" y2="234" class="net_33,34"/>
  <line x1="1177.5" x2="1177.5" y1="234" y2="194.5" class="net_33,34"/>
  <line x1="644" x2="833" y1="758.5" y2="758.5" class="net_25"/>
  <line x1="833" x2="833" y1="758.5" y2="806.5" class="net_25"/>
  <line x1="833" x2="947.3333333333334" y1="806.5" y2="806.5" class="net_25"/>
  <line x1="644" x2="947.3333333333334" y1="826.5" y2="826.5" class="net_26"/>
  <line x1="644" x2="833" y1="1100" y2="1100" class="net_23"/>
  <line x1="833" x2="833" y1="1100" y2="1157" class="net_23"/>
  <line x1="833" x2="947.3333333333334" y1="1157" y2="1157" class="net_23"/>
  <line x1="644" x2="947.3333333333334" y1="1177" y2="1177" class="net_24"/>
  <line x1="644" x2="833" y1="912.5" y2="912.5" class="net_22"/>
  <line x1="833" x2="833" y1="912.5" y2="922" class="net_22"/>
  <line x1="833" x2="947.3333333333334" y1="922" y2="922" class="net_22"/>
</svg>
