<svg xmlns="http://www.w3.org/2000/svg" xmlns:xlink="http://www.w3.org/1999/xlink" xmlns:s="https://github.com/nturley/netlistsvg" width="773" height="301.5">
  <style>svg {
    stroke:#000;
    fill:none;
  }
  text {
    fill:#000;
    stroke:none;
    font-size:10px;
    font-weight: bold;
    font-family: "Courier New", monospace;
  }
  .nodelabel {
    text-anchor: middle;
  }
  .inputPortLabel {
    text-anchor: end;
  }
  .splitjoinBody {
    fill:#000;
  }</style>
  <g s:type="generic" transform="translate(120,87)" s:width="30" s:height="40" id="cell_$auto$ff.cc:266:slice$11">
    <text x="15" y="-4" class="nodelabel cell_$auto$ff.cc:266:slice$11" s:attribute="ref">$sdff</text>
    <rect width="30" height="60" s:generic="body" class="cell_$auto$ff.cc:266:slice$11"/>
    <g transform="translate(0,10)" s:x="0" s:y="10" s:pid="in0" id="port_$auto$ff.cc:266:slice$11~CLK">
      <text x="-3" y="-4" class="inputPortLabel cell_$auto$ff.cc:266:slice$11">CLK</text>
    </g>
    <g transform="translate(0,30)" s:x="0" s:y="10" s:pid="in0" id="port_$auto$ff.cc:266:slice$11~D">
      <text x="-3" y="-4" class="inputPortLabel cell_$auto$ff.cc:266:slice$11">D</text>
    </g>
    <g transform="translate(0,50)" s:x="0" s:y="10" s:pid="in0" id="port_$auto$ff.cc:266:slice$11~SRST">
      <text x="-3" y="-4" class="inputPortLabel cell_$auto$ff.cc:266:slice$11">SRST</text>
    </g>
    <g transform="translate(30,10)" s:x="30" s:y="10" s:pid="out0" id="port_$auto$ff.cc:266:slice$11~Q">
      <text x="5" y="-4" style="fill:#000; stroke:none" class="cell_$auto$ff.cc:266:slice$11">Q</text>
    </g>
  </g>
  <g s:type="generic" transform="translate(324,226.5)" s:width="30" s:height="40" id="cell_$auto$ff.cc:266:slice$12">
    <text x="15" y="-4" class="nodelabel cell_$auto$ff.cc:266:slice$12" s:attribute="ref">$sdff</text>
    <rect width="30" height="60" s:generic="body" class="cell_$auto$ff.cc:266:slice$12"/>
    <g transform="translate(0,10)" s:x="0" s:y="10" s:pid="in0" id="port_$auto$ff.cc:266:slice$12~CLK">
      <text x="-3" y="-4" class="inputPortLabel cell_$auto$ff.cc:266:slice$12">CLK</text>
    </g>
    <g transform="translate(0,30)" s:x="0" s:y="10" s:pid="in0" id="port_$auto$ff.cc:266:slice$12~D">
      <text x="-3" y="-4" class="inputPortLabel cell_$auto$ff.cc:266:slice$12">D</text>
    </g>
    <g transform="translate(0,50)" s:x="0" s:y="10" s:pid="in0" id="port_$auto$ff.cc:266:slice$12~SRST">
      <text x="-3" y="-4" class="inputPortLabel cell_$auto$ff.cc:266:slice$12">SRST</text>
    </g>
    <g transform="translate(30,10)" s:x="30" s:y="10" s:pid="out0" id="port_$auto$ff.cc:266:slice$12~Q">
      <text x="5" y="-4" style="fill:#000; stroke:none" class="cell_$auto$ff.cc:266:slice$12">Q</text>
    </g>
  </g>
  <g s:type="generic" transform="translate(324,67)" s:width="30" s:height="40" id="cell_$auto$ff.cc:266:slice$13">
    <text x="15" y="-4" class="nodelabel cell_$auto$ff.cc:266:slice$13" s:attribute="ref">$sdff</text>
    <rect width="30" height="60" s:generic="body" class="cell_$auto$ff.cc:266:slice$13"/>
    <g transform="translate(0,10)" s:x="0" s:y="10" s:pid="in0" id="port_$auto$ff.cc:266:slice$13~CLK">
      <text x="-3" y="-4" class="inputPortLabel cell_$auto$ff.cc:266:slice$13">CLK</text>
    </g>
    <g transform="translate(0,30)" s:x="0" s:y="10" s:pid="in0" id="port_$auto$ff.cc:266:slice$13~D">
      <text x="-3" y="-4" class="inputPortLabel cell_$auto$ff.cc:266:slice$13">D</text>
    </g>
    <g transform="translate(0,50)" s:x="0" s:y="10" s:pid="in0" id="port_$auto$ff.cc:266:slice$13~SRST">
      <text x="-3" y="-4" class="inputPortLabel cell_$auto$ff.cc:266:slice$13">SRST</text>
    </g>
    <g transform="translate(30,10)" s:x="30" s:y="10" s:pid="out0" id="port_$auto$ff.cc:266:slice$13~Q">
      <text x="5" y="-4" style="fill:#000; stroke:none" class="cell_$auto$ff.cc:266:slice$13">Q</text>
    </g>
  </g>
  <g s:type="generic" transform="translate(528,47)" s:width="30" s:height="40" id="cell_$auto$ff.cc:266:slice$14">
    <text x="15" y="-4" class="nodelabel cell_$auto$ff.cc:266:slice$14" s:attribute="ref">$sdff</text>
    <rect width="30" height="60" s:generic="body" class="cell_$auto$ff.cc:266:slice$14"/>
    <g transform="translate(0,10)" s:x="0" s:y="10" s:pid="in0" id="port_$auto$ff.cc:266:slice$14~CLK">
      <text x="-3" y="-4" class="inputPortLabel cell_$auto$ff.cc:266:slice$14">CLK</text>
    </g>
    <g transform="translate(0,30)" s:x="0" s:y="10" s:pid="in0" id="port_$auto$ff.cc:266:slice$14~D">
      <text x="-3" y="-4" class="inputPortLabel cell_$auto$ff.cc:266:slice$14">D</text>
    </g>
    <g transform="translate(0,50)" s:x="0" s:y="10" s:pid="in0" id="port_$auto$ff.cc:266:slice$14~SRST">
      <text x="-3" y="-4" class="inputPortLabel cell_$auto$ff.cc:266:slice$14">SRST</text>
    </g>
    <g transform="translate(30,10)" s:x="30" s:y="10" s:pid="out0" id="port_$auto$ff.cc:266:slice$14~Q">
      <text x="5" y="-4" style="fill:#000; stroke:none" class="cell_$auto$ff.cc:266:slice$14">Q</text>
    </g>
  </g>
  <g s:type="generic" transform="translate(528,155)" s:width="30" s:height="40" id="cell_$auto$ff.cc:266:slice$15">
    <text x="15" y="-4" class="nodelabel cell_$auto$ff.cc:266:slice$15" s:attribute="ref">$sdff</text>
    <rect width="30" height="60" s:generic="body" class="cell_$auto$ff.cc:266:slice$15"/>
    <g transform="translate(0,10)" s:x="0" s:y="10" s:pid="in0" id="port_$auto$ff.cc:266:slice$15~CLK">
      <text x="-3" y="-4" class="inputPortLabel cell_$auto$ff.cc:266:slice$15">CLK</text>
    </g>
    <g transform="translate(0,30)" s:x="0" s:y="10" s:pid="in0" id="port_$auto$ff.cc:266:slice$15~D">
      <text x="-3" y="-4" class="inputPortLabel cell_$auto$ff.cc:266:slice$15">D</text>
    </g>
    <g transform="translate(0,50)" s:x="0" s:y="10" s:pid="in0" id="port_$auto$ff.cc:266:slice$15~SRST">
      <text x="-3" y="-4" class="inputPortLabel cell_$auto$ff.cc:266:slice$15">SRST</text>
    </g>
    <g transform="translate(30,10)" s:x="30" s:y="10" s:pid="out0" id="port_$auto$ff.cc:266:slice$15~Q">
      <text x="5" y="-4" style="fill:#000; stroke:none" class="cell_$auto$ff.cc:266:slice$15">Q</text>
    </g>
  </g>
  <g s:type="inputExt" transform="translate(120,22)" s:width="30" s:height="20" id="cell_sys_clk">
    <text x="15" y="-4" class="nodelabel cell_sys_clk" s:attribute="ref">sys_clk</text>
    <s:alias val="$_inputExt_"/>
    <path d="M0,0 L0,20 L15,20 L30,10 L15,0 Z" class="cell_sys_clk"/>
    <g s:x="28" s:y="10" s:pid="Y"/>
  </g>
  <g s:type="inputExt" transform="translate(120,195.5)" s:width="30" s:height="20" id="cell_sys_rst">
    <text x="15" y="-4" class="nodelabel cell_sys_rst" s:attribute="ref">sys_rst</text>
    <s:alias val="$_inputExt_"/>
    <path d="M0,0 L0,20 L15,20 L30,10 L15,0 Z" class="cell_sys_rst"/>
    <g s:x="28" s:y="10" s:pid="Y"/>
  </g>
  <g s:type="inputExt" transform="translate(12,87.5)" s:width="30" s:height="20" id="cell_cfg_clk">
    <text x="15" y="-4" class="nodelabel cell_cfg_clk" s:attribute="ref">cfg_clk</text>
    <s:alias val="$_inputExt_"/>
    <path d="M0,0 L0,20 L15,20 L30,10 L15,0 Z" class="cell_cfg_clk"/>
    <g s:x="28" s:y="10" s:pid="Y"/>
  </g>
  <g s:type="inputExt" transform="translate(12,267)" s:width="30" s:height="20" id="cell_cfg_rst">
    <text x="15" y="-4" class="nodelabel cell_cfg_rst" s:attribute="ref">cfg_rst</text>
    <s:alias val="$_inputExt_"/>
    <path d="M0,0 L0,20 L15,20 L30,10 L15,0 Z" class="cell_cfg_rst"/>
    <g s:x="28" s:y="10" s:pid="Y"/>
  </g>
  <g s:type="inputExt" transform="translate(12,22.5)" s:width="30" s:height="20" id="cell_mode_sel">
    <text x="15" y="-4" class="nodelabel cell_mode_sel" s:attribute="ref">mode_sel</text>
    <s:alias val="$_inputExt_"/>
    <path d="M0,0 L0,20 L15,20 L30,10 L15,0 Z" class="cell_mode_sel"/>
    <g s:x="28" s:y="10" s:pid="Y"/>
  </g>
  <g s:type="inputExt" transform="translate(120,247)" s:width="30" s:height="20" id="cell_duty_cycle">
    <text x="15" y="-4" class="nodelabel cell_duty_cycle" s:attribute="ref">duty_cycle</text>
    <s:alias val="$_inputExt_"/>
    <path d="M0,0 L0,20 L15,20 L30,10 L15,0 Z" class="cell_duty_cycle"/>
    <g s:x="28" s:y="10" s:pid="Y"/>
  </g>
  <g s:type="outputExt" transform="translate(707,47.5)" s:width="30" s:height="20" id="cell_blinky_en">
    <text x="15" y="-4" class="nodelabel cell_blinky_en" s:attribute="ref">blinky_en</text>
    <s:alias val="$_outputExt_"/>
    <path d="M30,0 L30,20 L15,20 L0,10 L15,0 Z" class="cell_blinky_en"/>
    <g s:x="0" s:y="10" s:pid="A"/>
  </g>
  <g s:type="outputExt" transform="translate(707,155.5)" s:width="30" s:height="20" id="cell_pwm_duty">
    <text x="15" y="-4" class="nodelabel cell_pwm_duty" s:attribute="ref">pwm_duty</text>
    <s:alias val="$_outputExt_"/>
    <path d="M30,0 L30,20 L15,20 L0,10 L15,0 Z" class="cell_pwm_duty"/>
    <g s:x="0" s:y="10" s:pid="A"/>
  </g>
  <line x1="40" x2="120" y1="97.5" y2="97.5" class="net_4"/>
  <line x1="40" x2="70" y1="97.5" y2="97.5" class="net_4"/>
  <line x1="70" x2="70" y1="97.5" y2="225.5" class="net_4"/>
  <line x1="70" x2="274" y1="225.5" y2="225.5" class="net_4"/>
  <line x1="274" x2="274" y1="225.5" y2="237" class="net_4"/>
  <circle cx="70" cy="97.5" r="2" style="fill:#000" class="net_4"/>
  <line x1="274" x2="324" y1="237" y2="237" class="net_4"/>
  <line x1="40" x2="80" y1="32.5" y2="32.5" class="net_6"/>
  <line x1="80" x2="80" y1="32.5" y2="117.5" class="net_6"/>
  <line x1="80" x2="120" y1="117.5" y2="117.5" class="net_6"/>
  <line x1="40" x2="80" y1="277" y2="277" class="net_5"/>
  <line x1="80" x2="80" y1="277" y2="137.5" class="net_5"/>
  <circle cx="80" cy="277" r="2" style="fill:#000" class="net_5"/>
  <line x1="80" x2="120" y1="137.5" y2="137.5" class="net_5"/>
  <line x1="40" x2="324" y1="277" y2="277" class="net_5"/>
  <line x1="148" x2="324" y1="257" y2="257" class="net_7,8,9,10,11,12,13,14"/>
  <line x1="148" x2="274" y1="32" y2="32" class="net_2"/>
  <line x1="274" x2="274" y1="32" y2="77.5" class="net_2"/>
  <circle cx="274" cy="32" r="2" style="fill:#000" class="net_2"/>
  <line x1="274" x2="324" y1="77.5" y2="77.5" class="net_2"/>
  <line x1="148" x2="488" y1="32" y2="32" class="net_2"/>
  <line x1="488" x2="488" y1="32" y2="57.5" class="net_2"/>
  <circle cx="488" cy="57.5" r="2" style="fill:#000" class="net_2"/>
  <line x1="488" x2="528" y1="57.5" y2="57.5" class="net_2"/>
  <line x1="148" x2="488" y1="32" y2="32" class="net_2"/>
  <line x1="488" x2="488" y1="32" y2="165.5" class="net_2"/>
  <line x1="488" x2="528" y1="165.5" y2="165.5" class="net_2"/>
  <line x1="151" x2="324" y1="97.5" y2="97.5" class="net_24"/>
  <line x1="148" x2="274" y1="205.5" y2="205.5" class="net_3"/>
  <line x1="274" x2="274" y1="205.5" y2="117.5" class="net_3"/>
  <circle cx="274" cy="205.5" r="2" style="fill:#000" class="net_3"/>
  <line x1="274" x2="324" y1="117.5" y2="117.5" class="net_3"/>
  <line x1="148" x2="478" y1="205.5" y2="205.5" class="net_3"/>
  <line x1="478" x2="478" y1="205.5" y2="97.5" class="net_3"/>
  <circle cx="478" cy="205.5" r="2" style="fill:#000" class="net_3"/>
  <line x1="478" x2="528" y1="97.5" y2="97.5" class="net_3"/>
  <line x1="148" x2="528" y1="205.5" y2="205.5" class="net_3"/>
  <line x1="355" x2="528" y1="77.5" y2="77.5" class="net_33"/>
  <line x1="355" x2="488" y1="237" y2="237" class="net_25,26,27,28,29,30,31,32"/>
  <line x1="488" x2="488" y1="237" y2="185.5" class="net_25,26,27,28,29,30,31,32"/>
  <line x1="488" x2="528" y1="185.5" y2="185.5" class="net_25,26,27,28,29,30,31,32"/>
  <line x1="559" x2="707" y1="57.5" y2="57.5" class="net_15"/>
  <line x1="559" x2="707" y1="165.5" y2="165.5" class="net_16,17,18,19,20,21,22,23"/>
</svg>
